solid OpenSCAD_Model
  facet normal 1 -0 0
    outer loop
      vertex 5 0 5.2
      vertex 5 37 0
      vertex 5 37 5.2
    endloop
  endfacet
  facet normal 1 0 0
    outer loop
      vertex 5 37 0
      vertex 5 0 5.2
      vertex 5 0 0
    endloop
  endfacet
  facet normal 0 0 -1
    outer loop
      vertex 5 0 5.2
      vertex 10.2 37 5.2
      vertex 10.2 0 5.2
    endloop
  endfacet
  facet normal -0 0 -1
    outer loop
      vertex 10.2 37 5.2
      vertex 5 0 5.2
      vertex 5 37 5.2
    endloop
  endfacet
  facet normal -1 0 0
    outer loop
      vertex 10.2 0 2.3
      vertex 10.2 37 5.2
      vertex 10.2 37 2.3
    endloop
  endfacet
  facet normal -1 -0 0
    outer loop
      vertex 10.2 37 5.2
      vertex 10.2 0 2.3
      vertex 10.2 0 5.2
    endloop
  endfacet
  facet normal 0 -1 0
    outer loop
      vertex 5 37 5.2
      vertex 7.7 37 2.3
      vertex 10.2 37 5.2
    endloop
  endfacet
  facet normal 0 -1 0
    outer loop
      vertex 5 37 0
      vertex 7.7 37 2.3
      vertex 5 37 5.2
    endloop
  endfacet
  facet normal 0 -1 -0
    outer loop
      vertex 7.7 37 2.3
      vertex 5 37 0
      vertex 7.7 37 0
    endloop
  endfacet
  facet normal 0 -1 -0
    outer loop
      vertex 10.2 37 5.2
      vertex 7.7 37 2.3
      vertex 10.2 37 2.3
    endloop
  endfacet
  facet normal -1 0 0
    outer loop
      vertex 7.7 0 0
      vertex 7.7 37 2.3
      vertex 7.7 37 0
    endloop
  endfacet
  facet normal -1 -0 0
    outer loop
      vertex 7.7 37 2.3
      vertex 7.7 0 0
      vertex 7.7 0 2.3
    endloop
  endfacet
  facet normal -0 0 1
    outer loop
      vertex 7.7 37 2.3
      vertex 10.2 0 2.3
      vertex 10.2 37 2.3
    endloop
  endfacet
  facet normal 0 0 1
    outer loop
      vertex 10.2 0 2.3
      vertex 7.7 37 2.3
      vertex 7.7 0 2.3
    endloop
  endfacet
  facet normal -1 0 0
    outer loop
      vertex 28 0 0
      vertex 28 37 5.2
      vertex 28 37 0
    endloop
  endfacet
  facet normal -1 -0 0
    outer loop
      vertex 28 37 5.2
      vertex 28 0 0
      vertex 28 0 5.2
    endloop
  endfacet
  facet normal 0 0 -1
    outer loop
      vertex 22.8 0 5.2
      vertex 28 37 5.2
      vertex 28 0 5.2
    endloop
  endfacet
  facet normal -0 0 -1
    outer loop
      vertex 28 37 5.2
      vertex 22.8 0 5.2
      vertex 22.8 37 5.2
    endloop
  endfacet
  facet normal 1 -0 0
    outer loop
      vertex 22.8 0 5.2
      vertex 22.8 37 2.3
      vertex 22.8 37 5.2
    endloop
  endfacet
  facet normal 1 0 0
    outer loop
      vertex 22.8 37 2.3
      vertex 22.8 0 5.2
      vertex 22.8 0 2.3
    endloop
  endfacet
  facet normal 0 -1 0
    outer loop
      vertex 25.3 37 2.3
      vertex 22.8 37 5.2
      vertex 22.8 37 2.3
    endloop
  endfacet
  facet normal 0 -1 0
    outer loop
      vertex 22.8 37 5.2
      vertex 25.3 37 2.3
      vertex 28 37 5.2
    endloop
  endfacet
  facet normal 0 -1 0
    outer loop
      vertex 28 37 0
      vertex 25.3 37 2.3
      vertex 25.3 37 0
    endloop
  endfacet
  facet normal 0 -1 0
    outer loop
      vertex 25.3 37 2.3
      vertex 28 37 0
      vertex 28 37 5.2
    endloop
  endfacet
  facet normal 1 -0 0
    outer loop
      vertex 25.3 0 2.3
      vertex 25.3 37 0
      vertex 25.3 37 2.3
    endloop
  endfacet
  facet normal 1 0 0
    outer loop
      vertex 25.3 37 0
      vertex 25.3 0 2.3
      vertex 25.3 0 0
    endloop
  endfacet
  facet normal -0 0 1
    outer loop
      vertex 22.8 37 2.3
      vertex 25.3 0 2.3
      vertex 25.3 37 2.3
    endloop
  endfacet
  facet normal 0 0 1
    outer loop
      vertex 25.3 0 2.3
      vertex 22.8 37 2.3
      vertex 22.8 0 2.3
    endloop
  endfacet
  facet normal -1 0 0
    outer loop
      vertex 0 0 0
      vertex 0 46 10
      vertex 0 46 0
    endloop
  endfacet
  facet normal -1 -0 0
    outer loop
      vertex 0 46 10
      vertex 0 0 0
      vertex 0 0 10
    endloop
  endfacet
  facet normal -0 0 1
    outer loop
      vertex 0 46 10
      vertex 33 0 10
      vertex 33 46 10
    endloop
  endfacet
  facet normal 0 0 1
    outer loop
      vertex 33 0 10
      vertex 0 46 10
      vertex 0 0 10
    endloop
  endfacet
  facet normal 1 -0 0
    outer loop
      vertex 33 0 10
      vertex 33 46 0
      vertex 33 46 10
    endloop
  endfacet
  facet normal 1 0 0
    outer loop
      vertex 33 46 0
      vertex 33 0 10
      vertex 33 0 0
    endloop
  endfacet
  facet normal 0 0 -1
    outer loop
      vertex 5 0 0
      vertex 0 0 0
      vertex 5 37 0
    endloop
  endfacet
  facet normal 0 0 -1
    outer loop
      vertex 25.3 0 0
      vertex 7.7 0 0
      vertex 25.3 37 0
    endloop
  endfacet
  facet normal 0 0 -1
    outer loop
      vertex 28 37 0
      vertex 33 0 0
      vertex 28 0 0
    endloop
  endfacet
  facet normal 0 0 -1
    outer loop
      vertex 33 0 0
      vertex 28 37 0
      vertex 33 46 0
    endloop
  endfacet
  facet normal 0 0 -1
    outer loop
      vertex 25.3 37 0
      vertex 33 46 0
      vertex 28 37 0
    endloop
  endfacet
  facet normal 0 0 -1
    outer loop
      vertex 7.7 37 0
      vertex 25.3 37 0
      vertex 7.7 0 0
    endloop
  endfacet
  facet normal 0 0 -1
    outer loop
      vertex 7.7 37 0
      vertex 33 46 0
      vertex 25.3 37 0
    endloop
  endfacet
  facet normal 0 0 -1
    outer loop
      vertex 0 46 0
      vertex 7.7 37 0
      vertex 5 37 0
    endloop
  endfacet
  facet normal 0 0 -1
    outer loop
      vertex 7.7 37 0
      vertex 0 46 0
      vertex 33 46 0
    endloop
  endfacet
  facet normal 0 0 -1
    outer loop
      vertex 0 46 0
      vertex 5 37 0
      vertex 0 0 0
    endloop
  endfacet
  facet normal 0 -1 0
    outer loop
      vertex 7.7 0 0
      vertex 10.2 0 2.3
      vertex 7.7 0 2.3
    endloop
  endfacet
  facet normal 0 -1 -0
    outer loop
      vertex 10.2 0 2.3
      vertex 7.7 0 0
      vertex 22.8 0 2.3
    endloop
  endfacet
  facet normal 0 -1 0
    outer loop
      vertex 25.3 0 0
      vertex 22.8 0 2.3
      vertex 7.7 0 0
    endloop
  endfacet
  facet normal 0 -1 0
    outer loop
      vertex 22.8 0 2.3
      vertex 25.3 0 0
      vertex 25.3 0 2.3
    endloop
  endfacet
  facet normal 0 -1 0
    outer loop
      vertex 10.2 0 2.3
      vertex 22.8 0 5.2
      vertex 10.2 0 5.2
    endloop
  endfacet
  facet normal 0 -1 -0
    outer loop
      vertex 22.8 0 5.2
      vertex 10.2 0 2.3
      vertex 22.8 0 2.3
    endloop
  endfacet
  facet normal 0 -1 0
    outer loop
      vertex 10.2 0 5.2
      vertex 0 0 10
      vertex 5 0 5.2
    endloop
  endfacet
  facet normal 0 -1 0
    outer loop
      vertex 0 0 0
      vertex 5 0 5.2
      vertex 0 0 10
    endloop
  endfacet
  facet normal 0 -1 -0
    outer loop
      vertex 5 0 5.2
      vertex 0 0 0
      vertex 5 0 0
    endloop
  endfacet
  facet normal 0 -1 0
    outer loop
      vertex 0 0 10
      vertex 10.2 0 5.2
      vertex 33 0 10
    endloop
  endfacet
  facet normal 0 -1 0
    outer loop
      vertex 22.8 0 5.2
      vertex 33 0 10
      vertex 10.2 0 5.2
    endloop
  endfacet
  facet normal 0 -1 0
    outer loop
      vertex 28 0 5.2
      vertex 33 0 10
      vertex 22.8 0 5.2
    endloop
  endfacet
  facet normal 0 -1 0
    outer loop
      vertex 33 0 0
      vertex 28 0 5.2
      vertex 28 0 0
    endloop
  endfacet
  facet normal 0 -1 0
    outer loop
      vertex 28 0 5.2
      vertex 33 0 0
      vertex 33 0 10
    endloop
  endfacet
  facet normal 0 1 -0
    outer loop
      vertex 33 46 0
      vertex 0 46 10
      vertex 33 46 10
    endloop
  endfacet
  facet normal 0 1 0
    outer loop
      vertex 0 46 10
      vertex 33 46 0
      vertex 0 46 0
    endloop
  endfacet
endsolid OpenSCAD_Model
