solid OpenSCAD_Model
  facet normal -1 0 0
    outer loop
      vertex -17 -12 0
      vertex -17 12 16
      vertex -17 12 0
    endloop
  endfacet
  facet normal -1 -0 0
    outer loop
      vertex -17 12 16
      vertex -17 -12 0
      vertex -17 -12 16
    endloop
  endfacet
  facet normal -0 0 1
    outer loop
      vertex -15 10 2
      vertex 15 -10 2
      vertex 15 10 2
    endloop
  endfacet
  facet normal 0 0 1
    outer loop
      vertex 15 -10 2
      vertex -15 10 2
      vertex -15 -10 2
    endloop
  endfacet
  facet normal 1 -0 0
    outer loop
      vertex 17 -12 16
      vertex 17 12 0
      vertex 17 12 16
    endloop
  endfacet
  facet normal 1 0 0
    outer loop
      vertex 17 12 0
      vertex 17 -12 16
      vertex 17 -12 0
    endloop
  endfacet
  facet normal 0 1 -0
    outer loop
      vertex 17 12 0
      vertex -17 12 16
      vertex 17 12 16
    endloop
  endfacet
  facet normal 0 1 0
    outer loop
      vertex -17 12 16
      vertex 17 12 0
      vertex -17 12 0
    endloop
  endfacet
  facet normal 0 0 -1
    outer loop
      vertex -17 -12 0
      vertex 17 12 0
      vertex 17 -12 0
    endloop
  endfacet
  facet normal -0 0 -1
    outer loop
      vertex 17 12 0
      vertex -17 -12 0
      vertex -17 12 0
    endloop
  endfacet
  facet normal 0 -1 0
    outer loop
      vertex -17 -12 0
      vertex 17 -12 16
      vertex -17 -12 16
    endloop
  endfacet
  facet normal 0 -1 -0
    outer loop
      vertex 17 -12 16
      vertex -17 -12 0
      vertex 17 -12 0
    endloop
  endfacet
  facet normal 0 0 1
    outer loop
      vertex 17 12 16
      vertex 15 10 16
      vertex 17 -12 16
    endloop
  endfacet
  facet normal 0 0 1
    outer loop
      vertex 17 12 16
      vertex -15 10 16
      vertex 15 10 16
    endloop
  endfacet
  facet normal 0 0 1
    outer loop
      vertex -15 10 16
      vertex -17 12 16
      vertex -15 -10 16
    endloop
  endfacet
  facet normal -0 0 1
    outer loop
      vertex -17 12 16
      vertex -15 10 16
      vertex 17 12 16
    endloop
  endfacet
  facet normal -0 0 1
    outer loop
      vertex 15 -10 16
      vertex 17 -12 16
      vertex 15 10 16
    endloop
  endfacet
  facet normal -0 0 1
    outer loop
      vertex -15 -10 16
      vertex 17 -12 16
      vertex 15 -10 16
    endloop
  endfacet
  facet normal 0 0 1
    outer loop
      vertex -15 -10 16
      vertex -17 -12 16
      vertex 17 -12 16
    endloop
  endfacet
  facet normal 0 0 1
    outer loop
      vertex -17 -12 16
      vertex -15 -10 16
      vertex -17 12 16
    endloop
  endfacet
  facet normal 0 1 -0
    outer loop
      vertex 15 -10 2
      vertex -15 -10 16
      vertex 15 -10 16
    endloop
  endfacet
  facet normal 0 1 0
    outer loop
      vertex -15 -10 16
      vertex 15 -10 2
      vertex -15 -10 2
    endloop
  endfacet
  facet normal 1 -0 0
    outer loop
      vertex -15 -10 16
      vertex -15 10 2
      vertex -15 10 16
    endloop
  endfacet
  facet normal 1 0 0
    outer loop
      vertex -15 10 2
      vertex -15 -10 16
      vertex -15 -10 2
    endloop
  endfacet
  facet normal 0 -1 0
    outer loop
      vertex -15 10 2
      vertex 15 10 16
      vertex -15 10 16
    endloop
  endfacet
  facet normal 0 -1 -0
    outer loop
      vertex 15 10 16
      vertex -15 10 2
      vertex 15 10 2
    endloop
  endfacet
  facet normal -1 0 0
    outer loop
      vertex 15 -10 2
      vertex 15 10 16
      vertex 15 10 2
    endloop
  endfacet
  facet normal -1 -0 0
    outer loop
      vertex 15 10 16
      vertex 15 -10 2
      vertex 15 -10 16
    endloop
  endfacet
  facet normal -1 0 0
    outer loop
      vertex -17 -38 0
      vertex -17 -14 2
      vertex -17 -14 0
    endloop
  endfacet
  facet normal -1 -0 0
    outer loop
      vertex -17 -14 2
      vertex -17 -38 0
      vertex -17 -38 2
    endloop
  endfacet
  facet normal 0 0 1
    outer loop
      vertex 17 -14 2
      vertex 15 -16 2
      vertex 17 -38 2
    endloop
  endfacet
  facet normal 0 0 1
    outer loop
      vertex 17 -14 2
      vertex -15 -16 2
      vertex 15 -16 2
    endloop
  endfacet
  facet normal 0 0 1
    outer loop
      vertex -15 -16 2
      vertex -17 -14 2
      vertex -15 -36 2
    endloop
  endfacet
  facet normal -0 0 1
    outer loop
      vertex -17 -14 2
      vertex -15 -16 2
      vertex 17 -14 2
    endloop
  endfacet
  facet normal -0 0 1
    outer loop
      vertex 15 -36 2
      vertex 17 -38 2
      vertex 15 -16 2
    endloop
  endfacet
  facet normal -0 0 1
    outer loop
      vertex -15 -36 2
      vertex 17 -38 2
      vertex 15 -36 2
    endloop
  endfacet
  facet normal 0 0 1
    outer loop
      vertex -15 -36 2
      vertex -17 -38 2
      vertex 17 -38 2
    endloop
  endfacet
  facet normal 0 0 1
    outer loop
      vertex -17 -38 2
      vertex -15 -36 2
      vertex -17 -14 2
    endloop
  endfacet
  facet normal 1 -0 0
    outer loop
      vertex 17 -38 2
      vertex 17 -14 0
      vertex 17 -14 2
    endloop
  endfacet
  facet normal 1 0 0
    outer loop
      vertex 17 -14 0
      vertex 17 -38 2
      vertex 17 -38 0
    endloop
  endfacet
  facet normal 0 1 -0
    outer loop
      vertex 17 -14 0
      vertex -17 -14 2
      vertex 17 -14 2
    endloop
  endfacet
  facet normal 0 1 0
    outer loop
      vertex -17 -14 2
      vertex 17 -14 0
      vertex -17 -14 0
    endloop
  endfacet
  facet normal 0 0 -1
    outer loop
      vertex -17 -38 0
      vertex 17 -14 0
      vertex 17 -38 0
    endloop
  endfacet
  facet normal -0 0 -1
    outer loop
      vertex 17 -14 0
      vertex -17 -38 0
      vertex -17 -14 0
    endloop
  endfacet
  facet normal 0 -1 0
    outer loop
      vertex -17 -38 0
      vertex 17 -38 2
      vertex -17 -38 2
    endloop
  endfacet
  facet normal 0 -1 -0
    outer loop
      vertex 17 -38 2
      vertex -17 -38 0
      vertex 17 -38 0
    endloop
  endfacet
  facet normal -1 0 0
    outer loop
      vertex -15 -36 2
      vertex -15 -16 4
      vertex -15 -16 2
    endloop
  endfacet
  facet normal -1 -0 0
    outer loop
      vertex -15 -16 4
      vertex -15 -36 2
      vertex -15 -36 4
    endloop
  endfacet
  facet normal -0 0 1
    outer loop
      vertex -15 -16 4
      vertex 15 -36 4
      vertex 15 -16 4
    endloop
  endfacet
  facet normal 0 0 1
    outer loop
      vertex 15 -36 4
      vertex -15 -16 4
      vertex -15 -36 4
    endloop
  endfacet
  facet normal 1 -0 0
    outer loop
      vertex 15 -36 4
      vertex 15 -16 2
      vertex 15 -16 4
    endloop
  endfacet
  facet normal 1 0 0
    outer loop
      vertex 15 -16 2
      vertex 15 -36 4
      vertex 15 -36 2
    endloop
  endfacet
  facet normal 0 1 -0
    outer loop
      vertex 15 -16 2
      vertex -15 -16 4
      vertex 15 -16 4
    endloop
  endfacet
  facet normal 0 1 0
    outer loop
      vertex -15 -16 4
      vertex 15 -16 2
      vertex -15 -16 2
    endloop
  endfacet
  facet normal 0 -1 0
    outer loop
      vertex -15 -36 2
      vertex 15 -36 4
      vertex -15 -36 4
    endloop
  endfacet
  facet normal 0 -1 -0
    outer loop
      vertex 15 -36 4
      vertex -15 -36 2
      vertex 15 -36 2
    endloop
  endfacet
  facet normal -1 0 0
    outer loop
      vertex 20 -10 0
      vertex 20 10 10
      vertex 20 10 0
    endloop
  endfacet
  facet normal -1 -0 0
    outer loop
      vertex 20 10 10
      vertex 20 -10 0
      vertex 20 -10 10
    endloop
  endfacet
  facet normal -0 0 1
    outer loop
      vertex 20 10 10
      vertex 50 -10 10
      vertex 50 10 10
    endloop
  endfacet
  facet normal 0 0 1
    outer loop
      vertex 50 -10 10
      vertex 20 10 10
      vertex 20 -10 10
    endloop
  endfacet
  facet normal 1 -0 0
    outer loop
      vertex 50 -10 10
      vertex 50 10 0
      vertex 50 10 10
    endloop
  endfacet
  facet normal 1 0 0
    outer loop
      vertex 50 10 0
      vertex 50 -10 10
      vertex 50 -10 0
    endloop
  endfacet
  facet normal 0 1 -0
    outer loop
      vertex 50 10 0
      vertex 20 10 10
      vertex 50 10 10
    endloop
  endfacet
  facet normal 0 1 0
    outer loop
      vertex 20 10 10
      vertex 50 10 0
      vertex 20 10 0
    endloop
  endfacet
  facet normal 0 0 -1
    outer loop
      vertex 20 -10 0
      vertex 50 10 0
      vertex 50 -10 0
    endloop
  endfacet
  facet normal -0 0 -1
    outer loop
      vertex 50 10 0
      vertex 20 -10 0
      vertex 20 10 0
    endloop
  endfacet
  facet normal 0 -1 0
    outer loop
      vertex 20 -10 0
      vertex 50 -10 10
      vertex 20 -10 10
    endloop
  endfacet
  facet normal 0 -1 -0
    outer loop
      vertex 50 -10 10
      vertex 20 -10 0
      vertex 50 -10 0
    endloop
  endfacet
endsolid OpenSCAD_Model
