solid OpenSCAD_Model
  facet normal -0.678598 0.281084 -0.678599
    outer loop
      vertex -18.4567 12.5 0.190301
      vertex -19.8097 12.5 1.54329
      vertex -19.1332 14.1332 1.54329
    endloop
  endfacet
  facet normal -0.678597 0.281085 -0.678599
    outer loop
      vertex -18.4567 12.5 0.190301
      vertex -19.1332 14.1332 1.54329
      vertex -18.1765 13.1765 0.190301
    endloop
  endfacet
  facet normal -0.281084 0.678598 -0.678598
    outer loop
      vertex -17.5 13.4567 0.190301
      vertex -19.1332 14.1332 1.54329
      vertex -17.5 14.8097 1.54329
    endloop
  endfacet
  facet normal 0.382683 0.92388 -0
    outer loop
      vertex 19.1332 14.1332 1.54329
      vertex 17.5 14.8097 28.4567
      vertex 19.1332 14.1332 28.4567
    endloop
  endfacet
  facet normal 0.382683 0.92388 0
    outer loop
      vertex 17.5 14.8097 28.4567
      vertex 19.1332 14.1332 1.54329
      vertex 17.5 14.8097 1.54329
    endloop
  endfacet
  facet normal -0.678598 -0.281084 -0.678599
    outer loop
      vertex -19.1332 -14.1332 1.54329
      vertex -19.8097 -12.5 1.54329
      vertex -18.4567 -12.5 0.190301
    endloop
  endfacet
  facet normal -0.382683 0.92388 0
    outer loop
      vertex -17.5 14.8097 1.54329
      vertex -19.1332 14.1332 28.4567
      vertex -17.5 14.8097 28.4567
    endloop
  endfacet
  facet normal -0.382683 0.92388 0
    outer loop
      vertex -19.1332 14.1332 28.4567
      vertex -17.5 14.8097 1.54329
      vertex -19.1332 14.1332 1.54329
    endloop
  endfacet
  facet normal 0 1 -0
    outer loop
      vertex 17.5 14.8097 1.54329
      vertex -17.5 14.8097 28.4567
      vertex 17.5 14.8097 28.4567
    endloop
  endfacet
  facet normal 0 1 0
    outer loop
      vertex -17.5 14.8097 28.4567
      vertex 17.5 14.8097 1.54329
      vertex -17.5 14.8097 1.54329
    endloop
  endfacet
  facet normal 0.707107 0 -0.707107
    outer loop
      vertex 18.4567 -12.5 0.190301
      vertex 19.8097 12.5 1.54329
      vertex 19.8097 -12.5 1.54329
    endloop
  endfacet
  facet normal 0.707107 0 -0.707107
    outer loop
      vertex 19.8097 12.5 1.54329
      vertex 18.4567 -12.5 0.190301
      vertex 18.4567 12.5 0.190301
    endloop
  endfacet
  facet normal 0.281084 -0.678598 -0.678598
    outer loop
      vertex 19.1332 -14.1332 1.54329
      vertex 17.5 -14.8097 1.54329
      vertex 17.5 -13.4567 0.190301
    endloop
  endfacet
  facet normal -0.707107 0 -0.707107
    outer loop
      vertex -19.8097 -12.5 1.54329
      vertex -18.4567 12.5 0.190301
      vertex -18.4567 -12.5 0.190301
    endloop
  endfacet
  facet normal -0.707107 0 -0.707107
    outer loop
      vertex -18.4567 12.5 0.190301
      vertex -19.8097 -12.5 1.54329
      vertex -19.8097 12.5 1.54329
    endloop
  endfacet
  facet normal 0 0 -1
    outer loop
      vertex 17.5 -13.4567 0.190301
      vertex 18.4567 -12.5 0.190301
      vertex 18.1765 -13.1765 0.190301
    endloop
  endfacet
  facet normal -0 0 -1
    outer loop
      vertex 18.4567 -12.5 0.190301
      vertex 17.5 -13.4567 0.190301
      vertex 18.4567 12.5 0.190301
    endloop
  endfacet
  facet normal 0 0 -1
    outer loop
      vertex 17.5 13.4567 0.190301
      vertex 18.4567 12.5 0.190301
      vertex 17.5 -13.4567 0.190301
    endloop
  endfacet
  facet normal 0 0 -1
    outer loop
      vertex 18.4567 12.5 0.190301
      vertex 17.5 13.4567 0.190301
      vertex 18.1765 13.1765 0.190301
    endloop
  endfacet
  facet normal 0 0 -1
    outer loop
      vertex -17.5 -13.4567 0.190301
      vertex 17.5 13.4567 0.190301
      vertex 17.5 -13.4567 0.190301
    endloop
  endfacet
  facet normal 0 0 -1
    outer loop
      vertex -17.5 -13.4567 0.190301
      vertex -17.5 13.4567 0.190301
      vertex 17.5 13.4567 0.190301
    endloop
  endfacet
  facet normal 0 0 -1
    outer loop
      vertex -18.4567 -12.5 0.190301
      vertex -17.5 -13.4567 0.190301
      vertex -18.1765 -13.1765 0.190301
    endloop
  endfacet
  facet normal 0 0 -1
    outer loop
      vertex -17.5 -13.4567 0.190301
      vertex -18.4567 -12.5 0.190301
      vertex -17.5 13.4567 0.190301
    endloop
  endfacet
  facet normal 0 0 -1
    outer loop
      vertex -18.4567 12.5 0.190301
      vertex -17.5 13.4567 0.190301
      vertex -18.4567 -12.5 0.190301
    endloop
  endfacet
  facet normal 0 0 -1
    outer loop
      vertex -17.5 13.4567 0.190301
      vertex -18.4567 12.5 0.190301
      vertex -18.1765 13.1765 0.190301
    endloop
  endfacet
  facet normal -0.92388 0.382683 0
    outer loop
      vertex -19.8097 12.5 1.54329
      vertex -19.1332 14.1332 28.4567
      vertex -19.1332 14.1332 1.54329
    endloop
  endfacet
  facet normal -0.92388 0.382683 0
    outer loop
      vertex -19.1332 14.1332 28.4567
      vertex -19.8097 12.5 1.54329
      vertex -19.8097 12.5 28.4567
    endloop
  endfacet
  facet normal -0 0 1
    outer loop
      vertex -15.1903 10.1903 9.8097
      vertex 15.1903 -10.1903 9.8097
      vertex 15.1903 10.1903 9.8097
    endloop
  endfacet
  facet normal 0 0 1
    outer loop
      vertex 15.1903 -10.1903 9.8097
      vertex -15.1903 10.1903 9.8097
      vertex -15.1903 -10.1903 9.8097
    endloop
  endfacet
  facet normal 0 -0.707107 -0.707107
    outer loop
      vertex -17.5 -13.4567 0.190301
      vertex 17.5 -14.8097 1.54329
      vertex -17.5 -14.8097 1.54329
    endloop
  endfacet
  facet normal 0 -0.707107 -0.707107
    outer loop
      vertex 17.5 -14.8097 1.54329
      vertex -17.5 -13.4567 0.190301
      vertex 17.5 -13.4567 0.190301
    endloop
  endfacet
  facet normal 0.281084 0.678598 -0.678598
    outer loop
      vertex 19.1332 14.1332 1.54329
      vertex 17.5 13.4567 0.190301
      vertex 17.5 14.8097 1.54329
    endloop
  endfacet
  facet normal 0 0.707107 -0.707107
    outer loop
      vertex 17.5 13.4567 0.190301
      vertex -17.5 14.8097 1.54329
      vertex 17.5 14.8097 1.54329
    endloop
  endfacet
  facet normal 0 0.707107 -0.707107
    outer loop
      vertex -17.5 14.8097 1.54329
      vertex 17.5 13.4567 0.190301
      vertex -17.5 13.4567 0.190301
    endloop
  endfacet
  facet normal 0.281085 0.678598 -0.678599
    outer loop
      vertex 18.1765 13.1765 0.190301
      vertex 17.5 13.4567 0.190301
      vertex 19.1332 14.1332 1.54329
    endloop
  endfacet
  facet normal 0.678598 0.281084 -0.678599
    outer loop
      vertex 19.8097 12.5 1.54329
      vertex 18.4567 12.5 0.190301
      vertex 19.1332 14.1332 1.54329
    endloop
  endfacet
  facet normal 0.678598 -0.281084 -0.678599
    outer loop
      vertex 19.1332 -14.1332 1.54329
      vertex 18.4567 -12.5 0.190301
      vertex 19.8097 -12.5 1.54329
    endloop
  endfacet
  facet normal 0.92388 -0.382683 0
    outer loop
      vertex 19.1332 -14.1332 28.4567
      vertex 19.8097 -12.5 1.54329
      vertex 19.8097 -12.5 28.4567
    endloop
  endfacet
  facet normal 0.92388 -0.382683 0
    outer loop
      vertex 19.8097 -12.5 1.54329
      vertex 19.1332 -14.1332 28.4567
      vertex 19.1332 -14.1332 1.54329
    endloop
  endfacet
  facet normal -0.678597 -0.281085 -0.678599
    outer loop
      vertex -18.1765 -13.1765 0.190301
      vertex -19.1332 -14.1332 1.54329
      vertex -18.4567 -12.5 0.190301
    endloop
  endfacet
  facet normal 0 -1 0
    outer loop
      vertex -17.5 -14.8097 1.54329
      vertex 17.5 -14.8097 28.4567
      vertex -17.5 -14.8097 28.4567
    endloop
  endfacet
  facet normal 0 -1 -0
    outer loop
      vertex 17.5 -14.8097 28.4567
      vertex -17.5 -14.8097 1.54329
      vertex 17.5 -14.8097 1.54329
    endloop
  endfacet
  facet normal -0.281085 0.678598 -0.678599
    outer loop
      vertex -18.1765 13.1765 0.190301
      vertex -19.1332 14.1332 1.54329
      vertex -17.5 13.4567 0.190301
    endloop
  endfacet
  facet normal 1 -0 0
    outer loop
      vertex 19.8097 -12.5 28.4567
      vertex 19.8097 12.5 1.54329
      vertex 19.8097 12.5 28.4567
    endloop
  endfacet
  facet normal 1 0 0
    outer loop
      vertex 19.8097 12.5 1.54329
      vertex 19.8097 -12.5 28.4567
      vertex 19.8097 -12.5 1.54329
    endloop
  endfacet
  facet normal 0.678599 0.281084 -0.678598
    outer loop
      vertex 18.4567 12.5 0.190301
      vertex 18.1765 13.1765 0.190301
      vertex 19.1332 14.1332 1.54329
    endloop
  endfacet
  facet normal 0.382683 -0.92388 0
    outer loop
      vertex 17.5 -14.8097 1.54329
      vertex 19.1332 -14.1332 28.4567
      vertex 17.5 -14.8097 28.4567
    endloop
  endfacet
  facet normal 0.382683 -0.92388 0
    outer loop
      vertex 19.1332 -14.1332 28.4567
      vertex 17.5 -14.8097 1.54329
      vertex 19.1332 -14.1332 1.54329
    endloop
  endfacet
  facet normal 0.678599 -0.281084 -0.678598
    outer loop
      vertex 19.1332 -14.1332 1.54329
      vertex 18.1765 -13.1765 0.190301
      vertex 18.4567 -12.5 0.190301
    endloop
  endfacet
  facet normal 0.281085 -0.678598 -0.678599
    outer loop
      vertex 19.1332 -14.1332 1.54329
      vertex 17.5 -13.4567 0.190301
      vertex 18.1765 -13.1765 0.190301
    endloop
  endfacet
  facet normal -0.92388 -0.382683 0
    outer loop
      vertex -19.1332 -14.1332 1.54329
      vertex -19.8097 -12.5 28.4567
      vertex -19.8097 -12.5 1.54329
    endloop
  endfacet
  facet normal -0.92388 -0.382683 0
    outer loop
      vertex -19.8097 -12.5 28.4567
      vertex -19.1332 -14.1332 1.54329
      vertex -19.1332 -14.1332 28.4567
    endloop
  endfacet
  facet normal -1 0 0
    outer loop
      vertex -19.8097 -12.5 1.54329
      vertex -19.8097 12.5 28.4567
      vertex -19.8097 12.5 1.54329
    endloop
  endfacet
  facet normal -1 -0 0
    outer loop
      vertex -19.8097 12.5 28.4567
      vertex -19.8097 -12.5 1.54329
      vertex -19.8097 -12.5 28.4567
    endloop
  endfacet
  facet normal -0.281085 -0.678598 -0.678598
    outer loop
      vertex -17.5 -14.8097 1.54329
      vertex -18.1765 -13.1765 0.190301
      vertex -17.5 -13.4567 0.190301
    endloop
  endfacet
  facet normal 0.92388 0.382683 0
    outer loop
      vertex 19.8097 12.5 28.4567
      vertex 19.1332 14.1332 1.54329
      vertex 19.1332 14.1332 28.4567
    endloop
  endfacet
  facet normal 0.92388 0.382683 0
    outer loop
      vertex 19.1332 14.1332 1.54329
      vertex 19.8097 12.5 28.4567
      vertex 19.8097 12.5 1.54329
    endloop
  endfacet
  facet normal -0.281084 -0.678598 -0.678599
    outer loop
      vertex -17.5 -14.8097 1.54329
      vertex -19.1332 -14.1332 1.54329
      vertex -18.1765 -13.1765 0.190301
    endloop
  endfacet
  facet normal -0.382683 -0.92388 0
    outer loop
      vertex -19.1332 -14.1332 1.54329
      vertex -17.5 -14.8097 28.4567
      vertex -19.1332 -14.1332 28.4567
    endloop
  endfacet
  facet normal -0.382683 -0.92388 -0
    outer loop
      vertex -17.5 -14.8097 28.4567
      vertex -19.1332 -14.1332 1.54329
      vertex -17.5 -14.8097 1.54329
    endloop
  endfacet
  facet normal 0 1 -0
    outer loop
      vertex 15.1903 -10.1903 9.8097
      vertex -15.1903 -10.1903 28.4567
      vertex 15.1903 -10.1903 28.4567
    endloop
  endfacet
  facet normal 0 1 0
    outer loop
      vertex -15.1903 -10.1903 28.4567
      vertex 15.1903 -10.1903 9.8097
      vertex -15.1903 -10.1903 9.8097
    endloop
  endfacet
  facet normal 0 0.707107 0.707107
    outer loop
      vertex 15.1903 -10.1903 28.4567
      vertex -16.5433 -11.5433 29.8097
      vertex 16.5433 -11.5433 29.8097
    endloop
  endfacet
  facet normal 0 0.707107 0.707107
    outer loop
      vertex -16.5433 -11.5433 29.8097
      vertex 15.1903 -10.1903 28.4567
      vertex -15.1903 -10.1903 28.4567
    endloop
  endfacet
  facet normal -0.281085 -0.678599 0.678598
    outer loop
      vertex -17.5 -13.4567 29.8097
      vertex -18.1765 -13.1765 29.8097
      vertex -17.5 -14.8097 28.4567
    endloop
  endfacet
  facet normal 0 -0.707107 0.707107
    outer loop
      vertex -17.5 -14.8097 28.4567
      vertex 17.5 -13.4567 29.8097
      vertex -17.5 -13.4567 29.8097
    endloop
  endfacet
  facet normal 0 -0.707107 0.707107
    outer loop
      vertex 17.5 -13.4567 29.8097
      vertex -17.5 -14.8097 28.4567
      vertex 17.5 -14.8097 28.4567
    endloop
  endfacet
  facet normal 0.281085 -0.678599 0.678598
    outer loop
      vertex 17.5 -13.4567 29.8097
      vertex 17.5 -14.8097 28.4567
      vertex 19.1332 -14.1332 28.4567
    endloop
  endfacet
  facet normal -0.281084 -0.678599 0.678598
    outer loop
      vertex -18.1765 -13.1765 29.8097
      vertex -19.1332 -14.1332 28.4567
      vertex -17.5 -14.8097 28.4567
    endloop
  endfacet
  facet normal 0 0 1
    outer loop
      vertex 17.5 13.4567 29.8097
      vertex 18.4567 12.5 29.8097
      vertex 18.1765 13.1765 29.8097
    endloop
  endfacet
  facet normal 0 0 1
    outer loop
      vertex 18.4567 12.5 29.8097
      vertex 16.5433 11.5433 29.8097
      vertex 18.4567 -12.5 29.8097
    endloop
  endfacet
  facet normal 0 0 1
    outer loop
      vertex 18.4567 12.5 29.8097
      vertex 17.5 13.4567 29.8097
      vertex 16.5433 11.5433 29.8097
    endloop
  endfacet
  facet normal -0 0 1
    outer loop
      vertex 16.5433 -11.5433 29.8097
      vertex 18.4567 -12.5 29.8097
      vertex 16.5433 11.5433 29.8097
    endloop
  endfacet
  facet normal 0 -0 1
    outer loop
      vertex 17.5 -13.4567 29.8097
      vertex 18.4567 -12.5 29.8097
      vertex 16.5433 -11.5433 29.8097
    endloop
  endfacet
  facet normal 0 0 1
    outer loop
      vertex 17.5 13.4567 29.8097
      vertex -16.5433 11.5433 29.8097
      vertex 16.5433 11.5433 29.8097
    endloop
  endfacet
  facet normal -0 0 1
    outer loop
      vertex -18.4567 12.5 29.8097
      vertex -16.5433 11.5433 29.8097
      vertex -17.5 13.4567 29.8097
    endloop
  endfacet
  facet normal -0 0 1
    outer loop
      vertex -17.5 13.4567 29.8097
      vertex -16.5433 11.5433 29.8097
      vertex 17.5 13.4567 29.8097
    endloop
  endfacet
  facet normal 0 0 1
    outer loop
      vertex 18.4567 -12.5 29.8097
      vertex 17.5 -13.4567 29.8097
      vertex 18.1765 -13.1765 29.8097
    endloop
  endfacet
  facet normal -0 0 1
    outer loop
      vertex -16.5433 -11.5433 29.8097
      vertex 17.5 -13.4567 29.8097
      vertex 16.5433 -11.5433 29.8097
    endloop
  endfacet
  facet normal 0 0 1
    outer loop
      vertex -16.5433 -11.5433 29.8097
      vertex -17.5 -13.4567 29.8097
      vertex 17.5 -13.4567 29.8097
    endloop
  endfacet
  facet normal 0 0 1
    outer loop
      vertex -16.5433 11.5433 29.8097
      vertex -18.4567 12.5 29.8097
      vertex -16.5433 -11.5433 29.8097
    endloop
  endfacet
  facet normal 0 0 1
    outer loop
      vertex -18.4567 12.5 29.8097
      vertex -17.5 13.4567 29.8097
      vertex -18.1765 13.1765 29.8097
    endloop
  endfacet
  facet normal 0 0 1
    outer loop
      vertex -18.4567 -12.5 29.8097
      vertex -16.5433 -11.5433 29.8097
      vertex -18.4567 12.5 29.8097
    endloop
  endfacet
  facet normal 0 0 1
    outer loop
      vertex -16.5433 -11.5433 29.8097
      vertex -18.4567 -12.5 29.8097
      vertex -17.5 -13.4567 29.8097
    endloop
  endfacet
  facet normal 0 0 1
    outer loop
      vertex -17.5 -13.4567 29.8097
      vertex -18.4567 -12.5 29.8097
      vertex -18.1765 -13.1765 29.8097
    endloop
  endfacet
  facet normal -0.678598 -0.281084 0.678598
    outer loop
      vertex -18.4567 -12.5 29.8097
      vertex -19.8097 -12.5 28.4567
      vertex -19.1332 -14.1332 28.4567
    endloop
  endfacet
  facet normal 0.281085 -0.678598 0.678598
    outer loop
      vertex 18.1765 -13.1765 29.8097
      vertex 17.5 -13.4567 29.8097
      vertex 19.1332 -14.1332 28.4567
    endloop
  endfacet
  facet normal 0.678599 -0.281084 0.678598
    outer loop
      vertex 18.4567 -12.5 29.8097
      vertex 18.1765 -13.1765 29.8097
      vertex 19.1332 -14.1332 28.4567
    endloop
  endfacet
  facet normal 0.678598 -0.281084 0.678598
    outer loop
      vertex 19.8097 -12.5 28.4567
      vertex 18.4567 -12.5 29.8097
      vertex 19.1332 -14.1332 28.4567
    endloop
  endfacet
  facet normal -0.678598 -0.281085 0.678599
    outer loop
      vertex -18.4567 -12.5 29.8097
      vertex -19.1332 -14.1332 28.4567
      vertex -18.1765 -13.1765 29.8097
    endloop
  endfacet
  facet normal -0.707107 0 0.707107
    outer loop
      vertex -19.8097 -12.5 28.4567
      vertex -18.4567 12.5 29.8097
      vertex -19.8097 12.5 28.4567
    endloop
  endfacet
  facet normal -0.707107 0 0.707107
    outer loop
      vertex -18.4567 12.5 29.8097
      vertex -19.8097 -12.5 28.4567
      vertex -18.4567 -12.5 29.8097
    endloop
  endfacet
  facet normal 1 -0 0
    outer loop
      vertex -15.1903 -10.1903 28.4567
      vertex -15.1903 10.1903 9.8097
      vertex -15.1903 10.1903 28.4567
    endloop
  endfacet
  facet normal 1 0 0
    outer loop
      vertex -15.1903 10.1903 9.8097
      vertex -15.1903 -10.1903 28.4567
      vertex -15.1903 -10.1903 9.8097
    endloop
  endfacet
  facet normal 0.707107 0 0.707107
    outer loop
      vertex -16.5433 11.5433 29.8097
      vertex -15.1903 -10.1903 28.4567
      vertex -15.1903 10.1903 28.4567
    endloop
  endfacet
  facet normal 0.707107 0 0.707107
    outer loop
      vertex -15.1903 -10.1903 28.4567
      vertex -16.5433 11.5433 29.8097
      vertex -16.5433 -11.5433 29.8097
    endloop
  endfacet
  facet normal -0.281084 0.678599 0.678598
    outer loop
      vertex -17.5 14.8097 28.4567
      vertex -19.1332 14.1332 28.4567
      vertex -17.5 13.4567 29.8097
    endloop
  endfacet
  facet normal -0.678598 0.281084 0.678598
    outer loop
      vertex -19.1332 14.1332 28.4567
      vertex -19.8097 12.5 28.4567
      vertex -18.4567 12.5 29.8097
    endloop
  endfacet
  facet normal -0.281085 0.678598 0.678598
    outer loop
      vertex -17.5 13.4567 29.8097
      vertex -19.1332 14.1332 28.4567
      vertex -18.1765 13.1765 29.8097
    endloop
  endfacet
  facet normal -0.678597 0.281085 0.678599
    outer loop
      vertex -18.1765 13.1765 29.8097
      vertex -19.1332 14.1332 28.4567
      vertex -18.4567 12.5 29.8097
    endloop
  endfacet
  facet normal 0 0.707107 0.707107
    outer loop
      vertex 17.5 14.8097 28.4567
      vertex -17.5 13.4567 29.8097
      vertex 17.5 13.4567 29.8097
    endloop
  endfacet
  facet normal 0 0.707107 0.707107
    outer loop
      vertex -17.5 13.4567 29.8097
      vertex 17.5 14.8097 28.4567
      vertex -17.5 14.8097 28.4567
    endloop
  endfacet
  facet normal 0.281085 0.678599 0.678598
    outer loop
      vertex 17.5 14.8097 28.4567
      vertex 17.5 13.4567 29.8097
      vertex 19.1332 14.1332 28.4567
    endloop
  endfacet
  facet normal 0.678599 0.281084 0.678598
    outer loop
      vertex 19.1332 14.1332 28.4567
      vertex 18.1765 13.1765 29.8097
      vertex 18.4567 12.5 29.8097
    endloop
  endfacet
  facet normal 0.281085 0.678598 0.678598
    outer loop
      vertex 19.1332 14.1332 28.4567
      vertex 17.5 13.4567 29.8097
      vertex 18.1765 13.1765 29.8097
    endloop
  endfacet
  facet normal 0 -1 0
    outer loop
      vertex -15.1903 10.1903 9.8097
      vertex 15.1903 10.1903 28.4567
      vertex -15.1903 10.1903 28.4567
    endloop
  endfacet
  facet normal 0 -1 -0
    outer loop
      vertex 15.1903 10.1903 28.4567
      vertex -15.1903 10.1903 9.8097
      vertex 15.1903 10.1903 9.8097
    endloop
  endfacet
  facet normal 0 -0.707107 0.707107
    outer loop
      vertex -15.1903 10.1903 28.4567
      vertex 16.5433 11.5433 29.8097
      vertex -16.5433 11.5433 29.8097
    endloop
  endfacet
  facet normal 0 -0.707107 0.707107
    outer loop
      vertex 16.5433 11.5433 29.8097
      vertex -15.1903 10.1903 28.4567
      vertex 15.1903 10.1903 28.4567
    endloop
  endfacet
  facet normal 0.678598 0.281084 0.678598
    outer loop
      vertex 19.1332 14.1332 28.4567
      vertex 18.4567 12.5 29.8097
      vertex 19.8097 12.5 28.4567
    endloop
  endfacet
  facet normal -0.707107 0 0.707107
    outer loop
      vertex 15.1903 -10.1903 28.4567
      vertex 16.5433 11.5433 29.8097
      vertex 15.1903 10.1903 28.4567
    endloop
  endfacet
  facet normal -0.707107 0 0.707107
    outer loop
      vertex 16.5433 11.5433 29.8097
      vertex 15.1903 -10.1903 28.4567
      vertex 16.5433 -11.5433 29.8097
    endloop
  endfacet
  facet normal 0.707107 -0 0.707107
    outer loop
      vertex 18.4567 -12.5 29.8097
      vertex 19.8097 12.5 28.4567
      vertex 18.4567 12.5 29.8097
    endloop
  endfacet
  facet normal 0.707107 0 0.707107
    outer loop
      vertex 19.8097 12.5 28.4567
      vertex 18.4567 -12.5 29.8097
      vertex 19.8097 -12.5 28.4567
    endloop
  endfacet
  facet normal -1 0 0
    outer loop
      vertex 15.1903 -10.1903 9.8097
      vertex 15.1903 10.1903 28.4567
      vertex 15.1903 10.1903 9.8097
    endloop
  endfacet
  facet normal -1 -0 0
    outer loop
      vertex 15.1903 10.1903 28.4567
      vertex 15.1903 -10.1903 9.8097
      vertex 15.1903 -10.1903 28.4567
    endloop
  endfacet
  facet normal -0.678598 0.281084 -0.678599
    outer loop
      vertex -18.4567 -22.5 0.190301
      vertex -19.8097 -22.5 1.54329
      vertex -19.1332 -20.8668 1.54329
    endloop
  endfacet
  facet normal -0.678597 0.281085 -0.678599
    outer loop
      vertex -18.4567 -22.5 0.190301
      vertex -19.1332 -20.8668 1.54329
      vertex -18.1765 -21.8235 0.190301
    endloop
  endfacet
  facet normal -0.281084 0.678598 -0.678599
    outer loop
      vertex -17.5 -21.5433 0.190301
      vertex -19.1332 -20.8668 1.54329
      vertex -17.5 -20.1903 1.54329
    endloop
  endfacet
  facet normal 0.281087 -0.678596 0.6786
    outer loop
      vertex 18.1765 -48.1765 9.8097
      vertex 17.5 -48.4567 9.8097
      vertex 19.1332 -49.1332 8.45671
    endloop
  endfacet
  facet normal -0.707107 0 0.707107
    outer loop
      vertex -19.8097 -22.5 8.45671
      vertex -18.4567 -47.5 9.8097
      vertex -18.4567 -22.5 9.8097
    endloop
  endfacet
  facet normal -0.707107 0 0.707107
    outer loop
      vertex -18.4567 -47.5 9.8097
      vertex -19.8097 -22.5 8.45671
      vertex -19.8097 -47.5 8.45671
    endloop
  endfacet
  facet normal 0.382683 0.92388 -0
    outer loop
      vertex 19.1332 -20.8668 1.54329
      vertex 17.5 -20.1903 8.45671
      vertex 19.1332 -20.8668 8.45671
    endloop
  endfacet
  facet normal 0.382683 0.92388 0
    outer loop
      vertex 17.5 -20.1903 8.45671
      vertex 19.1332 -20.8668 1.54329
      vertex 17.5 -20.1903 1.54329
    endloop
  endfacet
  facet normal -0.678598 -0.281084 -0.678599
    outer loop
      vertex -19.1332 -49.1332 1.54329
      vertex -19.8097 -47.5 1.54329
      vertex -18.4567 -47.5 0.190301
    endloop
  endfacet
  facet normal 0.281084 0.678599 0.678598
    outer loop
      vertex 19.1332 -20.8668 8.45671
      vertex 17.5 -21.5433 9.8097
      vertex 18.1765 -21.8235 9.8097
    endloop
  endfacet
  facet normal -0.382683 0.92388 0
    outer loop
      vertex -17.5 -20.1903 1.54329
      vertex -19.1332 -20.8668 8.45671
      vertex -17.5 -20.1903 8.45671
    endloop
  endfacet
  facet normal -0.382683 0.92388 0
    outer loop
      vertex -19.1332 -20.8668 8.45671
      vertex -17.5 -20.1903 1.54329
      vertex -19.1332 -20.8668 1.54329
    endloop
  endfacet
  facet normal -0.678598 -0.281084 0.678599
    outer loop
      vertex -18.4567 -47.5 9.8097
      vertex -19.8097 -47.5 8.45671
      vertex -19.1332 -49.1332 8.45671
    endloop
  endfacet
  facet normal -0.281087 -0.678598 0.678598
    outer loop
      vertex -17.5 -48.4567 9.8097
      vertex -18.1765 -48.1765 9.8097
      vertex -17.5 -49.8097 8.45671
    endloop
  endfacet
  facet normal 0 1 -0
    outer loop
      vertex 17.5 -20.1903 1.54329
      vertex -17.5 -20.1903 8.45671
      vertex 17.5 -20.1903 8.45671
    endloop
  endfacet
  facet normal 0 1 0
    outer loop
      vertex -17.5 -20.1903 8.45671
      vertex 17.5 -20.1903 1.54329
      vertex -17.5 -20.1903 1.54329
    endloop
  endfacet
  facet normal 0.707107 0 -0.707107
    outer loop
      vertex 18.4567 -47.5 0.190301
      vertex 19.8097 -22.5 1.54329
      vertex 19.8097 -47.5 1.54329
    endloop
  endfacet
  facet normal 0.707107 0 -0.707107
    outer loop
      vertex 19.8097 -22.5 1.54329
      vertex 18.4567 -47.5 0.190301
      vertex 18.4567 -22.5 0.190301
    endloop
  endfacet
  facet normal 0.281085 -0.678599 -0.678598
    outer loop
      vertex 19.1332 -49.1332 1.54329
      vertex 17.5 -49.8097 1.54329
      vertex 17.5 -48.4567 0.190301
    endloop
  endfacet
  facet normal -0.707107 0 -0.707107
    outer loop
      vertex -19.8097 -47.5 1.54329
      vertex -18.4567 -22.5 0.190301
      vertex -18.4567 -47.5 0.190301
    endloop
  endfacet
  facet normal -0.707107 0 -0.707107
    outer loop
      vertex -18.4567 -22.5 0.190301
      vertex -19.8097 -47.5 1.54329
      vertex -19.8097 -22.5 1.54329
    endloop
  endfacet
  facet normal 0 0 -1
    outer loop
      vertex 17.5 -48.4567 0.190301
      vertex 18.4567 -47.5 0.190301
      vertex 18.1765 -48.1765 0.190301
    endloop
  endfacet
  facet normal -0 0 -1
    outer loop
      vertex 18.4567 -47.5 0.190301
      vertex 17.5 -48.4567 0.190301
      vertex 18.4567 -22.5 0.190301
    endloop
  endfacet
  facet normal 0 0 -1
    outer loop
      vertex 17.5 -21.5433 0.190301
      vertex 18.4567 -22.5 0.190301
      vertex 17.5 -48.4567 0.190301
    endloop
  endfacet
  facet normal 0 0 -1
    outer loop
      vertex 18.4567 -22.5 0.190301
      vertex 17.5 -21.5433 0.190301
      vertex 18.1765 -21.8235 0.190301
    endloop
  endfacet
  facet normal 0 0 -1
    outer loop
      vertex -17.5 -48.4567 0.190301
      vertex 17.5 -21.5433 0.190301
      vertex 17.5 -48.4567 0.190301
    endloop
  endfacet
  facet normal 0 0 -1
    outer loop
      vertex -17.5 -48.4567 0.190301
      vertex -17.5 -21.5433 0.190301
      vertex 17.5 -21.5433 0.190301
    endloop
  endfacet
  facet normal 0 0 -1
    outer loop
      vertex -18.4567 -47.5 0.190301
      vertex -17.5 -48.4567 0.190301
      vertex -18.1765 -48.1765 0.190301
    endloop
  endfacet
  facet normal 0 0 -1
    outer loop
      vertex -17.5 -48.4567 0.190301
      vertex -18.4567 -47.5 0.190301
      vertex -17.5 -21.5433 0.190301
    endloop
  endfacet
  facet normal 0 0 -1
    outer loop
      vertex -18.4567 -22.5 0.190301
      vertex -17.5 -21.5433 0.190301
      vertex -18.4567 -47.5 0.190301
    endloop
  endfacet
  facet normal 0 0 -1
    outer loop
      vertex -17.5 -21.5433 0.190301
      vertex -18.4567 -22.5 0.190301
      vertex -18.1765 -21.8235 0.190301
    endloop
  endfacet
  facet normal -0.678598 0.281084 0.678599
    outer loop
      vertex -19.1332 -20.8668 8.45671
      vertex -19.8097 -22.5 8.45671
      vertex -18.4567 -22.5 9.8097
    endloop
  endfacet
  facet normal -0.92388 0.382683 0
    outer loop
      vertex -19.8097 -22.5 1.54329
      vertex -19.1332 -20.8668 8.45671
      vertex -19.1332 -20.8668 1.54329
    endloop
  endfacet
  facet normal -0.92388 0.382683 0
    outer loop
      vertex -19.1332 -20.8668 8.45671
      vertex -19.8097 -22.5 1.54329
      vertex -19.8097 -22.5 8.45671
    endloop
  endfacet
  facet normal -0.281084 -0.678598 0.678599
    outer loop
      vertex -18.1765 -48.1765 9.8097
      vertex -19.1332 -49.1332 8.45671
      vertex -17.5 -49.8097 8.45671
    endloop
  endfacet
  facet normal 0 0 1
    outer loop
      vertex 17.5 -21.5433 9.8097
      vertex 18.4567 -22.5 9.8097
      vertex 18.1765 -21.8235 9.8097
    endloop
  endfacet
  facet normal 0 0 1
    outer loop
      vertex 18.4567 -22.5 9.8097
      vertex 13.8097 -28.5 9.8097
      vertex 18.4567 -47.5 9.8097
    endloop
  endfacet
  facet normal 0 0 1
    outer loop
      vertex 18.4567 -22.5 9.8097
      vertex 17.5 -21.5433 9.8097
      vertex 13.1332 -26.8668 9.8097
    endloop
  endfacet
  facet normal -0 0 1
    outer loop
      vertex 13.8097 -41.5 9.8097
      vertex 18.4567 -47.5 9.8097
      vertex 13.8097 -28.5 9.8097
    endloop
  endfacet
  facet normal -0 0 1
    outer loop
      vertex 13.1332 -43.1332 9.8097
      vertex 18.4567 -47.5 9.8097
      vertex 13.8097 -41.5 9.8097
    endloop
  endfacet
  facet normal 0 0 1
    outer loop
      vertex 18.4567 -22.5 9.8097
      vertex 13.1332 -26.8668 9.8097
      vertex 13.8097 -28.5 9.8097
    endloop
  endfacet
  facet normal 0 0 1
    outer loop
      vertex 17.5 -21.5433 9.8097
      vertex 11.5 -26.1903 9.8097
      vertex 13.1332 -26.8668 9.8097
    endloop
  endfacet
  facet normal 0 0 1
    outer loop
      vertex 17.5 -21.5433 9.8097
      vertex -11.5 -26.1903 9.8097
      vertex 11.5 -26.1903 9.8097
    endloop
  endfacet
  facet normal 0 0 1
    outer loop
      vertex -13.1332 -26.8668 9.8097
      vertex -18.4567 -22.5 9.8097
      vertex -13.8097 -28.5 9.8097
    endloop
  endfacet
  facet normal -0 0 1
    outer loop
      vertex -18.4567 -22.5 9.8097
      vertex -13.1332 -26.8668 9.8097
      vertex -17.5 -21.5433 9.8097
    endloop
  endfacet
  facet normal 0 0 1
    outer loop
      vertex -11.5 -26.1903 9.8097
      vertex -17.5 -21.5433 9.8097
      vertex -13.1332 -26.8668 9.8097
    endloop
  endfacet
  facet normal -0 0 1
    outer loop
      vertex -17.5 -21.5433 9.8097
      vertex -11.5 -26.1903 9.8097
      vertex 17.5 -21.5433 9.8097
    endloop
  endfacet
  facet normal 0 -0 1
    outer loop
      vertex 17.5 -48.4567 9.8097
      vertex 18.4567 -47.5 9.8097
      vertex 13.1332 -43.1332 9.8097
    endloop
  endfacet
  facet normal 0 0 1
    outer loop
      vertex 18.4567 -47.5 9.8097
      vertex 17.5 -48.4567 9.8097
      vertex 18.1765 -48.1765 9.8097
    endloop
  endfacet
  facet normal -0 0 1
    outer loop
      vertex 11.5 -43.8097 9.8097
      vertex 17.5 -48.4567 9.8097
      vertex 13.1332 -43.1332 9.8097
    endloop
  endfacet
  facet normal -0 0 1
    outer loop
      vertex -11.5 -43.8097 9.8097
      vertex 17.5 -48.4567 9.8097
      vertex 11.5 -43.8097 9.8097
    endloop
  endfacet
  facet normal 0 0 1
    outer loop
      vertex -11.5 -43.8097 9.8097
      vertex -17.5 -48.4567 9.8097
      vertex 17.5 -48.4567 9.8097
    endloop
  endfacet
  facet normal 0 0 1
    outer loop
      vertex -13.1332 -43.1332 9.8097
      vertex -17.5 -48.4567 9.8097
      vertex -11.5 -43.8097 9.8097
    endloop
  endfacet
  facet normal 0 0 1
    outer loop
      vertex -18.4567 -47.5 9.8097
      vertex -13.1332 -43.1332 9.8097
      vertex -13.8097 -41.5 9.8097
    endloop
  endfacet
  facet normal 0 0 1
    outer loop
      vertex -13.8097 -28.5 9.8097
      vertex -18.4567 -22.5 9.8097
      vertex -13.8097 -41.5 9.8097
    endloop
  endfacet
  facet normal 0 0 1
    outer loop
      vertex -18.4567 -22.5 9.8097
      vertex -17.5 -21.5433 9.8097
      vertex -18.1765 -21.8235 9.8097
    endloop
  endfacet
  facet normal 0 0 1
    outer loop
      vertex -18.4567 -47.5 9.8097
      vertex -13.8097 -41.5 9.8097
      vertex -18.4567 -22.5 9.8097
    endloop
  endfacet
  facet normal 0 0 1
    outer loop
      vertex -13.1332 -43.1332 9.8097
      vertex -18.4567 -47.5 9.8097
      vertex -17.5 -48.4567 9.8097
    endloop
  endfacet
  facet normal 0 0 1
    outer loop
      vertex -17.5 -48.4567 9.8097
      vertex -18.4567 -47.5 9.8097
      vertex -18.1765 -48.1765 9.8097
    endloop
  endfacet
  facet normal -0 0.707107 0.707107
    outer loop
      vertex -17.5 -20.1903 8.45671
      vertex 17.5 -21.5433 9.8097
      vertex 17.5 -20.1903 8.45671
    endloop
  endfacet
  facet normal 0 0.707107 0.707107
    outer loop
      vertex 17.5 -21.5433 9.8097
      vertex -17.5 -20.1903 8.45671
      vertex -17.5 -21.5433 9.8097
    endloop
  endfacet
  facet normal 0.281084 0.678598 0.678599
    outer loop
      vertex 17.5 -20.1903 8.45671
      vertex 17.5 -21.5433 9.8097
      vertex 19.1332 -20.8668 8.45671
    endloop
  endfacet
  facet normal 0 -0.707107 -0.707107
    outer loop
      vertex -17.5 -48.4567 0.190301
      vertex 17.5 -49.8097 1.54329
      vertex -17.5 -49.8097 1.54329
    endloop
  endfacet
  facet normal 0 -0.707107 -0.707107
    outer loop
      vertex 17.5 -49.8097 1.54329
      vertex -17.5 -48.4567 0.190301
      vertex 17.5 -48.4567 0.190301
    endloop
  endfacet
  facet normal 0.281084 0.678598 -0.678599
    outer loop
      vertex 19.1332 -20.8668 1.54329
      vertex 17.5 -21.5433 0.190301
      vertex 17.5 -20.1903 1.54329
    endloop
  endfacet
  facet normal 0 0.707107 -0.707107
    outer loop
      vertex -17.5 -21.5433 0.190301
      vertex 17.5 -20.1903 1.54329
      vertex 17.5 -21.5433 0.190301
    endloop
  endfacet
  facet normal 0 0.707107 -0.707107
    outer loop
      vertex 17.5 -20.1903 1.54329
      vertex -17.5 -21.5433 0.190301
      vertex -17.5 -20.1903 1.54329
    endloop
  endfacet
  facet normal 0.281084 0.678599 -0.678598
    outer loop
      vertex 18.1765 -21.8235 0.190301
      vertex 17.5 -21.5433 0.190301
      vertex 19.1332 -20.8668 1.54329
    endloop
  endfacet
  facet normal 0.678598 0.281084 -0.678599
    outer loop
      vertex 19.8097 -22.5 1.54329
      vertex 18.4567 -22.5 0.190301
      vertex 19.1332 -20.8668 1.54329
    endloop
  endfacet
  facet normal 0 -0.707107 0.707107
    outer loop
      vertex -17.5 -49.8097 8.45671
      vertex 17.5 -48.4567 9.8097
      vertex -17.5 -48.4567 9.8097
    endloop
  endfacet
  facet normal 0 -0.707107 0.707107
    outer loop
      vertex 17.5 -48.4567 9.8097
      vertex -17.5 -49.8097 8.45671
      vertex 17.5 -49.8097 8.45671
    endloop
  endfacet
  facet normal 0.678598 -0.281084 -0.678599
    outer loop
      vertex 19.1332 -49.1332 1.54329
      vertex 18.4567 -47.5 0.190301
      vertex 19.8097 -47.5 1.54329
    endloop
  endfacet
  facet normal 0.92388 -0.382683 0
    outer loop
      vertex 19.1332 -49.1332 8.45671
      vertex 19.8097 -47.5 1.54329
      vertex 19.8097 -47.5 8.45671
    endloop
  endfacet
  facet normal 0.92388 -0.382683 0
    outer loop
      vertex 19.8097 -47.5 1.54329
      vertex 19.1332 -49.1332 8.45671
      vertex 19.1332 -49.1332 1.54329
    endloop
  endfacet
  facet normal -0.678597 -0.281085 -0.678599
    outer loop
      vertex -18.1765 -48.1765 0.190301
      vertex -19.1332 -49.1332 1.54329
      vertex -18.4567 -47.5 0.190301
    endloop
  endfacet
  facet normal 0 -1 0
    outer loop
      vertex -17.5 -49.8097 1.54329
      vertex 17.5 -49.8097 8.45671
      vertex -17.5 -49.8097 8.45671
    endloop
  endfacet
  facet normal 0 -1 -0
    outer loop
      vertex 17.5 -49.8097 8.45671
      vertex -17.5 -49.8097 1.54329
      vertex 17.5 -49.8097 1.54329
    endloop
  endfacet
  facet normal -0.281084 0.678598 0.678599
    outer loop
      vertex -17.5 -20.1903 8.45671
      vertex -19.1332 -20.8668 8.45671
      vertex -17.5 -21.5433 9.8097
    endloop
  endfacet
  facet normal -0.678597 -0.281085 0.678599
    outer loop
      vertex -18.4567 -47.5 9.8097
      vertex -19.1332 -49.1332 8.45671
      vertex -18.1765 -48.1765 9.8097
    endloop
  endfacet
  facet normal 0.678599 0.281084 0.678598
    outer loop
      vertex 19.1332 -20.8668 8.45671
      vertex 18.1765 -21.8235 9.8097
      vertex 18.4567 -22.5 9.8097
    endloop
  endfacet
  facet normal 0.678598 -0.281084 0.678599
    outer loop
      vertex 18.4567 -47.5 9.8097
      vertex 18.1765 -48.1765 9.8097
      vertex 19.1332 -49.1332 8.45671
    endloop
  endfacet
  facet normal -0.281084 0.678598 -0.678599
    outer loop
      vertex -18.1765 -21.8235 0.190301
      vertex -19.1332 -20.8668 1.54329
      vertex -17.5 -21.5433 0.190301
    endloop
  endfacet
  facet normal 0.707107 0 0.707107
    outer loop
      vertex 18.4567 -22.5 9.8097
      vertex 19.8097 -47.5 8.45671
      vertex 19.8097 -22.5 8.45671
    endloop
  endfacet
  facet normal 0.707107 0 0.707107
    outer loop
      vertex 19.8097 -47.5 8.45671
      vertex 18.4567 -22.5 9.8097
      vertex 18.4567 -47.5 9.8097
    endloop
  endfacet
  facet normal 1 -0 0
    outer loop
      vertex 19.8097 -47.5 8.45671
      vertex 19.8097 -22.5 1.54329
      vertex 19.8097 -22.5 8.45671
    endloop
  endfacet
  facet normal 1 0 0
    outer loop
      vertex 19.8097 -22.5 1.54329
      vertex 19.8097 -47.5 8.45671
      vertex 19.8097 -47.5 1.54329
    endloop
  endfacet
  facet normal 0.678599 0.281084 -0.678598
    outer loop
      vertex 18.4567 -22.5 0.190301
      vertex 18.1765 -21.8235 0.190301
      vertex 19.1332 -20.8668 1.54329
    endloop
  endfacet
  facet normal 0.382683 -0.92388 0
    outer loop
      vertex 17.5 -49.8097 1.54329
      vertex 19.1332 -49.1332 8.45671
      vertex 17.5 -49.8097 8.45671
    endloop
  endfacet
  facet normal 0.382683 -0.92388 0
    outer loop
      vertex 19.1332 -49.1332 8.45671
      vertex 17.5 -49.8097 1.54329
      vertex 19.1332 -49.1332 1.54329
    endloop
  endfacet
  facet normal 0.678598 -0.281084 -0.678599
    outer loop
      vertex 19.1332 -49.1332 1.54329
      vertex 18.1765 -48.1765 0.190301
      vertex 18.4567 -47.5 0.190301
    endloop
  endfacet
  facet normal 0.281087 -0.678596 -0.6786
    outer loop
      vertex 19.1332 -49.1332 1.54329
      vertex 17.5 -48.4567 0.190301
      vertex 18.1765 -48.1765 0.190301
    endloop
  endfacet
  facet normal -0.92388 -0.382683 0
    outer loop
      vertex -19.1332 -49.1332 1.54329
      vertex -19.8097 -47.5 8.45671
      vertex -19.8097 -47.5 1.54329
    endloop
  endfacet
  facet normal -0.92388 -0.382683 0
    outer loop
      vertex -19.8097 -47.5 8.45671
      vertex -19.1332 -49.1332 1.54329
      vertex -19.1332 -49.1332 8.45671
    endloop
  endfacet
  facet normal -1 0 0
    outer loop
      vertex -19.8097 -47.5 1.54329
      vertex -19.8097 -22.5 8.45671
      vertex -19.8097 -22.5 1.54329
    endloop
  endfacet
  facet normal -1 -0 0
    outer loop
      vertex -19.8097 -22.5 8.45671
      vertex -19.8097 -47.5 1.54329
      vertex -19.8097 -47.5 8.45671
    endloop
  endfacet
  facet normal -0.281087 -0.678598 -0.678598
    outer loop
      vertex -17.5 -49.8097 1.54329
      vertex -18.1765 -48.1765 0.190301
      vertex -17.5 -48.4567 0.190301
    endloop
  endfacet
  facet normal -0.281084 0.678598 0.678599
    outer loop
      vertex -17.5 -21.5433 9.8097
      vertex -19.1332 -20.8668 8.45671
      vertex -18.1765 -21.8235 9.8097
    endloop
  endfacet
  facet normal -0.678597 0.281085 0.678599
    outer loop
      vertex -18.1765 -21.8235 9.8097
      vertex -19.1332 -20.8668 8.45671
      vertex -18.4567 -22.5 9.8097
    endloop
  endfacet
  facet normal 0.678598 -0.281084 0.678599
    outer loop
      vertex 19.8097 -47.5 8.45671
      vertex 18.4567 -47.5 9.8097
      vertex 19.1332 -49.1332 8.45671
    endloop
  endfacet
  facet normal 0.678598 0.281084 0.678599
    outer loop
      vertex 19.1332 -20.8668 8.45671
      vertex 18.4567 -22.5 9.8097
      vertex 19.8097 -22.5 8.45671
    endloop
  endfacet
  facet normal 0.92388 0.382683 0
    outer loop
      vertex 19.8097 -22.5 8.45671
      vertex 19.1332 -20.8668 1.54329
      vertex 19.1332 -20.8668 8.45671
    endloop
  endfacet
  facet normal 0.92388 0.382683 0
    outer loop
      vertex 19.1332 -20.8668 1.54329
      vertex 19.8097 -22.5 8.45671
      vertex 19.8097 -22.5 1.54329
    endloop
  endfacet
  facet normal 0.281085 -0.678599 0.678598
    outer loop
      vertex 17.5 -48.4567 9.8097
      vertex 17.5 -49.8097 8.45671
      vertex 19.1332 -49.1332 8.45671
    endloop
  endfacet
  facet normal -0.281084 -0.678598 -0.678599
    outer loop
      vertex -17.5 -49.8097 1.54329
      vertex -19.1332 -49.1332 1.54329
      vertex -18.1765 -48.1765 0.190301
    endloop
  endfacet
  facet normal -0.382683 -0.92388 0
    outer loop
      vertex -19.1332 -49.1332 1.54329
      vertex -17.5 -49.8097 8.45671
      vertex -19.1332 -49.1332 8.45671
    endloop
  endfacet
  facet normal -0.382683 -0.92388 -0
    outer loop
      vertex -17.5 -49.8097 8.45671
      vertex -19.1332 -49.1332 1.54329
      vertex -17.5 -49.8097 1.54329
    endloop
  endfacet
  facet normal -1 0 0
    outer loop
      vertex -13.8097 -41.5 9.8097
      vertex -13.8097 -28.5 13.4567
      vertex -13.8097 -28.5 9.8097
    endloop
  endfacet
  facet normal -1 -0 0
    outer loop
      vertex -13.8097 -28.5 13.4567
      vertex -13.8097 -41.5 9.8097
      vertex -13.8097 -41.5 13.4567
    endloop
  endfacet
  facet normal 0 0 1
    outer loop
      vertex 11.5 -27.5433 14.8097
      vertex 12.4567 -28.5 14.8097
      vertex 12.1765 -27.8235 14.8097
    endloop
  endfacet
  facet normal 0 0 1
    outer loop
      vertex 12.4567 -28.5 14.8097
      vertex 11.5 -27.5433 14.8097
      vertex 12.4567 -41.5 14.8097
    endloop
  endfacet
  facet normal 0 0 1
    outer loop
      vertex 11.5 -42.4567 14.8097
      vertex 12.4567 -41.5 14.8097
      vertex 11.5 -27.5433 14.8097
    endloop
  endfacet
  facet normal 0 0 1
    outer loop
      vertex 12.4567 -41.5 14.8097
      vertex 11.5 -42.4567 14.8097
      vertex 12.1765 -42.1765 14.8097
    endloop
  endfacet
  facet normal -0 0 1
    outer loop
      vertex -11.5 -27.5433 14.8097
      vertex 11.5 -42.4567 14.8097
      vertex 11.5 -27.5433 14.8097
    endloop
  endfacet
  facet normal 0 0 1
    outer loop
      vertex -11.5 -27.5433 14.8097
      vertex -11.5 -42.4567 14.8097
      vertex 11.5 -42.4567 14.8097
    endloop
  endfacet
  facet normal 0 0 1
    outer loop
      vertex -12.4567 -28.5 14.8097
      vertex -11.5 -27.5433 14.8097
      vertex -12.1765 -27.8235 14.8097
    endloop
  endfacet
  facet normal 0 0 1
    outer loop
      vertex -11.5 -27.5433 14.8097
      vertex -12.4567 -28.5 14.8097
      vertex -11.5 -42.4567 14.8097
    endloop
  endfacet
  facet normal -0 0 1
    outer loop
      vertex -12.4567 -41.5 14.8097
      vertex -11.5 -42.4567 14.8097
      vertex -12.4567 -28.5 14.8097
    endloop
  endfacet
  facet normal 0 0 1
    outer loop
      vertex -11.5 -42.4567 14.8097
      vertex -12.4567 -41.5 14.8097
      vertex -12.1765 -42.1765 14.8097
    endloop
  endfacet
  facet normal 0.281085 -0.678599 0.678598
    outer loop
      vertex 11.5 -42.4567 14.8097
      vertex 11.5 -43.8097 13.4567
      vertex 13.1332 -43.1332 13.4567
    endloop
  endfacet
  facet normal -0.281084 -0.678599 0.678598
    outer loop
      vertex -11.5 -42.4567 14.8097
      vertex -13.1332 -43.1332 13.4567
      vertex -11.5 -43.8097 13.4567
    endloop
  endfacet
  facet normal 0 -1 0
    outer loop
      vertex -11.5 -43.8097 9.8097
      vertex 11.5 -43.8097 13.4567
      vertex -11.5 -43.8097 13.4567
    endloop
  endfacet
  facet normal 0 -1 -0
    outer loop
      vertex 11.5 -43.8097 13.4567
      vertex -11.5 -43.8097 9.8097
      vertex 11.5 -43.8097 9.8097
    endloop
  endfacet
  facet normal 0 1 -0
    outer loop
      vertex 11.5 -26.1903 9.8097
      vertex -11.5 -26.1903 13.4567
      vertex 11.5 -26.1903 13.4567
    endloop
  endfacet
  facet normal 0 1 0
    outer loop
      vertex -11.5 -26.1903 13.4567
      vertex 11.5 -26.1903 9.8097
      vertex -11.5 -26.1903 9.8097
    endloop
  endfacet
  facet normal -0.281086 -0.678596 0.6786
    outer loop
      vertex -12.1765 -42.1765 14.8097
      vertex -13.1332 -43.1332 13.4567
      vertex -11.5 -42.4567 14.8097
    endloop
  endfacet
  facet normal -0.382683 -0.92388 0
    outer loop
      vertex -13.1332 -43.1332 9.8097
      vertex -11.5 -43.8097 13.4567
      vertex -13.1332 -43.1332 13.4567
    endloop
  endfacet
  facet normal -0.382683 -0.92388 -0
    outer loop
      vertex -11.5 -43.8097 13.4567
      vertex -13.1332 -43.1332 9.8097
      vertex -11.5 -43.8097 9.8097
    endloop
  endfacet
  facet normal -0.92388 -0.382683 0
    outer loop
      vertex -13.1332 -43.1332 9.8097
      vertex -13.8097 -41.5 13.4567
      vertex -13.8097 -41.5 9.8097
    endloop
  endfacet
  facet normal -0.92388 -0.382683 0
    outer loop
      vertex -13.8097 -41.5 13.4567
      vertex -13.1332 -43.1332 9.8097
      vertex -13.1332 -43.1332 13.4567
    endloop
  endfacet
  facet normal 0 -0.707107 0.707107
    outer loop
      vertex -11.5 -43.8097 13.4567
      vertex 11.5 -42.4567 14.8097
      vertex -11.5 -42.4567 14.8097
    endloop
  endfacet
  facet normal 0 -0.707107 0.707107
    outer loop
      vertex 11.5 -42.4567 14.8097
      vertex -11.5 -43.8097 13.4567
      vertex 11.5 -43.8097 13.4567
    endloop
  endfacet
  facet normal 0.382683 -0.92388 0
    outer loop
      vertex 11.5 -43.8097 9.8097
      vertex 13.1332 -43.1332 13.4567
      vertex 11.5 -43.8097 13.4567
    endloop
  endfacet
  facet normal 0.382683 -0.92388 0
    outer loop
      vertex 13.1332 -43.1332 13.4567
      vertex 11.5 -43.8097 9.8097
      vertex 13.1332 -43.1332 9.8097
    endloop
  endfacet
  facet normal 0.281087 -0.678596 0.6786
    outer loop
      vertex 12.1765 -42.1765 14.8097
      vertex 11.5 -42.4567 14.8097
      vertex 13.1332 -43.1332 13.4567
    endloop
  endfacet
  facet normal 1 -0 0
    outer loop
      vertex 13.8097 -41.5 13.4567
      vertex 13.8097 -28.5 9.8097
      vertex 13.8097 -28.5 13.4567
    endloop
  endfacet
  facet normal 1 0 0
    outer loop
      vertex 13.8097 -28.5 9.8097
      vertex 13.8097 -41.5 13.4567
      vertex 13.8097 -41.5 9.8097
    endloop
  endfacet
  facet normal -0 0.707107 0.707107
    outer loop
      vertex -11.5 -26.1903 13.4567
      vertex 11.5 -27.5433 14.8097
      vertex 11.5 -26.1903 13.4567
    endloop
  endfacet
  facet normal 0 0.707107 0.707107
    outer loop
      vertex 11.5 -27.5433 14.8097
      vertex -11.5 -26.1903 13.4567
      vertex -11.5 -27.5433 14.8097
    endloop
  endfacet
  facet normal 0.281084 0.678598 0.678599
    outer loop
      vertex 11.5 -26.1903 13.4567
      vertex 11.5 -27.5433 14.8097
      vertex 13.1332 -26.8668 13.4567
    endloop
  endfacet
  facet normal -0.281084 0.678599 0.678598
    outer loop
      vertex -11.5 -27.5433 14.8097
      vertex -13.1332 -26.8668 13.4567
      vertex -12.1765 -27.8235 14.8097
    endloop
  endfacet
  facet normal -0.281084 0.678598 0.678599
    outer loop
      vertex -11.5 -26.1903 13.4567
      vertex -13.1332 -26.8668 13.4567
      vertex -11.5 -27.5433 14.8097
    endloop
  endfacet
  facet normal 0.382683 0.92388 -0
    outer loop
      vertex 13.1332 -26.8668 9.8097
      vertex 11.5 -26.1903 13.4567
      vertex 13.1332 -26.8668 13.4567
    endloop
  endfacet
  facet normal 0.382683 0.92388 0
    outer loop
      vertex 11.5 -26.1903 13.4567
      vertex 13.1332 -26.8668 9.8097
      vertex 11.5 -26.1903 9.8097
    endloop
  endfacet
  facet normal -0.707107 0 0.707107
    outer loop
      vertex -13.8097 -41.5 13.4567
      vertex -12.4567 -28.5 14.8097
      vertex -13.8097 -28.5 13.4567
    endloop
  endfacet
  facet normal -0.707107 0 0.707107
    outer loop
      vertex -12.4567 -28.5 14.8097
      vertex -13.8097 -41.5 13.4567
      vertex -12.4567 -41.5 14.8097
    endloop
  endfacet
  facet normal -0.678598 -0.281084 0.678598
    outer loop
      vertex -12.4567 -41.5 14.8097
      vertex -13.8097 -41.5 13.4567
      vertex -13.1332 -43.1332 13.4567
    endloop
  endfacet
  facet normal 0.92388 -0.382683 0
    outer loop
      vertex 13.1332 -43.1332 13.4567
      vertex 13.8097 -41.5 9.8097
      vertex 13.8097 -41.5 13.4567
    endloop
  endfacet
  facet normal 0.92388 -0.382683 0
    outer loop
      vertex 13.8097 -41.5 9.8097
      vertex 13.1332 -43.1332 13.4567
      vertex 13.1332 -43.1332 9.8097
    endloop
  endfacet
  facet normal 0.707107 -0 0.707107
    outer loop
      vertex 12.4567 -41.5 14.8097
      vertex 13.8097 -28.5 13.4567
      vertex 12.4567 -28.5 14.8097
    endloop
  endfacet
  facet normal 0.707107 0 0.707107
    outer loop
      vertex 13.8097 -28.5 13.4567
      vertex 12.4567 -41.5 14.8097
      vertex 13.8097 -41.5 13.4567
    endloop
  endfacet
  facet normal 0.678598 0.281085 0.678599
    outer loop
      vertex 13.1332 -26.8668 13.4567
      vertex 12.1765 -27.8235 14.8097
      vertex 12.4567 -28.5 14.8097
    endloop
  endfacet
  facet normal 0.678598 0.281084 0.678598
    outer loop
      vertex 13.1332 -26.8668 13.4567
      vertex 12.4567 -28.5 14.8097
      vertex 13.8097 -28.5 13.4567
    endloop
  endfacet
  facet normal -0.92388 0.382683 0
    outer loop
      vertex -13.8097 -28.5 9.8097
      vertex -13.1332 -26.8668 13.4567
      vertex -13.1332 -26.8668 9.8097
    endloop
  endfacet
  facet normal -0.92388 0.382683 0
    outer loop
      vertex -13.1332 -26.8668 13.4567
      vertex -13.8097 -28.5 9.8097
      vertex -13.8097 -28.5 13.4567
    endloop
  endfacet
  facet normal -0.382683 0.92388 0
    outer loop
      vertex -11.5 -26.1903 9.8097
      vertex -13.1332 -26.8668 13.4567
      vertex -11.5 -26.1903 13.4567
    endloop
  endfacet
  facet normal -0.382683 0.92388 0
    outer loop
      vertex -13.1332 -26.8668 13.4567
      vertex -11.5 -26.1903 9.8097
      vertex -13.1332 -26.8668 9.8097
    endloop
  endfacet
  facet normal 0.678598 -0.281085 0.678599
    outer loop
      vertex 12.4567 -41.5 14.8097
      vertex 12.1765 -42.1765 14.8097
      vertex 13.1332 -43.1332 13.4567
    endloop
  endfacet
  facet normal 0.678598 -0.281084 0.678598
    outer loop
      vertex 13.8097 -41.5 13.4567
      vertex 12.4567 -41.5 14.8097
      vertex 13.1332 -43.1332 13.4567
    endloop
  endfacet
  facet normal 0.92388 0.382683 0
    outer loop
      vertex 13.8097 -28.5 13.4567
      vertex 13.1332 -26.8668 9.8097
      vertex 13.1332 -26.8668 13.4567
    endloop
  endfacet
  facet normal 0.92388 0.382683 0
    outer loop
      vertex 13.1332 -26.8668 9.8097
      vertex 13.8097 -28.5 13.4567
      vertex 13.8097 -28.5 9.8097
    endloop
  endfacet
  facet normal 0.281084 0.678599 0.678598
    outer loop
      vertex 13.1332 -26.8668 13.4567
      vertex 11.5 -27.5433 14.8097
      vertex 12.1765 -27.8235 14.8097
    endloop
  endfacet
  facet normal -0.678598 -0.281085 0.678599
    outer loop
      vertex -12.4567 -41.5 14.8097
      vertex -13.1332 -43.1332 13.4567
      vertex -12.1765 -42.1765 14.8097
    endloop
  endfacet
  facet normal -0.678598 0.281085 0.678599
    outer loop
      vertex -12.1765 -27.8235 14.8097
      vertex -13.1332 -26.8668 13.4567
      vertex -12.4567 -28.5 14.8097
    endloop
  endfacet
  facet normal -0.678598 0.281084 0.678598
    outer loop
      vertex -13.1332 -26.8668 13.4567
      vertex -13.8097 -28.5 13.4567
      vertex -12.4567 -28.5 14.8097
    endloop
  endfacet
endsolid OpenSCAD_Model
