solid OpenSCAD_Model
  facet normal 0.994522 0.104529 0
    outer loop
      vertex 25 0 30
      vertex 24.4537 5.19779 20
      vertex 24.4537 5.19779 30
    endloop
  endfacet
  facet normal 0.994522 0.104529 0
    outer loop
      vertex 24.4537 5.19779 20
      vertex 25 0 30
      vertex 25 0 20
    endloop
  endfacet
  facet normal -0.994522 0.104529 0
    outer loop
      vertex -25 0 20
      vertex -24.4537 5.19779 30
      vertex -24.4537 5.19779 20
    endloop
  endfacet
  facet normal -0.994522 0.104529 0
    outer loop
      vertex -24.4537 5.19779 30
      vertex -25 0 20
      vertex -25 0 30
    endloop
  endfacet
  facet normal 0 1 -0
    outer loop
      vertex 2.61321 24.863 20
      vertex -2.61321 24.863 30
      vertex 2.61321 24.863 30
    endloop
  endfacet
  facet normal 0 1 0
    outer loop
      vertex -2.61321 24.863 30
      vertex 2.61321 24.863 20
      vertex -2.61321 24.863 20
    endloop
  endfacet
  facet normal 0.587785 0.809017 -0
    outer loop
      vertex 16.7283 18.5786 20
      vertex 12.5 21.6506 30
      vertex 16.7283 18.5786 30
    endloop
  endfacet
  facet normal 0.587785 0.809017 0
    outer loop
      vertex 12.5 21.6506 30
      vertex 16.7283 18.5786 20
      vertex 12.5 21.6506 20
    endloop
  endfacet
  facet normal -0.743145 0.669131 0
    outer loop
      vertex -20.2254 14.6946 20
      vertex -16.7283 18.5786 30
      vertex -16.7283 18.5786 20
    endloop
  endfacet
  facet normal -0.743145 0.669131 0
    outer loop
      vertex -16.7283 18.5786 30
      vertex -20.2254 14.6946 20
      vertex -20.2254 14.6946 30
    endloop
  endfacet
  facet normal -0.866025 0.5 0
    outer loop
      vertex -22.8386 10.1684 20
      vertex -20.2254 14.6946 30
      vertex -20.2254 14.6946 20
    endloop
  endfacet
  facet normal -0.866025 0.5 0
    outer loop
      vertex -20.2254 14.6946 30
      vertex -22.8386 10.1684 20
      vertex -22.8386 10.1684 30
    endloop
  endfacet
  facet normal -0.406737 0.913545 0
    outer loop
      vertex -7.72542 23.7764 20
      vertex -12.5 21.6506 30
      vertex -7.72542 23.7764 30
    endloop
  endfacet
  facet normal -0.406737 0.913545 0
    outer loop
      vertex -12.5 21.6506 30
      vertex -7.72542 23.7764 20
      vertex -12.5 21.6506 20
    endloop
  endfacet
  facet normal 0.951057 -0.309017 0
    outer loop
      vertex 22.8386 -10.1684 30
      vertex 24.4537 -5.19779 20
      vertex 24.4537 -5.19779 30
    endloop
  endfacet
  facet normal 0.951057 -0.309017 0
    outer loop
      vertex 24.4537 -5.19779 20
      vertex 22.8386 -10.1684 30
      vertex 22.8386 -10.1684 20
    endloop
  endfacet
  facet normal 0.866025 0.5 0
    outer loop
      vertex 22.8386 10.1684 30
      vertex 20.2254 14.6946 20
      vertex 20.2254 14.6946 30
    endloop
  endfacet
  facet normal 0.866025 0.5 0
    outer loop
      vertex 20.2254 14.6946 20
      vertex 22.8386 10.1684 30
      vertex 22.8386 10.1684 20
    endloop
  endfacet
  facet normal 0.951057 0.309017 0
    outer loop
      vertex 24.4537 5.19779 30
      vertex 22.8386 10.1684 20
      vertex 22.8386 10.1684 30
    endloop
  endfacet
  facet normal 0.951057 0.309017 0
    outer loop
      vertex 22.8386 10.1684 20
      vertex 24.4537 5.19779 30
      vertex 24.4537 5.19779 20
    endloop
  endfacet
  facet normal 0.743145 0.669131 0
    outer loop
      vertex 20.2254 14.6946 30
      vertex 16.7283 18.5786 20
      vertex 16.7283 18.5786 30
    endloop
  endfacet
  facet normal 0.743145 0.669131 0
    outer loop
      vertex 16.7283 18.5786 20
      vertex 20.2254 14.6946 30
      vertex 20.2254 14.6946 20
    endloop
  endfacet
  facet normal 0.207912 0.978148 -0
    outer loop
      vertex 7.72542 23.7764 20
      vertex 2.61321 24.863 30
      vertex 7.72542 23.7764 30
    endloop
  endfacet
  facet normal 0.207912 0.978148 0
    outer loop
      vertex 2.61321 24.863 30
      vertex 7.72542 23.7764 20
      vertex 2.61321 24.863 20
    endloop
  endfacet
  facet normal 0.406737 0.913545 -0
    outer loop
      vertex 12.5 21.6506 20
      vertex 7.72542 23.7764 30
      vertex 12.5 21.6506 30
    endloop
  endfacet
  facet normal 0.406737 0.913545 0
    outer loop
      vertex 7.72542 23.7764 30
      vertex 12.5 21.6506 20
      vertex 7.72542 23.7764 20
    endloop
  endfacet
  facet normal -0.951057 0.309017 0
    outer loop
      vertex -24.4537 5.19779 20
      vertex -22.8386 10.1684 30
      vertex -22.8386 10.1684 20
    endloop
  endfacet
  facet normal -0.951057 0.309017 0
    outer loop
      vertex -22.8386 10.1684 30
      vertex -24.4537 5.19779 20
      vertex -24.4537 5.19779 30
    endloop
  endfacet
  facet normal -0 0 1
    outer loop
      vertex -16.7283 18.5786 30
      vertex -15 -19.8343 30
      vertex -12.5 21.6506 30
    endloop
  endfacet
  facet normal -0 0 1
    outer loop
      vertex -20.2254 14.6946 30
      vertex -15 -19.8343 30
      vertex -16.7283 18.5786 30
    endloop
  endfacet
  facet normal -0 0 1
    outer loop
      vertex -22.8386 10.1684 30
      vertex -15 -19.8343 30
      vertex -20.2254 14.6946 30
    endloop
  endfacet
  facet normal 0 0 1
    outer loop
      vertex -15 -19.8343 30
      vertex -20.2254 -14.6946 30
      vertex -16.7283 -18.5786 30
    endloop
  endfacet
  facet normal -0 0 1
    outer loop
      vertex -22.8386 -10.1684 30
      vertex -15 -19.8343 30
      vertex -22.8386 10.1684 30
    endloop
  endfacet
  facet normal 0 0 1
    outer loop
      vertex -15 -19.8343 30
      vertex -22.8386 -10.1684 30
      vertex -20.2254 -14.6946 30
    endloop
  endfacet
  facet normal -0 0 1
    outer loop
      vertex -24.4537 5.19779 30
      vertex -22.8386 -10.1684 30
      vertex -22.8386 10.1684 30
    endloop
  endfacet
  facet normal 0 0 1
    outer loop
      vertex -24.4537 5.19779 30
      vertex -24.4537 -5.19779 30
      vertex -22.8386 -10.1684 30
    endloop
  endfacet
  facet normal 0 -0 1
    outer loop
      vertex -24.4537 -5.19779 30
      vertex -24.4537 5.19779 30
      vertex -25 0 30
    endloop
  endfacet
  facet normal 0 0 1
    outer loop
      vertex 24.4537 5.19779 30
      vertex 24.4537 -5.19779 30
      vertex 25 0 30
    endloop
  endfacet
  facet normal 0 0 1
    outer loop
      vertex 22.8386 10.1684 30
      vertex 24.4537 -5.19779 30
      vertex 24.4537 5.19779 30
    endloop
  endfacet
  facet normal 0 0 1
    outer loop
      vertex 22.8386 10.1684 30
      vertex 22.8386 -10.1684 30
      vertex 24.4537 -5.19779 30
    endloop
  endfacet
  facet normal 0 0 1
    outer loop
      vertex 20.2254 14.6946 30
      vertex 22.8386 -10.1684 30
      vertex 22.8386 10.1684 30
    endloop
  endfacet
  facet normal 0 0 1
    outer loop
      vertex 15 -19.8343 30
      vertex 22.8386 -10.1684 30
      vertex 20.2254 14.6946 30
    endloop
  endfacet
  facet normal 0 0 1
    outer loop
      vertex 15 -19.8343 30
      vertex 20.2254 14.6946 30
      vertex 16.7283 18.5786 30
    endloop
  endfacet
  facet normal 0 0 1
    outer loop
      vertex 22.8386 -10.1684 30
      vertex 15 -19.8343 30
      vertex 20.2254 -14.6946 30
    endloop
  endfacet
  facet normal 0 0 1
    outer loop
      vertex 20.2254 -14.6946 30
      vertex 15 -19.8343 30
      vertex 16.7283 -18.5786 30
    endloop
  endfacet
  facet normal 0 0 1
    outer loop
      vertex 12.5 21.6506 30
      vertex 15 -19.8343 30
      vertex 16.7283 18.5786 30
    endloop
  endfacet
  facet normal 0 0 1
    outer loop
      vertex -15 -19.8343 30
      vertex 15 -19.8343 30
      vertex 12.5 21.6506 30
    endloop
  endfacet
  facet normal 0 0 1
    outer loop
      vertex -15 -19.8343 30
      vertex 12.5 21.6506 30
      vertex 7.72542 23.7764 30
    endloop
  endfacet
  facet normal 0 0 1
    outer loop
      vertex -15 -19.8343 30
      vertex 7.72542 23.7764 30
      vertex 2.61321 24.863 30
    endloop
  endfacet
  facet normal 0 0 1
    outer loop
      vertex -15 -19.8343 30
      vertex 2.61321 24.863 30
      vertex -2.61321 24.863 30
    endloop
  endfacet
  facet normal 0 0 1
    outer loop
      vertex -15 -19.8343 30
      vertex -2.61321 24.863 30
      vertex -7.72542 23.7764 30
    endloop
  endfacet
  facet normal 0 0 1
    outer loop
      vertex -15 -19.8343 30
      vertex -7.72542 23.7764 30
      vertex -12.5 21.6506 30
    endloop
  endfacet
  facet normal 0 0 1
    outer loop
      vertex 15 -19.8343 30
      vertex -15 -19.8343 30
      vertex 15 -25 30
    endloop
  endfacet
  facet normal 0 0 1
    outer loop
      vertex 15 -25 30
      vertex -15 -19.8343 30
      vertex -15 -25 30
    endloop
  endfacet
  facet normal -0.587785 0.809017 0
    outer loop
      vertex -12.5 21.6506 20
      vertex -16.7283 18.5786 30
      vertex -12.5 21.6506 30
    endloop
  endfacet
  facet normal -0.587785 0.809017 0
    outer loop
      vertex -16.7283 18.5786 30
      vertex -12.5 21.6506 20
      vertex -16.7283 18.5786 20
    endloop
  endfacet
  facet normal -0.207912 0.978148 0
    outer loop
      vertex -2.61321 24.863 20
      vertex -7.72542 23.7764 30
      vertex -2.61321 24.863 30
    endloop
  endfacet
  facet normal -0.207912 0.978148 0
    outer loop
      vertex -7.72542 23.7764 30
      vertex -2.61321 24.863 20
      vertex -7.72542 23.7764 20
    endloop
  endfacet
  facet normal 0.994522 -0.104529 0
    outer loop
      vertex 24.4537 -5.19779 30
      vertex 25 0 20
      vertex 25 0 30
    endloop
  endfacet
  facet normal 0.994522 -0.104529 0
    outer loop
      vertex 25 0 20
      vertex 24.4537 -5.19779 30
      vertex 24.4537 -5.19779 20
    endloop
  endfacet
  facet normal 0 0 -1
    outer loop
      vertex -15 -19.8343 20
      vertex -16.7283 -18.5786 20
      vertex -15 0 20
    endloop
  endfacet
  facet normal 0 0 -1
    outer loop
      vertex 15 0 20
      vertex 25 0 20
      vertex 24.4537 -5.19779 20
    endloop
  endfacet
  facet normal 0 0 -1
    outer loop
      vertex 15 0 20
      vertex 24.4537 -5.19779 20
      vertex 22.8386 -10.1684 20
    endloop
  endfacet
  facet normal 0 0 -1
    outer loop
      vertex 25 0 20
      vertex 15 0 20
      vertex 24.4537 5.19779 20
    endloop
  endfacet
  facet normal 0 0 -1
    outer loop
      vertex 15 0 20
      vertex 22.8386 -10.1684 20
      vertex 20.2254 -14.6946 20
    endloop
  endfacet
  facet normal 0 0 -1
    outer loop
      vertex 14.6722 3.11868 20
      vertex 24.4537 5.19779 20
      vertex 15 0 20
    endloop
  endfacet
  facet normal 0 0 -1
    outer loop
      vertex 15 0 20
      vertex 20.2254 -14.6946 20
      vertex 16.7283 -18.5786 20
    endloop
  endfacet
  facet normal -0 0 -1
    outer loop
      vertex 24.4537 5.19779 20
      vertex 14.6722 3.11868 20
      vertex 22.8386 10.1684 20
    endloop
  endfacet
  facet normal 0 0 -1
    outer loop
      vertex 15 0 20
      vertex 16.7283 -18.5786 20
      vertex 15 -19.8343 20
    endloop
  endfacet
  facet normal 0 0 -1
    outer loop
      vertex 13.7032 6.10105 20
      vertex 22.8386 10.1684 20
      vertex 14.6722 3.11868 20
    endloop
  endfacet
  facet normal -0 0 -1
    outer loop
      vertex 22.8386 10.1684 20
      vertex 13.7032 6.10105 20
      vertex 20.2254 14.6946 20
    endloop
  endfacet
  facet normal 0 0 -1
    outer loop
      vertex 12.1353 8.81678 20
      vertex 20.2254 14.6946 20
      vertex 13.7032 6.10105 20
    endloop
  endfacet
  facet normal -0 0 -1
    outer loop
      vertex 20.2254 14.6946 20
      vertex 12.1353 8.81678 20
      vertex 16.7283 18.5786 20
    endloop
  endfacet
  facet normal 0 0 -1
    outer loop
      vertex 10.037 11.1472 20
      vertex 16.7283 18.5786 20
      vertex 12.1353 8.81678 20
    endloop
  endfacet
  facet normal -0 0 -1
    outer loop
      vertex 16.7283 18.5786 20
      vertex 10.037 11.1472 20
      vertex 12.5 21.6506 20
    endloop
  endfacet
  facet normal 0 0 -1
    outer loop
      vertex 7.5 12.9904 20
      vertex 12.5 21.6506 20
      vertex 10.037 11.1472 20
    endloop
  endfacet
  facet normal -0 0 -1
    outer loop
      vertex 12.5 21.6506 20
      vertex 7.5 12.9904 20
      vertex 7.72542 23.7764 20
    endloop
  endfacet
  facet normal 0 0 -1
    outer loop
      vertex 4.63525 14.2658 20
      vertex 7.72542 23.7764 20
      vertex 7.5 12.9904 20
    endloop
  endfacet
  facet normal 0 0 -1
    outer loop
      vertex 4.63525 14.2658 20
      vertex 2.61321 24.863 20
      vertex 7.72542 23.7764 20
    endloop
  endfacet
  facet normal 0 0 -1
    outer loop
      vertex 1.56793 14.9178 20
      vertex 2.61321 24.863 20
      vertex 4.63525 14.2658 20
    endloop
  endfacet
  facet normal 0 0 -1
    outer loop
      vertex -1.56793 14.9178 20
      vertex 2.61321 24.863 20
      vertex 1.56793 14.9178 20
    endloop
  endfacet
  facet normal 0 0 -1
    outer loop
      vertex -1.56793 14.9178 20
      vertex -2.61321 24.863 20
      vertex 2.61321 24.863 20
    endloop
  endfacet
  facet normal 0 0 -1
    outer loop
      vertex -4.63525 14.2658 20
      vertex -2.61321 24.863 20
      vertex -1.56793 14.9178 20
    endloop
  endfacet
  facet normal 0 0 -1
    outer loop
      vertex -7.72542 23.7764 20
      vertex -4.63525 14.2658 20
      vertex -7.5 12.9904 20
    endloop
  endfacet
  facet normal 0 0 -1
    outer loop
      vertex -4.63525 14.2658 20
      vertex -7.72542 23.7764 20
      vertex -2.61321 24.863 20
    endloop
  endfacet
  facet normal 0 0 -1
    outer loop
      vertex -12.5 21.6506 20
      vertex -7.5 12.9904 20
      vertex -10.037 11.1472 20
    endloop
  endfacet
  facet normal 0 0 -1
    outer loop
      vertex -16.7283 18.5786 20
      vertex -10.037 11.1472 20
      vertex -12.1353 8.81678 20
    endloop
  endfacet
  facet normal 0 0 -1
    outer loop
      vertex -7.5 12.9904 20
      vertex -12.5 21.6506 20
      vertex -7.72542 23.7764 20
    endloop
  endfacet
  facet normal 0 0 -1
    outer loop
      vertex -20.2254 14.6946 20
      vertex -12.1353 8.81678 20
      vertex -13.7032 6.10105 20
    endloop
  endfacet
  facet normal 0 0 -1
    outer loop
      vertex -22.8386 10.1684 20
      vertex -13.7032 6.10105 20
      vertex -14.6722 3.11868 20
    endloop
  endfacet
  facet normal 0 0 -1
    outer loop
      vertex -10.037 11.1472 20
      vertex -16.7283 18.5786 20
      vertex -12.5 21.6506 20
    endloop
  endfacet
  facet normal 0 0 -1
    outer loop
      vertex -24.4537 5.19779 20
      vertex -14.6722 3.11868 20
      vertex -15 0 20
    endloop
  endfacet
  facet normal 0 0 -1
    outer loop
      vertex -20.2254 -14.6946 20
      vertex -15 0 20
      vertex -16.7283 -18.5786 20
    endloop
  endfacet
  facet normal 0 0 -1
    outer loop
      vertex -22.8386 -10.1684 20
      vertex -15 0 20
      vertex -20.2254 -14.6946 20
    endloop
  endfacet
  facet normal 0 0 -1
    outer loop
      vertex -12.1353 8.81678 20
      vertex -20.2254 14.6946 20
      vertex -16.7283 18.5786 20
    endloop
  endfacet
  facet normal 0 0 -1
    outer loop
      vertex -24.4537 -5.19779 20
      vertex -15 0 20
      vertex -22.8386 -10.1684 20
    endloop
  endfacet
  facet normal 0 0 -1
    outer loop
      vertex -13.7032 6.10105 20
      vertex -22.8386 10.1684 20
      vertex -20.2254 14.6946 20
    endloop
  endfacet
  facet normal 0 0 -1
    outer loop
      vertex -25 0 20
      vertex -15 0 20
      vertex -24.4537 -5.19779 20
    endloop
  endfacet
  facet normal 0 0 -1
    outer loop
      vertex -14.6722 3.11868 20
      vertex -24.4537 5.19779 20
      vertex -22.8386 10.1684 20
    endloop
  endfacet
  facet normal 0 0 -1
    outer loop
      vertex -15 0 20
      vertex -25 0 20
      vertex -24.4537 5.19779 20
    endloop
  endfacet
  facet normal 0.866025 -0.5 0
    outer loop
      vertex 20.2254 -14.6946 30
      vertex 22.8386 -10.1684 20
      vertex 22.8386 -10.1684 30
    endloop
  endfacet
  facet normal 0.866025 -0.5 0
    outer loop
      vertex 22.8386 -10.1684 20
      vertex 20.2254 -14.6946 30
      vertex 20.2254 -14.6946 20
    endloop
  endfacet
  facet normal -0.866025 -0.5 0
    outer loop
      vertex -20.2254 -14.6946 20
      vertex -22.8386 -10.1684 30
      vertex -22.8386 -10.1684 20
    endloop
  endfacet
  facet normal -0.866025 -0.5 0
    outer loop
      vertex -22.8386 -10.1684 30
      vertex -20.2254 -14.6946 20
      vertex -20.2254 -14.6946 30
    endloop
  endfacet
  facet normal 0.587785 -0.809017 0
    outer loop
      vertex 15 -19.8343 20
      vertex 16.7283 -18.5786 30
      vertex 15 -19.8343 30
    endloop
  endfacet
  facet normal 0.587785 -0.809017 0
    outer loop
      vertex 16.7283 -18.5786 30
      vertex 15 -19.8343 20
      vertex 16.7283 -18.5786 20
    endloop
  endfacet
  facet normal -0.743145 -0.669131 0
    outer loop
      vertex -16.7283 -18.5786 20
      vertex -20.2254 -14.6946 30
      vertex -20.2254 -14.6946 20
    endloop
  endfacet
  facet normal -0.743145 -0.669131 0
    outer loop
      vertex -20.2254 -14.6946 30
      vertex -16.7283 -18.5786 20
      vertex -16.7283 -18.5786 30
    endloop
  endfacet
  facet normal -0.951057 -0.309017 0
    outer loop
      vertex -22.8386 -10.1684 20
      vertex -24.4537 -5.19779 30
      vertex -24.4537 -5.19779 20
    endloop
  endfacet
  facet normal -0.951057 -0.309017 0
    outer loop
      vertex -24.4537 -5.19779 30
      vertex -22.8386 -10.1684 20
      vertex -22.8386 -10.1684 30
    endloop
  endfacet
  facet normal -0.994522 -0.104529 0
    outer loop
      vertex -24.4537 -5.19779 20
      vertex -25 0 30
      vertex -25 0 20
    endloop
  endfacet
  facet normal -0.994522 -0.104529 0
    outer loop
      vertex -25 0 30
      vertex -24.4537 -5.19779 20
      vertex -24.4537 -5.19779 30
    endloop
  endfacet
  facet normal 0.743145 -0.669131 0
    outer loop
      vertex 16.7283 -18.5786 30
      vertex 20.2254 -14.6946 20
      vertex 20.2254 -14.6946 30
    endloop
  endfacet
  facet normal 0.743145 -0.669131 0
    outer loop
      vertex 20.2254 -14.6946 20
      vertex 16.7283 -18.5786 30
      vertex 16.7283 -18.5786 20
    endloop
  endfacet
  facet normal -0.587785 -0.809017 0
    outer loop
      vertex -16.7283 -18.5786 20
      vertex -15 -19.8343 30
      vertex -16.7283 -18.5786 30
    endloop
  endfacet
  facet normal -0.587785 -0.809017 -0
    outer loop
      vertex -15 -19.8343 30
      vertex -16.7283 -18.5786 20
      vertex -15 -19.8343 20
    endloop
  endfacet
  facet normal 0.743145 0.669131 0
    outer loop
      vertex 12.1353 8.81678 20
      vertex 10.037 11.1472 0
      vertex 10.037 11.1472 20
    endloop
  endfacet
  facet normal 0.743145 0.669131 0
    outer loop
      vertex 10.037 11.1472 0
      vertex 12.1353 8.81678 20
      vertex 12.1353 8.81678 0
    endloop
  endfacet
  facet normal 0.994522 0.104529 0
    outer loop
      vertex 15 0 20
      vertex 14.6722 3.11868 0
      vertex 14.6722 3.11868 20
    endloop
  endfacet
  facet normal 0.994522 0.104529 0
    outer loop
      vertex 14.6722 3.11868 0
      vertex 15 0 20
      vertex 15 0 0
    endloop
  endfacet
  facet normal 0.587785 0.809017 -0
    outer loop
      vertex 10.037 11.1472 0
      vertex 7.5 12.9904 20
      vertex 10.037 11.1472 20
    endloop
  endfacet
  facet normal 0.587785 0.809017 0
    outer loop
      vertex 7.5 12.9904 20
      vertex 10.037 11.1472 0
      vertex 7.5 12.9904 0
    endloop
  endfacet
  facet normal 0 0 -1
    outer loop
      vertex -15 0 0
      vertex 15 0 0
      vertex 15 -65 0
    endloop
  endfacet
  facet normal 0 0 -1
    outer loop
      vertex 15 0 0
      vertex -15 0 0
      vertex 14.6722 3.11868 0
    endloop
  endfacet
  facet normal -0 0 -1
    outer loop
      vertex 14.6722 3.11868 0
      vertex -15 0 0
      vertex 13.7032 6.10105 0
    endloop
  endfacet
  facet normal -0 0 -1
    outer loop
      vertex 13.7032 6.10105 0
      vertex -15 0 0
      vertex 12.1353 8.81678 0
    endloop
  endfacet
  facet normal -0 0 -1
    outer loop
      vertex 12.1353 8.81678 0
      vertex -15 0 0
      vertex 10.037 11.1472 0
    endloop
  endfacet
  facet normal -0 0 -1
    outer loop
      vertex 10.037 11.1472 0
      vertex -15 0 0
      vertex 7.5 12.9904 0
    endloop
  endfacet
  facet normal -0 0 -1
    outer loop
      vertex 7.5 12.9904 0
      vertex -15 0 0
      vertex 4.63525 14.2658 0
    endloop
  endfacet
  facet normal -0 0 -1
    outer loop
      vertex 4.63525 14.2658 0
      vertex -15 0 0
      vertex 1.56793 14.9178 0
    endloop
  endfacet
  facet normal -0 0 -1
    outer loop
      vertex 1.56793 14.9178 0
      vertex -15 0 0
      vertex -1.56793 14.9178 0
    endloop
  endfacet
  facet normal 0 0 -1
    outer loop
      vertex -1.56793 14.9178 0
      vertex -15 0 0
      vertex -4.63525 14.2658 0
    endloop
  endfacet
  facet normal 0 0 -1
    outer loop
      vertex -4.63525 14.2658 0
      vertex -15 0 0
      vertex -7.5 12.9904 0
    endloop
  endfacet
  facet normal 0 0 -1
    outer loop
      vertex -7.5 12.9904 0
      vertex -15 0 0
      vertex -10.037 11.1472 0
    endloop
  endfacet
  facet normal 0 0 -1
    outer loop
      vertex -10.037 11.1472 0
      vertex -15 0 0
      vertex -12.1353 8.81678 0
    endloop
  endfacet
  facet normal 0 0 -1
    outer loop
      vertex -12.1353 8.81678 0
      vertex -15 0 0
      vertex -13.7032 6.10105 0
    endloop
  endfacet
  facet normal 0 0 -1
    outer loop
      vertex -15 0 0
      vertex 15 -65 0
      vertex -15 -65 0
    endloop
  endfacet
  facet normal 0 0 -1
    outer loop
      vertex -13.7032 6.10105 0
      vertex -15 0 0
      vertex -14.6722 3.11868 0
    endloop
  endfacet
  facet normal 0 -0.6 0.8
    outer loop
      vertex -15 -25 30
      vertex 15 -65 0
      vertex 15 -25 30
    endloop
  endfacet
  facet normal 0 -0.6 0.8
    outer loop
      vertex 15 -65 0
      vertex -15 -25 30
      vertex -15 -65 0
    endloop
  endfacet
  facet normal 1 0 0
    outer loop
      vertex 15 -19.8343 30
      vertex 15 -25 30
      vertex 15 -19.8343 20
    endloop
  endfacet
  facet normal 1 -0 0
    outer loop
      vertex 15 -19.8343 20
      vertex 15 0 0
      vertex 15 0 20
    endloop
  endfacet
  facet normal 1 0 0
    outer loop
      vertex 15 -19.8343 20
      vertex 15 -65 0
      vertex 15 0 0
    endloop
  endfacet
  facet normal 1 0 0
    outer loop
      vertex 15 -65 0
      vertex 15 -19.8343 20
      vertex 15 -25 30
    endloop
  endfacet
  facet normal -1 0 0
    outer loop
      vertex -15 0 0
      vertex -15 -19.8343 20
      vertex -15 0 20
    endloop
  endfacet
  facet normal -1 0 0
    outer loop
      vertex -15 -19.8343 20
      vertex -15 -25 30
      vertex -15 -19.8343 30
    endloop
  endfacet
  facet normal -1 -0 0
    outer loop
      vertex -15 -19.8343 20
      vertex -15 -65 0
      vertex -15 -25 30
    endloop
  endfacet
  facet normal -1 0 0
    outer loop
      vertex -15 -65 0
      vertex -15 -19.8343 20
      vertex -15 0 0
    endloop
  endfacet
  facet normal 0.207912 0.978148 -0
    outer loop
      vertex 4.63525 14.2658 0
      vertex 1.56793 14.9178 20
      vertex 4.63525 14.2658 20
    endloop
  endfacet
  facet normal 0.207912 0.978148 0
    outer loop
      vertex 1.56793 14.9178 20
      vertex 4.63525 14.2658 0
      vertex 1.56793 14.9178 0
    endloop
  endfacet
  facet normal -0.406737 0.913545 0
    outer loop
      vertex -4.63525 14.2658 0
      vertex -7.5 12.9904 20
      vertex -4.63525 14.2658 20
    endloop
  endfacet
  facet normal -0.406737 0.913545 0
    outer loop
      vertex -7.5 12.9904 20
      vertex -4.63525 14.2658 0
      vertex -7.5 12.9904 0
    endloop
  endfacet
  facet normal -0.994522 0.104529 0
    outer loop
      vertex -15 0 0
      vertex -14.6722 3.11868 20
      vertex -14.6722 3.11868 0
    endloop
  endfacet
  facet normal -0.994522 0.104529 0
    outer loop
      vertex -14.6722 3.11868 20
      vertex -15 0 0
      vertex -15 0 20
    endloop
  endfacet
  facet normal -0.951057 0.309017 0
    outer loop
      vertex -14.6722 3.11868 0
      vertex -13.7032 6.10105 20
      vertex -13.7032 6.10105 0
    endloop
  endfacet
  facet normal -0.951057 0.309017 0
    outer loop
      vertex -13.7032 6.10105 20
      vertex -14.6722 3.11868 0
      vertex -14.6722 3.11868 20
    endloop
  endfacet
  facet normal 0.866025 0.5 0
    outer loop
      vertex 13.7032 6.10105 20
      vertex 12.1353 8.81678 0
      vertex 12.1353 8.81678 20
    endloop
  endfacet
  facet normal 0.866025 0.5 0
    outer loop
      vertex 12.1353 8.81678 0
      vertex 13.7032 6.10105 20
      vertex 13.7032 6.10105 0
    endloop
  endfacet
  facet normal 0.406737 0.913545 -0
    outer loop
      vertex 7.5 12.9904 0
      vertex 4.63525 14.2658 20
      vertex 7.5 12.9904 20
    endloop
  endfacet
  facet normal 0.406737 0.913545 0
    outer loop
      vertex 4.63525 14.2658 20
      vertex 7.5 12.9904 0
      vertex 4.63525 14.2658 0
    endloop
  endfacet
  facet normal -0.587785 0.809017 0
    outer loop
      vertex -7.5 12.9904 0
      vertex -10.037 11.1472 20
      vertex -7.5 12.9904 20
    endloop
  endfacet
  facet normal -0.587785 0.809017 0
    outer loop
      vertex -10.037 11.1472 20
      vertex -7.5 12.9904 0
      vertex -10.037 11.1472 0
    endloop
  endfacet
  facet normal 0.951057 0.309017 0
    outer loop
      vertex 14.6722 3.11868 20
      vertex 13.7032 6.10105 0
      vertex 13.7032 6.10105 20
    endloop
  endfacet
  facet normal 0.951057 0.309017 0
    outer loop
      vertex 13.7032 6.10105 0
      vertex 14.6722 3.11868 20
      vertex 14.6722 3.11868 0
    endloop
  endfacet
  facet normal 0 1 -0
    outer loop
      vertex 1.56793 14.9178 0
      vertex -1.56793 14.9178 20
      vertex 1.56793 14.9178 20
    endloop
  endfacet
  facet normal 0 1 0
    outer loop
      vertex -1.56793 14.9178 20
      vertex 1.56793 14.9178 0
      vertex -1.56793 14.9178 0
    endloop
  endfacet
  facet normal -0.743145 0.669131 0
    outer loop
      vertex -12.1353 8.81678 0
      vertex -10.037 11.1472 20
      vertex -10.037 11.1472 0
    endloop
  endfacet
  facet normal -0.743145 0.669131 0
    outer loop
      vertex -10.037 11.1472 20
      vertex -12.1353 8.81678 0
      vertex -12.1353 8.81678 20
    endloop
  endfacet
  facet normal -0.207912 0.978148 0
    outer loop
      vertex -1.56793 14.9178 0
      vertex -4.63525 14.2658 20
      vertex -1.56793 14.9178 20
    endloop
  endfacet
  facet normal -0.207912 0.978148 0
    outer loop
      vertex -4.63525 14.2658 20
      vertex -1.56793 14.9178 0
      vertex -4.63525 14.2658 0
    endloop
  endfacet
  facet normal -0.866025 0.5 0
    outer loop
      vertex -13.7032 6.10105 0
      vertex -12.1353 8.81678 20
      vertex -12.1353 8.81678 0
    endloop
  endfacet
  facet normal -0.866025 0.5 0
    outer loop
      vertex -12.1353 8.81678 20
      vertex -13.7032 6.10105 0
      vertex -13.7032 6.10105 20
    endloop
  endfacet
endsolid OpenSCAD_Model
