solid OpenSCAD_Model
  facet normal 0 1 -0
    outer loop
      vertex 10 10 0
      vertex 0 10 10
      vertex 10 10 10
    endloop
  endfacet
  facet normal 0 1 0
    outer loop
      vertex 0 10 10
      vertex 10 10 0
      vertex 0 10 0
    endloop
  endfacet
  facet normal 0 0 -1
    outer loop
      vertex 0 0 0
      vertex 10 10 0
      vertex 10 0 0
    endloop
  endfacet
  facet normal -0 0 -1
    outer loop
      vertex 10 10 0
      vertex 0 0 0
      vertex 0 10 0
    endloop
  endfacet
  facet normal 1 0 0
    outer loop
      vertex 10 10 10
      vertex 10 0 0
      vertex 10 10 0
    endloop
  endfacet
  facet normal 0 -0.707107 0.707107
    outer loop
      vertex 0 0 0
      vertex 10 10 10
      vertex 0 10 10
    endloop
  endfacet
  facet normal 0 -0.707107 0.707107
    outer loop
      vertex 10 10 10
      vertex 0 0 0
      vertex 10 0 0
    endloop
  endfacet
  facet normal -1 0 0
    outer loop
      vertex 0 10 0
      vertex 0 0 0
      vertex 0 10 10
    endloop
  endfacet
  facet normal 0 1 -0
    outer loop
      vertex 21 20 0
      vertex 11 20 10
      vertex 21 20 10
    endloop
  endfacet
  facet normal 0 1 0
    outer loop
      vertex 11 20 10
      vertex 21 20 0
      vertex 11 20 0
    endloop
  endfacet
  facet normal 0 0 -1
    outer loop
      vertex 11 0 0
      vertex 21 20 0
      vertex 21 0 0
    endloop
  endfacet
  facet normal -0 0 -1
    outer loop
      vertex 21 20 0
      vertex 11 0 0
      vertex 11 20 0
    endloop
  endfacet
  facet normal 1 0 0
    outer loop
      vertex 21 20 10
      vertex 21 0 0
      vertex 21 20 0
    endloop
  endfacet
  facet normal 0 -0.447214 0.894427
    outer loop
      vertex 11 20 10
      vertex 21 0 0
      vertex 21 20 10
    endloop
  endfacet
  facet normal 0 -0.447214 0.894427
    outer loop
      vertex 21 0 0
      vertex 11 20 10
      vertex 11 0 0
    endloop
  endfacet
  facet normal -1 0 0
    outer loop
      vertex 11 20 0
      vertex 11 0 0
      vertex 11 20 10
    endloop
  endfacet
  facet normal 0 1 -0
    outer loop
      vertex 32 30 0
      vertex 22 30 10
      vertex 32 30 10
    endloop
  endfacet
  facet normal 0 1 0
    outer loop
      vertex 22 30 10
      vertex 32 30 0
      vertex 22 30 0
    endloop
  endfacet
  facet normal 0 0 -1
    outer loop
      vertex 22 0 0
      vertex 32 30 0
      vertex 32 0 0
    endloop
  endfacet
  facet normal -0 0 -1
    outer loop
      vertex 32 30 0
      vertex 22 0 0
      vertex 22 30 0
    endloop
  endfacet
  facet normal 1 0 0
    outer loop
      vertex 32 30 10
      vertex 32 0 0
      vertex 32 30 0
    endloop
  endfacet
  facet normal 0 -0.316228 0.948683
    outer loop
      vertex 22 30 10
      vertex 32 0 0
      vertex 32 30 10
    endloop
  endfacet
  facet normal 0 -0.316228 0.948683
    outer loop
      vertex 32 0 0
      vertex 22 30 10
      vertex 22 0 0
    endloop
  endfacet
  facet normal -1 0 0
    outer loop
      vertex 22 30 0
      vertex 22 0 0
      vertex 22 30 10
    endloop
  endfacet
  facet normal 0 1 -0
    outer loop
      vertex 43 40 0
      vertex 33 40 10
      vertex 43 40 10
    endloop
  endfacet
  facet normal 0 1 0
    outer loop
      vertex 33 40 10
      vertex 43 40 0
      vertex 33 40 0
    endloop
  endfacet
  facet normal 0 0 -1
    outer loop
      vertex 33 0 0
      vertex 43 40 0
      vertex 43 0 0
    endloop
  endfacet
  facet normal -0 0 -1
    outer loop
      vertex 43 40 0
      vertex 33 0 0
      vertex 33 40 0
    endloop
  endfacet
  facet normal 1 0 0
    outer loop
      vertex 43 40 10
      vertex 43 0 0
      vertex 43 40 0
    endloop
  endfacet
  facet normal 0 -0.242536 0.970143
    outer loop
      vertex 33 40 10
      vertex 43 0 0
      vertex 43 40 10
    endloop
  endfacet
  facet normal 0 -0.242536 0.970143
    outer loop
      vertex 43 0 0
      vertex 33 40 10
      vertex 33 0 0
    endloop
  endfacet
  facet normal -1 0 0
    outer loop
      vertex 33 40 0
      vertex 33 0 0
      vertex 33 40 10
    endloop
  endfacet
  facet normal 0 1 -0
    outer loop
      vertex -1 10 0
      vertex -11 10 20
      vertex -1 10 20
    endloop
  endfacet
  facet normal 0 1 0
    outer loop
      vertex -11 10 20
      vertex -1 10 0
      vertex -11 10 0
    endloop
  endfacet
  facet normal 0 0 -1
    outer loop
      vertex -11 0 0
      vertex -1 10 0
      vertex -1 0 0
    endloop
  endfacet
  facet normal -0 0 -1
    outer loop
      vertex -1 10 0
      vertex -11 0 0
      vertex -11 10 0
    endloop
  endfacet
  facet normal 1 0 0
    outer loop
      vertex -1 10 20
      vertex -1 0 0
      vertex -1 10 0
    endloop
  endfacet
  facet normal 0 -0.894427 0.447214
    outer loop
      vertex -11 0 0
      vertex -1 10 20
      vertex -11 10 20
    endloop
  endfacet
  facet normal 0 -0.894427 0.447214
    outer loop
      vertex -1 10 20
      vertex -11 0 0
      vertex -1 0 0
    endloop
  endfacet
  facet normal -1 0 0
    outer loop
      vertex -11 10 0
      vertex -11 0 0
      vertex -11 10 20
    endloop
  endfacet
  facet normal 0 1 -0
    outer loop
      vertex -12 10 0
      vertex -22 10 30
      vertex -12 10 30
    endloop
  endfacet
  facet normal 0 1 0
    outer loop
      vertex -22 10 30
      vertex -12 10 0
      vertex -22 10 0
    endloop
  endfacet
  facet normal 0 0 -1
    outer loop
      vertex -22 0 0
      vertex -12 10 0
      vertex -12 0 0
    endloop
  endfacet
  facet normal -0 0 -1
    outer loop
      vertex -12 10 0
      vertex -22 0 0
      vertex -22 10 0
    endloop
  endfacet
  facet normal 1 0 0
    outer loop
      vertex -12 10 30
      vertex -12 0 0
      vertex -12 10 0
    endloop
  endfacet
  facet normal 0 -0.948683 0.316228
    outer loop
      vertex -22 0 0
      vertex -12 10 30
      vertex -22 10 30
    endloop
  endfacet
  facet normal 0 -0.948683 0.316228
    outer loop
      vertex -12 10 30
      vertex -22 0 0
      vertex -12 0 0
    endloop
  endfacet
  facet normal -1 0 0
    outer loop
      vertex -22 10 0
      vertex -22 0 0
      vertex -22 10 30
    endloop
  endfacet
  facet normal 0 1 -0
    outer loop
      vertex -23 10 0
      vertex -33 10 40
      vertex -23 10 40
    endloop
  endfacet
  facet normal 0 1 0
    outer loop
      vertex -33 10 40
      vertex -23 10 0
      vertex -33 10 0
    endloop
  endfacet
  facet normal 0 0 -1
    outer loop
      vertex -33 0 0
      vertex -23 10 0
      vertex -23 0 0
    endloop
  endfacet
  facet normal -0 0 -1
    outer loop
      vertex -23 10 0
      vertex -33 0 0
      vertex -33 10 0
    endloop
  endfacet
  facet normal 1 0 0
    outer loop
      vertex -23 10 40
      vertex -23 0 0
      vertex -23 10 0
    endloop
  endfacet
  facet normal 0 -0.970143 0.242536
    outer loop
      vertex -33 0 0
      vertex -23 10 40
      vertex -33 10 40
    endloop
  endfacet
  facet normal 0 -0.970143 0.242536
    outer loop
      vertex -23 10 40
      vertex -33 0 0
      vertex -23 0 0
    endloop
  endfacet
  facet normal -1 0 0
    outer loop
      vertex -33 10 0
      vertex -33 0 0
      vertex -33 10 40
    endloop
  endfacet
  facet normal 0 1 -0
    outer loop
      vertex 10 -1 0
      vertex 0 -1 10
      vertex 10 -1 10
    endloop
  endfacet
  facet normal 0 1 0
    outer loop
      vertex 0 -1 10
      vertex 10 -1 0
      vertex 0 -1 0
    endloop
  endfacet
  facet normal 0 0 -1
    outer loop
      vertex 0 -11 0
      vertex 10 -1 0
      vertex 10 -11 0
    endloop
  endfacet
  facet normal -0 0 -1
    outer loop
      vertex 10 -1 0
      vertex 0 -11 0
      vertex 0 -1 0
    endloop
  endfacet
  facet normal 1 0 0
    outer loop
      vertex 10 -1 10
      vertex 10 -11 0
      vertex 10 -1 0
    endloop
  endfacet
  facet normal 0 -0.707107 0.707107
    outer loop
      vertex 0 -11 0
      vertex 10 -1 10
      vertex 0 -1 10
    endloop
  endfacet
  facet normal 0 -0.707107 0.707107
    outer loop
      vertex 10 -1 10
      vertex 0 -11 0
      vertex 10 -11 0
    endloop
  endfacet
  facet normal -1 0 0
    outer loop
      vertex 0 -1 0
      vertex 0 -11 0
      vertex 0 -1 10
    endloop
  endfacet
  facet normal 0 1 -0
    outer loop
      vertex 20 -12 0
      vertex 0 -12 10
      vertex 20 -12 10
    endloop
  endfacet
  facet normal 0 1 0
    outer loop
      vertex 0 -12 10
      vertex 20 -12 0
      vertex 0 -12 0
    endloop
  endfacet
  facet normal 0 0 -1
    outer loop
      vertex 0 -22 0
      vertex 20 -12 0
      vertex 20 -22 0
    endloop
  endfacet
  facet normal -0 0 -1
    outer loop
      vertex 20 -12 0
      vertex 0 -22 0
      vertex 0 -12 0
    endloop
  endfacet
  facet normal 1 0 0
    outer loop
      vertex 20 -12 10
      vertex 20 -22 0
      vertex 20 -12 0
    endloop
  endfacet
  facet normal 0 -0.707107 0.707107
    outer loop
      vertex 0 -22 0
      vertex 20 -12 10
      vertex 0 -12 10
    endloop
  endfacet
  facet normal 0 -0.707107 0.707107
    outer loop
      vertex 20 -12 10
      vertex 0 -22 0
      vertex 20 -22 0
    endloop
  endfacet
  facet normal -1 0 0
    outer loop
      vertex 0 -12 0
      vertex 0 -22 0
      vertex 0 -12 10
    endloop
  endfacet
  facet normal 0 1 -0
    outer loop
      vertex 30 -23 0
      vertex 0 -23 10
      vertex 30 -23 10
    endloop
  endfacet
  facet normal 0 1 0
    outer loop
      vertex 0 -23 10
      vertex 30 -23 0
      vertex 0 -23 0
    endloop
  endfacet
  facet normal 0 0 -1
    outer loop
      vertex 0 -33 0
      vertex 30 -23 0
      vertex 30 -33 0
    endloop
  endfacet
  facet normal -0 0 -1
    outer loop
      vertex 30 -23 0
      vertex 0 -33 0
      vertex 0 -23 0
    endloop
  endfacet
  facet normal 1 0 0
    outer loop
      vertex 30 -23 10
      vertex 30 -33 0
      vertex 30 -23 0
    endloop
  endfacet
  facet normal 0 -0.707107 0.707107
    outer loop
      vertex 0 -33 0
      vertex 30 -23 10
      vertex 0 -23 10
    endloop
  endfacet
  facet normal 0 -0.707107 0.707107
    outer loop
      vertex 30 -23 10
      vertex 0 -33 0
      vertex 30 -33 0
    endloop
  endfacet
  facet normal -1 0 0
    outer loop
      vertex 0 -23 0
      vertex 0 -33 0
      vertex 0 -23 10
    endloop
  endfacet
endsolid OpenSCAD_Model
