solid OpenSCAD_Model
  facet normal 0.998027 0.0627922 0
    outer loop
      vertex -34 70 13
      vertex -34.0276 70.4387 11
      vertex -34.0276 70.4387 13
    endloop
  endfacet
  facet normal 0.998027 0.0627922 0
    outer loop
      vertex -34.0276 70.4387 11
      vertex -34 70 13
      vertex -34 70 11
    endloop
  endfacet
  facet normal -0.998027 0.0627922 0
    outer loop
      vertex -41 70 11
      vertex -40.9724 70.4387 13
      vertex -40.9724 70.4387 11
    endloop
  endfacet
  facet normal -0.998027 0.0627922 0
    outer loop
      vertex -40.9724 70.4387 13
      vertex -41 70 11
      vertex -41 70 13
    endloop
  endfacet
  facet normal 0 1 -0
    outer loop
      vertex -37.2802 73.4931 11
      vertex -37.7198 73.4931 13
      vertex -37.2802 73.4931 13
    endloop
  endfacet
  facet normal 0 1 0
    outer loop
      vertex -37.7198 73.4931 13
      vertex -37.2802 73.4931 11
      vertex -37.7198 73.4931 11
    endloop
  endfacet
  facet normal 0.684544 0.728972 -0
    outer loop
      vertex -34.9486 72.3959 11
      vertex -35.269 72.6968 13
      vertex -34.9486 72.3959 13
    endloop
  endfacet
  facet normal 0.684544 0.728972 0
    outer loop
      vertex -35.269 72.6968 13
      vertex -34.9486 72.3959 11
      vertex -35.269 72.6968 11
    endloop
  endfacet
  facet normal -0.684544 0.728972 0
    outer loop
      vertex -39.731 72.6968 11
      vertex -40.0514 72.3959 13
      vertex -39.731 72.6968 13
    endloop
  endfacet
  facet normal -0.684544 0.728972 0
    outer loop
      vertex -40.0514 72.3959 13
      vertex -39.731 72.6968 11
      vertex -40.0514 72.3959 11
    endloop
  endfacet
  facet normal -0.368126 0.929776 0
    outer loop
      vertex -38.5816 73.3287 11
      vertex -38.9902 73.1669 13
      vertex -38.5816 73.3287 13
    endloop
  endfacet
  facet normal -0.368126 0.929776 0
    outer loop
      vertex -38.9902 73.1669 13
      vertex -38.5816 73.3287 11
      vertex -38.9902 73.1669 11
    endloop
  endfacet
  facet normal 0.904824 -0.425785 0
    outer loop
      vertex -34.4329 68.3139 13
      vertex -34.2458 68.7116 11
      vertex -34.2458 68.7116 13
    endloop
  endfacet
  facet normal 0.904824 -0.425785 0
    outer loop
      vertex -34.2458 68.7116 11
      vertex -34.4329 68.3139 13
      vertex -34.4329 68.3139 11
    endloop
  endfacet
  facet normal 0.904824 0.425785 0
    outer loop
      vertex -34.2458 71.2884 13
      vertex -34.4329 71.6861 11
      vertex -34.4329 71.6861 13
    endloop
  endfacet
  facet normal 0.904824 0.425785 0
    outer loop
      vertex -34.4329 71.6861 11
      vertex -34.2458 71.2884 13
      vertex -34.2458 71.2884 11
    endloop
  endfacet
  facet normal 0.982288 0.187379 0
    outer loop
      vertex -34.0276 70.4387 13
      vertex -34.11 70.8704 11
      vertex -34.11 70.8704 13
    endloop
  endfacet
  facet normal 0.982288 0.187379 0
    outer loop
      vertex -34.11 70.8704 11
      vertex -34.0276 70.4387 13
      vertex -34.0276 70.4387 11
    endloop
  endfacet
  facet normal 0.84433 0.535823 0
    outer loop
      vertex -34.4329 71.6861 13
      vertex -34.6684 72.0573 11
      vertex -34.6684 72.0573 13
    endloop
  endfacet
  facet normal 0.84433 0.535823 0
    outer loop
      vertex -34.6684 72.0573 11
      vertex -34.4329 71.6861 13
      vertex -34.4329 71.6861 11
    endloop
  endfacet
  facet normal 0.368126 0.929776 -0
    outer loop
      vertex -36.0098 73.1669 11
      vertex -36.4184 73.3287 13
      vertex -36.0098 73.1669 13
    endloop
  endfacet
  facet normal 0.368126 0.929776 0
    outer loop
      vertex -36.4184 73.3287 13
      vertex -36.0098 73.1669 11
      vertex -36.4184 73.3287 11
    endloop
  endfacet
  facet normal 0.481752 0.876307 -0
    outer loop
      vertex -35.6246 72.9551 11
      vertex -36.0098 73.1669 13
      vertex -35.6246 72.9551 13
    endloop
  endfacet
  facet normal 0.481752 0.876307 0
    outer loop
      vertex -36.0098 73.1669 13
      vertex -35.6246 72.9551 11
      vertex -36.0098 73.1669 11
    endloop
  endfacet
  facet normal -0.904824 0.425785 0
    outer loop
      vertex -40.7542 71.2884 11
      vertex -40.5671 71.6861 13
      vertex -40.5671 71.6861 11
    endloop
  endfacet
  facet normal -0.904824 0.425785 0
    outer loop
      vertex -40.5671 71.6861 13
      vertex -40.7542 71.2884 11
      vertex -40.7542 71.2884 13
    endloop
  endfacet
  facet normal -0.770511 0.637426 0
    outer loop
      vertex -40.3316 72.0573 11
      vertex -40.0514 72.3959 13
      vertex -40.0514 72.3959 11
    endloop
  endfacet
  facet normal -0.770511 0.637426 0
    outer loop
      vertex -40.0514 72.3959 13
      vertex -40.3316 72.0573 11
      vertex -40.3316 72.0573 13
    endloop
  endfacet
  facet normal -0.951057 0.309014 0
    outer loop
      vertex -40.89 70.8704 11
      vertex -40.7542 71.2884 13
      vertex -40.7542 71.2884 11
    endloop
  endfacet
  facet normal -0.951057 0.309014 0
    outer loop
      vertex -40.7542 71.2884 13
      vertex -40.89 70.8704 11
      vertex -40.89 70.8704 13
    endloop
  endfacet
  facet normal -0.248688 0.968584 0
    outer loop
      vertex -38.1558 73.438 11
      vertex -38.5816 73.3287 13
      vertex -38.1558 73.438 13
    endloop
  endfacet
  facet normal -0.248688 0.968584 0
    outer loop
      vertex -38.5816 73.3287 13
      vertex -38.1558 73.438 11
      vertex -38.5816 73.3287 11
    endloop
  endfacet
  facet normal 0.951057 0.309014 0
    outer loop
      vertex -34.11 70.8704 13
      vertex -34.2458 71.2884 11
      vertex -34.2458 71.2884 13
    endloop
  endfacet
  facet normal 0.951057 0.309014 0
    outer loop
      vertex -34.2458 71.2884 11
      vertex -34.11 70.8704 13
      vertex -34.11 70.8704 11
    endloop
  endfacet
  facet normal 0.770511 0.637426 0
    outer loop
      vertex -34.6684 72.0573 13
      vertex -34.9486 72.3959 11
      vertex -34.9486 72.3959 13
    endloop
  endfacet
  facet normal 0.770511 0.637426 0
    outer loop
      vertex -34.9486 72.3959 11
      vertex -34.6684 72.0573 13
      vertex -34.6684 72.0573 11
    endloop
  endfacet
  facet normal 0.248688 0.968584 -0
    outer loop
      vertex -36.4184 73.3287 11
      vertex -36.8442 73.438 13
      vertex -36.4184 73.3287 13
    endloop
  endfacet
  facet normal 0.248688 0.968584 0
    outer loop
      vertex -36.8442 73.438 13
      vertex -36.4184 73.3287 11
      vertex -36.8442 73.438 11
    endloop
  endfacet
  facet normal 0.125341 0.992114 -0
    outer loop
      vertex -36.8442 73.438 11
      vertex -37.2802 73.4931 13
      vertex -36.8442 73.438 13
    endloop
  endfacet
  facet normal 0.125341 0.992114 0
    outer loop
      vertex -37.2802 73.4931 13
      vertex -36.8442 73.438 11
      vertex -37.2802 73.4931 11
    endloop
  endfacet
  facet normal 0.587789 0.809014 -0
    outer loop
      vertex -35.269 72.6968 11
      vertex -35.6246 72.9551 13
      vertex -35.269 72.6968 13
    endloop
  endfacet
  facet normal 0.587789 0.809014 0
    outer loop
      vertex -35.6246 72.9551 13
      vertex -35.269 72.6968 11
      vertex -35.6246 72.9551 11
    endloop
  endfacet
  facet normal -0.84433 0.535823 0
    outer loop
      vertex -40.5671 71.6861 11
      vertex -40.3316 72.0573 13
      vertex -40.3316 72.0573 11
    endloop
  endfacet
  facet normal -0.84433 0.535823 0
    outer loop
      vertex -40.3316 72.0573 13
      vertex -40.5671 71.6861 11
      vertex -40.5671 71.6861 13
    endloop
  endfacet
  facet normal -0.982288 0.187379 0
    outer loop
      vertex -40.9724 70.4387 11
      vertex -40.89 70.8704 13
      vertex -40.89 70.8704 11
    endloop
  endfacet
  facet normal -0.982288 0.187379 0
    outer loop
      vertex -40.89 70.8704 13
      vertex -40.9724 70.4387 11
      vertex -40.9724 70.4387 13
    endloop
  endfacet
  facet normal -0 0 1
    outer loop
      vertex -39.731 72.6968 13
      vertex -39.5 67.1354 13
      vertex -39.3754 72.9551 13
    endloop
  endfacet
  facet normal -0 0 1
    outer loop
      vertex -40.0514 72.3959 13
      vertex -39.5 67.1354 13
      vertex -39.731 72.6968 13
    endloop
  endfacet
  facet normal -0 0 1
    outer loop
      vertex -40.0514 67.6041 13
      vertex -39.5 67.1354 13
      vertex -40.0514 72.3959 13
    endloop
  endfacet
  facet normal 0 0 1
    outer loop
      vertex -39.5 67.1354 13
      vertex -40.0514 67.6041 13
      vertex -39.731 67.3032 13
    endloop
  endfacet
  facet normal -0 0 1
    outer loop
      vertex -40.3316 72.0573 13
      vertex -40.0514 67.6041 13
      vertex -40.0514 72.3959 13
    endloop
  endfacet
  facet normal 0 0 1
    outer loop
      vertex -40.3316 72.0573 13
      vertex -40.3316 67.9427 13
      vertex -40.0514 67.6041 13
    endloop
  endfacet
  facet normal -0 0 1
    outer loop
      vertex -40.5671 71.6861 13
      vertex -40.3316 67.9427 13
      vertex -40.3316 72.0573 13
    endloop
  endfacet
  facet normal 0 0 1
    outer loop
      vertex -40.5671 71.6861 13
      vertex -40.5671 68.3139 13
      vertex -40.3316 67.9427 13
    endloop
  endfacet
  facet normal -0 0 1
    outer loop
      vertex -40.7542 71.2884 13
      vertex -40.5671 68.3139 13
      vertex -40.5671 71.6861 13
    endloop
  endfacet
  facet normal 0 0 1
    outer loop
      vertex -40.7542 71.2884 13
      vertex -40.7542 68.7116 13
      vertex -40.5671 68.3139 13
    endloop
  endfacet
  facet normal -0 0 1
    outer loop
      vertex -40.89 70.8704 13
      vertex -40.7542 68.7116 13
      vertex -40.7542 71.2884 13
    endloop
  endfacet
  facet normal 0 0 1
    outer loop
      vertex -40.89 70.8704 13
      vertex -40.89 69.1296 13
      vertex -40.7542 68.7116 13
    endloop
  endfacet
  facet normal -0 0 1
    outer loop
      vertex -40.9724 70.4387 13
      vertex -40.89 69.1296 13
      vertex -40.89 70.8704 13
    endloop
  endfacet
  facet normal 0 0 1
    outer loop
      vertex -40.9724 70.4387 13
      vertex -40.9724 69.5613 13
      vertex -40.89 69.1296 13
    endloop
  endfacet
  facet normal 0 -0 1
    outer loop
      vertex -40.9724 69.5613 13
      vertex -40.9724 70.4387 13
      vertex -41 70 13
    endloop
  endfacet
  facet normal 0 0 1
    outer loop
      vertex -34.0276 70.4387 13
      vertex -34.0276 69.5613 13
      vertex -34 70 13
    endloop
  endfacet
  facet normal 0 0 1
    outer loop
      vertex -34.11 70.8704 13
      vertex -34.0276 69.5613 13
      vertex -34.0276 70.4387 13
    endloop
  endfacet
  facet normal 0 0 1
    outer loop
      vertex -34.11 70.8704 13
      vertex -34.11 69.1296 13
      vertex -34.0276 69.5613 13
    endloop
  endfacet
  facet normal 0 0 1
    outer loop
      vertex -34.2458 71.2884 13
      vertex -34.11 69.1296 13
      vertex -34.11 70.8704 13
    endloop
  endfacet
  facet normal 0 0 1
    outer loop
      vertex -34.2458 71.2884 13
      vertex -34.2458 68.7116 13
      vertex -34.11 69.1296 13
    endloop
  endfacet
  facet normal 0 0 1
    outer loop
      vertex -34.4329 71.6861 13
      vertex -34.2458 68.7116 13
      vertex -34.2458 71.2884 13
    endloop
  endfacet
  facet normal 0 0 1
    outer loop
      vertex -34.4329 71.6861 13
      vertex -34.4329 68.3139 13
      vertex -34.2458 68.7116 13
    endloop
  endfacet
  facet normal 0 0 1
    outer loop
      vertex -34.6684 72.0573 13
      vertex -34.4329 68.3139 13
      vertex -34.4329 71.6861 13
    endloop
  endfacet
  facet normal 0 0 1
    outer loop
      vertex -34.6684 72.0573 13
      vertex -34.6684 67.9427 13
      vertex -34.4329 68.3139 13
    endloop
  endfacet
  facet normal 0 0 1
    outer loop
      vertex -34.9486 72.3959 13
      vertex -34.6684 67.9427 13
      vertex -34.6684 72.0573 13
    endloop
  endfacet
  facet normal 0 0 1
    outer loop
      vertex -34.9486 72.3959 13
      vertex -34.9486 67.6041 13
      vertex -34.6684 67.9427 13
    endloop
  endfacet
  facet normal 0 0 1
    outer loop
      vertex -35.269 72.6968 13
      vertex -34.9486 67.6041 13
      vertex -34.9486 72.3959 13
    endloop
  endfacet
  facet normal 0 0 1
    outer loop
      vertex -35.5 67.1354 13
      vertex -34.9486 67.6041 13
      vertex -35.269 72.6968 13
    endloop
  endfacet
  facet normal 0 0 1
    outer loop
      vertex -34.9486 67.6041 13
      vertex -35.5 67.1354 13
      vertex -35.269 67.3032 13
    endloop
  endfacet
  facet normal 0 0 1
    outer loop
      vertex -35.6246 72.9551 13
      vertex -35.5 67.1354 13
      vertex -35.269 72.6968 13
    endloop
  endfacet
  facet normal 0 0 1
    outer loop
      vertex -39.5 67.1354 13
      vertex -35.5 67.1354 13
      vertex -35.6246 72.9551 13
    endloop
  endfacet
  facet normal 0 0 1
    outer loop
      vertex -39.5 67.1354 13
      vertex -35.6246 72.9551 13
      vertex -36.0098 73.1669 13
    endloop
  endfacet
  facet normal 0 0 1
    outer loop
      vertex -39.5 67.1354 13
      vertex -36.0098 73.1669 13
      vertex -36.4184 73.3287 13
    endloop
  endfacet
  facet normal 0 0 1
    outer loop
      vertex -39.5 67.1354 13
      vertex -36.4184 73.3287 13
      vertex -36.8442 73.438 13
    endloop
  endfacet
  facet normal 0 0 1
    outer loop
      vertex -39.5 67.1354 13
      vertex -36.8442 73.438 13
      vertex -37.2802 73.4931 13
    endloop
  endfacet
  facet normal 0 0 1
    outer loop
      vertex -39.5 67.1354 13
      vertex -37.2802 73.4931 13
      vertex -37.7198 73.4931 13
    endloop
  endfacet
  facet normal 0 0 1
    outer loop
      vertex -39.5 67.1354 13
      vertex -37.7198 73.4931 13
      vertex -38.1558 73.438 13
    endloop
  endfacet
  facet normal 0 0 1
    outer loop
      vertex -39.5 67.1354 13
      vertex -38.1558 73.438 13
      vertex -38.5816 73.3287 13
    endloop
  endfacet
  facet normal 0 0 1
    outer loop
      vertex -39.5 67.1354 13
      vertex -38.5816 73.3287 13
      vertex -38.9902 73.1669 13
    endloop
  endfacet
  facet normal 0 0 1
    outer loop
      vertex -39.5 67.1354 13
      vertex -38.9902 73.1669 13
      vertex -39.3754 72.9551 13
    endloop
  endfacet
  facet normal 0 0 1
    outer loop
      vertex -35.5 67.1354 13
      vertex -39.5 67.1354 13
      vertex -35.5 66.5 13
    endloop
  endfacet
  facet normal 0 0 1
    outer loop
      vertex -35.5 66.5 13
      vertex -39.5 67.1354 13
      vertex -39.5 66.5 13
    endloop
  endfacet
  facet normal -0.481752 0.876307 0
    outer loop
      vertex -38.9902 73.1669 11
      vertex -39.3754 72.9551 13
      vertex -38.9902 73.1669 13
    endloop
  endfacet
  facet normal -0.481752 0.876307 0
    outer loop
      vertex -39.3754 72.9551 13
      vertex -38.9902 73.1669 11
      vertex -39.3754 72.9551 11
    endloop
  endfacet
  facet normal -0.587789 0.809014 0
    outer loop
      vertex -39.3754 72.9551 11
      vertex -39.731 72.6968 13
      vertex -39.3754 72.9551 13
    endloop
  endfacet
  facet normal -0.587789 0.809014 0
    outer loop
      vertex -39.731 72.6968 13
      vertex -39.3754 72.9551 11
      vertex -39.731 72.6968 11
    endloop
  endfacet
  facet normal -0.125341 0.992114 0
    outer loop
      vertex -37.7198 73.4931 11
      vertex -38.1558 73.438 13
      vertex -37.7198 73.4931 13
    endloop
  endfacet
  facet normal -0.125341 0.992114 0
    outer loop
      vertex -38.1558 73.438 13
      vertex -37.7198 73.4931 11
      vertex -38.1558 73.438 11
    endloop
  endfacet
  facet normal 0.998027 -0.0627922 0
    outer loop
      vertex -34.0276 69.5613 13
      vertex -34 70 11
      vertex -34 70 13
    endloop
  endfacet
  facet normal 0.998027 -0.0627922 0
    outer loop
      vertex -34 70 11
      vertex -34.0276 69.5613 13
      vertex -34.0276 69.5613 11
    endloop
  endfacet
  facet normal 0.770511 -0.637426 0
    outer loop
      vertex -34.9486 67.6041 13
      vertex -34.6684 67.9427 11
      vertex -34.6684 67.9427 13
    endloop
  endfacet
  facet normal 0.770511 -0.637426 0
    outer loop
      vertex -34.6684 67.9427 11
      vertex -34.9486 67.6041 13
      vertex -34.9486 67.6041 11
    endloop
  endfacet
  facet normal 0.951057 -0.309014 0
    outer loop
      vertex -34.2458 68.7116 13
      vertex -34.11 69.1296 11
      vertex -34.11 69.1296 13
    endloop
  endfacet
  facet normal 0.951057 -0.309014 0
    outer loop
      vertex -34.11 69.1296 11
      vertex -34.2458 68.7116 13
      vertex -34.2458 68.7116 11
    endloop
  endfacet
  facet normal 0.982288 -0.187379 0
    outer loop
      vertex -34.11 69.1296 13
      vertex -34.0276 69.5613 11
      vertex -34.0276 69.5613 13
    endloop
  endfacet
  facet normal 0.982288 -0.187379 0
    outer loop
      vertex -34.0276 69.5613 11
      vertex -34.11 69.1296 13
      vertex -34.11 69.1296 11
    endloop
  endfacet
  facet normal 0 0 -1
    outer loop
      vertex -39.5 67.1354 11
      vertex -39.731 67.3032 11
      vertex -39.5 70 11
    endloop
  endfacet
  facet normal 0 0 -1
    outer loop
      vertex -35.5 70 11
      vertex -34 70 11
      vertex -34.0276 69.5613 11
    endloop
  endfacet
  facet normal 0 0 -1
    outer loop
      vertex -35.5 70 11
      vertex -34.0276 69.5613 11
      vertex -34.11 69.1296 11
    endloop
  endfacet
  facet normal 0 0 -1
    outer loop
      vertex -34 70 11
      vertex -35.5 70 11
      vertex -34.0276 70.4387 11
    endloop
  endfacet
  facet normal 0 0 -1
    outer loop
      vertex -35.5 70 11
      vertex -34.11 69.1296 11
      vertex -34.2458 68.7116 11
    endloop
  endfacet
  facet normal 0 0 -1
    outer loop
      vertex -35.5158 70.2507 11
      vertex -34.0276 70.4387 11
      vertex -35.5 70 11
    endloop
  endfacet
  facet normal 0 0 -1
    outer loop
      vertex -35.5 70 11
      vertex -34.2458 68.7116 11
      vertex -34.4329 68.3139 11
    endloop
  endfacet
  facet normal -0 0 -1
    outer loop
      vertex -34.0276 70.4387 11
      vertex -35.5158 70.2507 11
      vertex -34.11 70.8704 11
    endloop
  endfacet
  facet normal 0 0 -1
    outer loop
      vertex -35.5 70 11
      vertex -34.4329 68.3139 11
      vertex -34.6684 67.9427 11
    endloop
  endfacet
  facet normal 0 0 -1
    outer loop
      vertex -35.5628 70.4974 11
      vertex -34.11 70.8704 11
      vertex -35.5158 70.2507 11
    endloop
  endfacet
  facet normal 0 0 -1
    outer loop
      vertex -35.5 70 11
      vertex -34.6684 67.9427 11
      vertex -34.9486 67.6041 11
    endloop
  endfacet
  facet normal -0 0 -1
    outer loop
      vertex -34.11 70.8704 11
      vertex -35.5628 70.4974 11
      vertex -34.2458 71.2884 11
    endloop
  endfacet
  facet normal 0 0 -1
    outer loop
      vertex -35.5 70 11
      vertex -34.9486 67.6041 11
      vertex -35.269 67.3032 11
    endloop
  endfacet
  facet normal 0 0 -1
    outer loop
      vertex -35.6404 70.7363 11
      vertex -34.2458 71.2884 11
      vertex -35.5628 70.4974 11
    endloop
  endfacet
  facet normal 0 0 -1
    outer loop
      vertex -35.5 70 11
      vertex -35.269 67.3032 11
      vertex -35.5 67.1354 11
    endloop
  endfacet
  facet normal -0 0 -1
    outer loop
      vertex -34.2458 71.2884 11
      vertex -35.6404 70.7363 11
      vertex -34.4329 71.6861 11
    endloop
  endfacet
  facet normal 0 0 -1
    outer loop
      vertex -35.7474 70.9635 11
      vertex -34.4329 71.6861 11
      vertex -35.6404 70.7363 11
    endloop
  endfacet
  facet normal -0 0 -1
    outer loop
      vertex -34.4329 71.6861 11
      vertex -35.7474 70.9635 11
      vertex -34.6684 72.0573 11
    endloop
  endfacet
  facet normal 0 0 -1
    outer loop
      vertex -35.882 71.1756 11
      vertex -34.6684 72.0573 11
      vertex -35.7474 70.9635 11
    endloop
  endfacet
  facet normal -0 0 -1
    outer loop
      vertex -34.6684 72.0573 11
      vertex -35.882 71.1756 11
      vertex -34.9486 72.3959 11
    endloop
  endfacet
  facet normal 0 0 -1
    outer loop
      vertex -36.0421 71.3691 11
      vertex -34.9486 72.3959 11
      vertex -35.882 71.1756 11
    endloop
  endfacet
  facet normal -0 0 -1
    outer loop
      vertex -34.9486 72.3959 11
      vertex -36.0421 71.3691 11
      vertex -35.269 72.6968 11
    endloop
  endfacet
  facet normal 0 0 -1
    outer loop
      vertex -36.2252 71.541 11
      vertex -35.269 72.6968 11
      vertex -36.0421 71.3691 11
    endloop
  endfacet
  facet normal -0 0 -1
    outer loop
      vertex -35.269 72.6968 11
      vertex -36.2252 71.541 11
      vertex -35.6246 72.9551 11
    endloop
  endfacet
  facet normal 0 0 -1
    outer loop
      vertex -36.4283 71.6887 11
      vertex -35.6246 72.9551 11
      vertex -36.2252 71.541 11
    endloop
  endfacet
  facet normal -0 0 -1
    outer loop
      vertex -35.6246 72.9551 11
      vertex -36.4283 71.6887 11
      vertex -36.0098 73.1669 11
    endloop
  endfacet
  facet normal 0 0 -1
    outer loop
      vertex -36.6484 71.8097 11
      vertex -36.0098 73.1669 11
      vertex -36.4283 71.6887 11
    endloop
  endfacet
  facet normal -0 0 -1
    outer loop
      vertex -36.0098 73.1669 11
      vertex -36.6484 71.8097 11
      vertex -36.4184 73.3287 11
    endloop
  endfacet
  facet normal 0 0 -1
    outer loop
      vertex -36.882 71.9021 11
      vertex -36.4184 73.3287 11
      vertex -36.6484 71.8097 11
    endloop
  endfacet
  facet normal -0 0 -1
    outer loop
      vertex -36.4184 73.3287 11
      vertex -36.882 71.9021 11
      vertex -36.8442 73.438 11
    endloop
  endfacet
  facet normal 0 0 -1
    outer loop
      vertex -37.1252 71.9646 11
      vertex -36.8442 73.438 11
      vertex -36.882 71.9021 11
    endloop
  endfacet
  facet normal 0 0 -1
    outer loop
      vertex -37.1252 71.9646 11
      vertex -37.2802 73.4931 11
      vertex -36.8442 73.438 11
    endloop
  endfacet
  facet normal 0 0 -1
    outer loop
      vertex -37.3744 71.9961 11
      vertex -37.2802 73.4931 11
      vertex -37.1252 71.9646 11
    endloop
  endfacet
  facet normal 0 0 -1
    outer loop
      vertex -37.6256 71.9961 11
      vertex -37.2802 73.4931 11
      vertex -37.3744 71.9961 11
    endloop
  endfacet
  facet normal 0 0 -1
    outer loop
      vertex -37.6256 71.9961 11
      vertex -37.7198 73.4931 11
      vertex -37.2802 73.4931 11
    endloop
  endfacet
  facet normal 0 0 -1
    outer loop
      vertex -37.8748 71.9646 11
      vertex -37.7198 73.4931 11
      vertex -37.6256 71.9961 11
    endloop
  endfacet
  facet normal 0 0 -1
    outer loop
      vertex -38.1558 73.438 11
      vertex -37.8748 71.9646 11
      vertex -38.118 71.9021 11
    endloop
  endfacet
  facet normal 0 0 -1
    outer loop
      vertex -37.8748 71.9646 11
      vertex -38.1558 73.438 11
      vertex -37.7198 73.4931 11
    endloop
  endfacet
  facet normal 0 0 -1
    outer loop
      vertex -38.5816 73.3287 11
      vertex -38.118 71.9021 11
      vertex -38.3516 71.8097 11
    endloop
  endfacet
  facet normal 0 0 -1
    outer loop
      vertex -38.9902 73.1669 11
      vertex -38.3516 71.8097 11
      vertex -38.5717 71.6887 11
    endloop
  endfacet
  facet normal 0 0 -1
    outer loop
      vertex -38.118 71.9021 11
      vertex -38.5816 73.3287 11
      vertex -38.1558 73.438 11
    endloop
  endfacet
  facet normal 0 0 -1
    outer loop
      vertex -39.3754 72.9551 11
      vertex -38.5717 71.6887 11
      vertex -38.7748 71.541 11
    endloop
  endfacet
  facet normal 0 0 -1
    outer loop
      vertex -39.731 72.6968 11
      vertex -38.7748 71.541 11
      vertex -38.9579 71.3691 11
    endloop
  endfacet
  facet normal 0 0 -1
    outer loop
      vertex -38.3516 71.8097 11
      vertex -38.9902 73.1669 11
      vertex -38.5816 73.3287 11
    endloop
  endfacet
  facet normal 0 0 -1
    outer loop
      vertex -40.0514 72.3959 11
      vertex -38.9579 71.3691 11
      vertex -39.118 71.1756 11
    endloop
  endfacet
  facet normal 0 0 -1
    outer loop
      vertex -40.3316 72.0573 11
      vertex -39.118 71.1756 11
      vertex -39.2526 70.9635 11
    endloop
  endfacet
  facet normal 0 0 -1
    outer loop
      vertex -40.5671 71.6861 11
      vertex -39.2526 70.9635 11
      vertex -39.3596 70.7363 11
    endloop
  endfacet
  facet normal 0 0 -1
    outer loop
      vertex -38.5717 71.6887 11
      vertex -39.3754 72.9551 11
      vertex -38.9902 73.1669 11
    endloop
  endfacet
  facet normal 0 0 -1
    outer loop
      vertex -40.7542 71.2884 11
      vertex -39.3596 70.7363 11
      vertex -39.4372 70.4974 11
    endloop
  endfacet
  facet normal 0 0 -1
    outer loop
      vertex -40.89 70.8704 11
      vertex -39.4372 70.4974 11
      vertex -39.4842 70.2507 11
    endloop
  endfacet
  facet normal 0 0 -1
    outer loop
      vertex -40.9724 70.4387 11
      vertex -39.4842 70.2507 11
      vertex -39.5 70 11
    endloop
  endfacet
  facet normal 0 0 -1
    outer loop
      vertex -40.0514 67.6041 11
      vertex -39.5 70 11
      vertex -39.731 67.3032 11
    endloop
  endfacet
  facet normal 0 0 -1
    outer loop
      vertex -38.7748 71.541 11
      vertex -39.731 72.6968 11
      vertex -39.3754 72.9551 11
    endloop
  endfacet
  facet normal 0 0 -1
    outer loop
      vertex -40.3316 67.9427 11
      vertex -39.5 70 11
      vertex -40.0514 67.6041 11
    endloop
  endfacet
  facet normal 0 0 -1
    outer loop
      vertex -38.9579 71.3691 11
      vertex -40.0514 72.3959 11
      vertex -39.731 72.6968 11
    endloop
  endfacet
  facet normal 0 0 -1
    outer loop
      vertex -40.5671 68.3139 11
      vertex -39.5 70 11
      vertex -40.3316 67.9427 11
    endloop
  endfacet
  facet normal 0 0 -1
    outer loop
      vertex -39.118 71.1756 11
      vertex -40.3316 72.0573 11
      vertex -40.0514 72.3959 11
    endloop
  endfacet
  facet normal 0 0 -1
    outer loop
      vertex -40.7542 68.7116 11
      vertex -39.5 70 11
      vertex -40.5671 68.3139 11
    endloop
  endfacet
  facet normal 0 0 -1
    outer loop
      vertex -39.2526 70.9635 11
      vertex -40.5671 71.6861 11
      vertex -40.3316 72.0573 11
    endloop
  endfacet
  facet normal 0 0 -1
    outer loop
      vertex -40.89 69.1296 11
      vertex -39.5 70 11
      vertex -40.7542 68.7116 11
    endloop
  endfacet
  facet normal 0 0 -1
    outer loop
      vertex -39.3596 70.7363 11
      vertex -40.7542 71.2884 11
      vertex -40.5671 71.6861 11
    endloop
  endfacet
  facet normal 0 0 -1
    outer loop
      vertex -40.9724 69.5613 11
      vertex -39.5 70 11
      vertex -40.89 69.1296 11
    endloop
  endfacet
  facet normal 0 0 -1
    outer loop
      vertex -39.4372 70.4974 11
      vertex -40.89 70.8704 11
      vertex -40.7542 71.2884 11
    endloop
  endfacet
  facet normal 0 0 -1
    outer loop
      vertex -41 70 11
      vertex -39.5 70 11
      vertex -40.9724 69.5613 11
    endloop
  endfacet
  facet normal 0 0 -1
    outer loop
      vertex -39.4842 70.2507 11
      vertex -40.9724 70.4387 11
      vertex -40.89 70.8704 11
    endloop
  endfacet
  facet normal 0 0 -1
    outer loop
      vertex -39.5 70 11
      vertex -41 70 11
      vertex -40.9724 70.4387 11
    endloop
  endfacet
  facet normal 0.684544 -0.728972 0
    outer loop
      vertex -35.269 67.3032 11
      vertex -34.9486 67.6041 13
      vertex -35.269 67.3032 13
    endloop
  endfacet
  facet normal 0.684544 -0.728972 0
    outer loop
      vertex -34.9486 67.6041 13
      vertex -35.269 67.3032 11
      vertex -34.9486 67.6041 11
    endloop
  endfacet
  facet normal 0.84433 -0.535823 0
    outer loop
      vertex -34.6684 67.9427 13
      vertex -34.4329 68.3139 11
      vertex -34.4329 68.3139 13
    endloop
  endfacet
  facet normal 0.84433 -0.535823 0
    outer loop
      vertex -34.4329 68.3139 11
      vertex -34.6684 67.9427 13
      vertex -34.6684 67.9427 11
    endloop
  endfacet
  facet normal -0.951057 -0.309014 0
    outer loop
      vertex -40.7542 68.7116 11
      vertex -40.89 69.1296 13
      vertex -40.89 69.1296 11
    endloop
  endfacet
  facet normal -0.951057 -0.309014 0
    outer loop
      vertex -40.89 69.1296 13
      vertex -40.7542 68.7116 11
      vertex -40.7542 68.7116 13
    endloop
  endfacet
  facet normal -0.770511 -0.637426 0
    outer loop
      vertex -40.0514 67.6041 11
      vertex -40.3316 67.9427 13
      vertex -40.3316 67.9427 11
    endloop
  endfacet
  facet normal -0.770511 -0.637426 0
    outer loop
      vertex -40.3316 67.9427 13
      vertex -40.0514 67.6041 11
      vertex -40.0514 67.6041 13
    endloop
  endfacet
  facet normal -0.684544 -0.728972 0
    outer loop
      vertex -40.0514 67.6041 11
      vertex -39.731 67.3032 13
      vertex -40.0514 67.6041 13
    endloop
  endfacet
  facet normal -0.684544 -0.728972 -0
    outer loop
      vertex -39.731 67.3032 13
      vertex -40.0514 67.6041 11
      vertex -39.731 67.3032 11
    endloop
  endfacet
  facet normal -0.904824 -0.425785 0
    outer loop
      vertex -40.5671 68.3139 11
      vertex -40.7542 68.7116 13
      vertex -40.7542 68.7116 11
    endloop
  endfacet
  facet normal -0.904824 -0.425785 0
    outer loop
      vertex -40.7542 68.7116 13
      vertex -40.5671 68.3139 11
      vertex -40.5671 68.3139 13
    endloop
  endfacet
  facet normal -0.982288 -0.187379 0
    outer loop
      vertex -40.89 69.1296 11
      vertex -40.9724 69.5613 13
      vertex -40.9724 69.5613 11
    endloop
  endfacet
  facet normal -0.982288 -0.187379 0
    outer loop
      vertex -40.9724 69.5613 13
      vertex -40.89 69.1296 11
      vertex -40.89 69.1296 13
    endloop
  endfacet
  facet normal -0.998027 -0.0627922 0
    outer loop
      vertex -40.9724 69.5613 11
      vertex -41 70 13
      vertex -41 70 11
    endloop
  endfacet
  facet normal -0.998027 -0.0627922 0
    outer loop
      vertex -41 70 13
      vertex -40.9724 69.5613 11
      vertex -40.9724 69.5613 13
    endloop
  endfacet
  facet normal 0.587795 -0.80901 0
    outer loop
      vertex -35.5 67.1354 11
      vertex -35.269 67.3032 13
      vertex -35.5 67.1354 13
    endloop
  endfacet
  facet normal 0.587795 -0.80901 0
    outer loop
      vertex -35.269 67.3032 13
      vertex -35.5 67.1354 11
      vertex -35.269 67.3032 11
    endloop
  endfacet
  facet normal -0.587795 -0.80901 0
    outer loop
      vertex -39.731 67.3032 11
      vertex -39.5 67.1354 13
      vertex -39.731 67.3032 13
    endloop
  endfacet
  facet normal -0.587795 -0.80901 -0
    outer loop
      vertex -39.5 67.1354 13
      vertex -39.731 67.3032 11
      vertex -39.5 67.1354 11
    endloop
  endfacet
  facet normal -0.84433 -0.535823 0
    outer loop
      vertex -40.3316 67.9427 11
      vertex -40.5671 68.3139 13
      vertex -40.5671 68.3139 11
    endloop
  endfacet
  facet normal -0.84433 -0.535823 0
    outer loop
      vertex -40.5671 68.3139 13
      vertex -40.3316 67.9427 11
      vertex -40.3316 67.9427 13
    endloop
  endfacet
  facet normal 0.998027 0.0627887 0
    outer loop
      vertex -35.5 70 11
      vertex -35.5158 70.2507 7
      vertex -35.5158 70.2507 11
    endloop
  endfacet
  facet normal 0.998027 0.0627887 0
    outer loop
      vertex -35.5158 70.2507 7
      vertex -35.5 70 11
      vertex -35.5 70 7
    endloop
  endfacet
  facet normal 0 0 1
    outer loop
      vertex 39.5 61.5 7
      vertex 47.5 75 7
      vertex 39.5 70 7
    endloop
  endfacet
  facet normal 0 0 1
    outer loop
      vertex 47.5 75 7
      vertex 39.4842 70.2507 7
      vertex 39.5 70 7
    endloop
  endfacet
  facet normal 0 0 1
    outer loop
      vertex 47.5 75 7
      vertex 39.4372 70.4974 7
      vertex 39.4842 70.2507 7
    endloop
  endfacet
  facet normal 0 0 1
    outer loop
      vertex 47.5 75 7
      vertex 39.3596 70.7363 7
      vertex 39.4372 70.4974 7
    endloop
  endfacet
  facet normal 0 0 1
    outer loop
      vertex 47.5 75 7
      vertex 39.2526 70.9635 7
      vertex 39.3596 70.7363 7
    endloop
  endfacet
  facet normal 0 0 1
    outer loop
      vertex 47.5 75 7
      vertex 39.118 71.1756 7
      vertex 39.2526 70.9635 7
    endloop
  endfacet
  facet normal 0 0 1
    outer loop
      vertex 47.5 75 7
      vertex 38.9579 71.3691 7
      vertex 39.118 71.1756 7
    endloop
  endfacet
  facet normal 0 0 1
    outer loop
      vertex 47.5 75 7
      vertex 38.7748 71.541 7
      vertex 38.9579 71.3691 7
    endloop
  endfacet
  facet normal 0 0 1
    outer loop
      vertex 47.5 75 7
      vertex 38.5717 71.6887 7
      vertex 38.7748 71.541 7
    endloop
  endfacet
  facet normal 0 0 1
    outer loop
      vertex 47.5 75 7
      vertex 38.3516 71.8097 7
      vertex 38.5717 71.6887 7
    endloop
  endfacet
  facet normal 0 0 1
    outer loop
      vertex 47.5 75 7
      vertex 38.118 71.9021 7
      vertex 38.3516 71.8097 7
    endloop
  endfacet
  facet normal 0 0 1
    outer loop
      vertex 47.5 75 7
      vertex 37.8748 71.9646 7
      vertex 38.118 71.9021 7
    endloop
  endfacet
  facet normal 0 0 1
    outer loop
      vertex 47.5 75 7
      vertex 37.6256 71.9961 7
      vertex 37.8748 71.9646 7
    endloop
  endfacet
  facet normal 0 0 1
    outer loop
      vertex 47.5 75 7
      vertex 37.3744 71.9961 7
      vertex 37.6256 71.9961 7
    endloop
  endfacet
  facet normal 0 0 1
    outer loop
      vertex 47.5 75 7
      vertex 37.1252 71.9646 7
      vertex 37.3744 71.9961 7
    endloop
  endfacet
  facet normal 0 0 1
    outer loop
      vertex 47.5 75 7
      vertex 36.882 71.9021 7
      vertex 37.1252 71.9646 7
    endloop
  endfacet
  facet normal 0 0 1
    outer loop
      vertex 35.5 70 7
      vertex -35.5 70 7
      vertex 35.5 61.5 7
    endloop
  endfacet
  facet normal 0 0 1
    outer loop
      vertex 35.5158 70.2507 7
      vertex -35.5 70 7
      vertex 35.5 70 7
    endloop
  endfacet
  facet normal 0 0 1
    outer loop
      vertex -35.5158 70.2507 7
      vertex 35.5158 70.2507 7
      vertex 35.5628 70.4974 7
    endloop
  endfacet
  facet normal 0 0 1
    outer loop
      vertex -35.5628 70.4974 7
      vertex 35.5628 70.4974 7
      vertex 35.6404 70.7363 7
    endloop
  endfacet
  facet normal 0 0 1
    outer loop
      vertex -35.6404 70.7363 7
      vertex 35.6404 70.7363 7
      vertex 35.7474 70.9635 7
    endloop
  endfacet
  facet normal 0 0 1
    outer loop
      vertex -35.7474 70.9635 7
      vertex 35.7474 70.9635 7
      vertex 35.882 71.1756 7
    endloop
  endfacet
  facet normal 0 0 1
    outer loop
      vertex -35.882 71.1756 7
      vertex 35.882 71.1756 7
      vertex 36.0421 71.3691 7
    endloop
  endfacet
  facet normal 0 0 1
    outer loop
      vertex -36.0421 71.3691 7
      vertex 36.0421 71.3691 7
      vertex 36.2252 71.541 7
    endloop
  endfacet
  facet normal 0 0 1
    outer loop
      vertex -36.2252 71.541 7
      vertex 36.2252 71.541 7
      vertex 36.4283 71.6887 7
    endloop
  endfacet
  facet normal 0 0 1
    outer loop
      vertex -36.4283 71.6887 7
      vertex 36.4283 71.6887 7
      vertex 36.6484 71.8097 7
    endloop
  endfacet
  facet normal 0 0 1
    outer loop
      vertex -36.6484 71.8097 7
      vertex 36.6484 71.8097 7
      vertex 36.882 71.9021 7
    endloop
  endfacet
  facet normal 0 0 1
    outer loop
      vertex -36.882 71.9021 7
      vertex 36.882 71.9021 7
      vertex 47.5 75 7
    endloop
  endfacet
  facet normal 0 0 1
    outer loop
      vertex 35.5158 70.2507 7
      vertex -35.5158 70.2507 7
      vertex -35.5 70 7
    endloop
  endfacet
  facet normal 0 0 1
    outer loop
      vertex 35.5628 70.4974 7
      vertex -35.5628 70.4974 7
      vertex -35.5158 70.2507 7
    endloop
  endfacet
  facet normal 0 0 1
    outer loop
      vertex 35.6404 70.7363 7
      vertex -35.6404 70.7363 7
      vertex -35.5628 70.4974 7
    endloop
  endfacet
  facet normal 0 0 1
    outer loop
      vertex 35.7474 70.9635 7
      vertex -35.7474 70.9635 7
      vertex -35.6404 70.7363 7
    endloop
  endfacet
  facet normal 0 0 1
    outer loop
      vertex 35.882 71.1756 7
      vertex -35.882 71.1756 7
      vertex -35.7474 70.9635 7
    endloop
  endfacet
  facet normal 0 0 1
    outer loop
      vertex 36.0421 71.3691 7
      vertex -36.0421 71.3691 7
      vertex -35.882 71.1756 7
    endloop
  endfacet
  facet normal 0 0 1
    outer loop
      vertex 36.2252 71.541 7
      vertex -36.2252 71.541 7
      vertex -36.0421 71.3691 7
    endloop
  endfacet
  facet normal 0 0 1
    outer loop
      vertex 36.4283 71.6887 7
      vertex -36.4283 71.6887 7
      vertex -36.2252 71.541 7
    endloop
  endfacet
  facet normal 0 0 1
    outer loop
      vertex 36.6484 71.8097 7
      vertex -36.6484 71.8097 7
      vertex -36.4283 71.6887 7
    endloop
  endfacet
  facet normal 0 0 1
    outer loop
      vertex 36.882 71.9021 7
      vertex -36.882 71.9021 7
      vertex -36.6484 71.8097 7
    endloop
  endfacet
  facet normal 0 0 1
    outer loop
      vertex 47.5 75 7
      vertex -37.1252 71.9646 7
      vertex -36.882 71.9021 7
    endloop
  endfacet
  facet normal -0 0 1
    outer loop
      vertex -47.5 75 7
      vertex -37.1252 71.9646 7
      vertex 47.5 75 7
    endloop
  endfacet
  facet normal 0 0 1
    outer loop
      vertex -37.1252 71.9646 7
      vertex -47.5 75 7
      vertex -37.3744 71.9961 7
    endloop
  endfacet
  facet normal 0 0 1
    outer loop
      vertex -39.5 70 7
      vertex -47.5 75 7
      vertex -39.5 61.5 7
    endloop
  endfacet
  facet normal 0 0 1
    outer loop
      vertex -39.4842 70.2507 7
      vertex -47.5 75 7
      vertex -39.5 70 7
    endloop
  endfacet
  facet normal 0 0 1
    outer loop
      vertex -39.4372 70.4974 7
      vertex -47.5 75 7
      vertex -39.4842 70.2507 7
    endloop
  endfacet
  facet normal 0 0 1
    outer loop
      vertex -39.3596 70.7363 7
      vertex -47.5 75 7
      vertex -39.4372 70.4974 7
    endloop
  endfacet
  facet normal 0 0 1
    outer loop
      vertex -39.2526 70.9635 7
      vertex -47.5 75 7
      vertex -39.3596 70.7363 7
    endloop
  endfacet
  facet normal 0 0 1
    outer loop
      vertex -39.118 71.1756 7
      vertex -47.5 75 7
      vertex -39.2526 70.9635 7
    endloop
  endfacet
  facet normal 0 0 1
    outer loop
      vertex -38.9579 71.3691 7
      vertex -47.5 75 7
      vertex -39.118 71.1756 7
    endloop
  endfacet
  facet normal 0 0 1
    outer loop
      vertex -38.7748 71.541 7
      vertex -47.5 75 7
      vertex -38.9579 71.3691 7
    endloop
  endfacet
  facet normal 0 0 1
    outer loop
      vertex -38.5717 71.6887 7
      vertex -47.5 75 7
      vertex -38.7748 71.541 7
    endloop
  endfacet
  facet normal 0 0 1
    outer loop
      vertex -38.3516 71.8097 7
      vertex -47.5 75 7
      vertex -38.5717 71.6887 7
    endloop
  endfacet
  facet normal 0 0 1
    outer loop
      vertex -38.118 71.9021 7
      vertex -47.5 75 7
      vertex -38.3516 71.8097 7
    endloop
  endfacet
  facet normal 0 0 1
    outer loop
      vertex -37.8748 71.9646 7
      vertex -47.5 75 7
      vertex -38.118 71.9021 7
    endloop
  endfacet
  facet normal 0 0 1
    outer loop
      vertex -37.6256 71.9961 7
      vertex -47.5 75 7
      vertex -37.8748 71.9646 7
    endloop
  endfacet
  facet normal 0 0 1
    outer loop
      vertex -37.3744 71.9961 7
      vertex -47.5 75 7
      vertex -37.6256 71.9961 7
    endloop
  endfacet
  facet normal 0 0 1
    outer loop
      vertex 47.5 75 7
      vertex 39.5 61.5 7
      vertex 47.5 0 7
    endloop
  endfacet
  facet normal -0 0 1
    outer loop
      vertex 35.5 61.5 7
      vertex 47.5 0 7
      vertex 39.5 61.5 7
    endloop
  endfacet
  facet normal 0 0 1
    outer loop
      vertex -35.5 61.5 7
      vertex 35.5 61.5 7
      vertex -35.5 70 7
    endloop
  endfacet
  facet normal 0 0 1
    outer loop
      vertex 35.5 61.5 7
      vertex -35.5 61.5 7
      vertex 47.5 0 7
    endloop
  endfacet
  facet normal 0 0 1
    outer loop
      vertex -47.5 0 7
      vertex -35.5 61.5 7
      vertex -39.5 61.5 7
    endloop
  endfacet
  facet normal 0 0 1
    outer loop
      vertex -35.5 61.5 7
      vertex -47.5 0 7
      vertex 47.5 0 7
    endloop
  endfacet
  facet normal 0 0 1
    outer loop
      vertex -47.5 0 7
      vertex -39.5 61.5 7
      vertex -47.5 75 7
    endloop
  endfacet
  facet normal 1 0 0
    outer loop
      vertex -35.5 67.1354 13
      vertex -35.5 66.5 13
      vertex -35.5 67.1354 11
    endloop
  endfacet
  facet normal 1 -0 0
    outer loop
      vertex -35.5 67.1354 11
      vertex -35.5 70 7
      vertex -35.5 70 11
    endloop
  endfacet
  facet normal 1 0 0
    outer loop
      vertex -35.5 67.1354 11
      vertex -35.5 61.5 7
      vertex -35.5 70 7
    endloop
  endfacet
  facet normal 1 0 0
    outer loop
      vertex -35.5 61.5 7
      vertex -35.5 67.1354 11
      vertex -35.5 66.5 13
    endloop
  endfacet
  facet normal 0.684537 0.728978 -0
    outer loop
      vertex -36.0421 71.3691 7
      vertex -36.2252 71.541 11
      vertex -36.0421 71.3691 11
    endloop
  endfacet
  facet normal 0.684537 0.728978 0
    outer loop
      vertex -36.2252 71.541 11
      vertex -36.0421 71.3691 7
      vertex -36.2252 71.541 7
    endloop
  endfacet
  facet normal -0.125332 0.992115 0
    outer loop
      vertex -37.6256 71.9961 7
      vertex -37.8748 71.9646 11
      vertex -37.6256 71.9961 11
    endloop
  endfacet
  facet normal -0.125332 0.992115 0
    outer loop
      vertex -37.8748 71.9646 11
      vertex -37.6256 71.9961 7
      vertex -37.8748 71.9646 7
    endloop
  endfacet
  facet normal -0.684537 0.728978 0
    outer loop
      vertex -38.7748 71.541 7
      vertex -38.9579 71.3691 11
      vertex -38.7748 71.541 11
    endloop
  endfacet
  facet normal -0.684537 0.728978 0
    outer loop
      vertex -38.9579 71.3691 11
      vertex -38.7748 71.541 7
      vertex -38.9579 71.3691 7
    endloop
  endfacet
  facet normal 0 -0.768221 0.640184
    outer loop
      vertex -39.5 61.5 7
      vertex -35.5 66.5 13
      vertex -39.5 66.5 13
    endloop
  endfacet
  facet normal 0 -0.768221 0.640184
    outer loop
      vertex -35.5 66.5 13
      vertex -39.5 61.5 7
      vertex -35.5 61.5 7
    endloop
  endfacet
  facet normal -0.951059 0.309011 0
    outer loop
      vertex -39.4372 70.4974 7
      vertex -39.3596 70.7363 11
      vertex -39.3596 70.7363 7
    endloop
  endfacet
  facet normal -0.951059 0.309011 0
    outer loop
      vertex -39.3596 70.7363 11
      vertex -39.4372 70.4974 7
      vertex -39.4372 70.4974 11
    endloop
  endfacet
  facet normal -1 0 0
    outer loop
      vertex -39.5 70 7
      vertex -39.5 67.1354 11
      vertex -39.5 70 11
    endloop
  endfacet
  facet normal -1 0 0
    outer loop
      vertex -39.5 67.1354 11
      vertex -39.5 66.5 13
      vertex -39.5 67.1354 13
    endloop
  endfacet
  facet normal -1 -0 0
    outer loop
      vertex -39.5 67.1354 11
      vertex -39.5 61.5 7
      vertex -39.5 66.5 13
    endloop
  endfacet
  facet normal -1 0 0
    outer loop
      vertex -39.5 61.5 7
      vertex -39.5 67.1354 11
      vertex -39.5 70 7
    endloop
  endfacet
  facet normal 0.982285 0.187393 0
    outer loop
      vertex -35.5158 70.2507 11
      vertex -35.5628 70.4974 7
      vertex -35.5628 70.4974 11
    endloop
  endfacet
  facet normal 0.982285 0.187393 0
    outer loop
      vertex -35.5628 70.4974 7
      vertex -35.5158 70.2507 11
      vertex -35.5158 70.2507 7
    endloop
  endfacet
  facet normal 0.587785 0.809017 -0
    outer loop
      vertex -36.2252 71.541 7
      vertex -36.4283 71.6887 11
      vertex -36.2252 71.541 11
    endloop
  endfacet
  facet normal 0.587785 0.809017 0
    outer loop
      vertex -36.4283 71.6887 11
      vertex -36.2252 71.541 7
      vertex -36.4283 71.6887 7
    endloop
  endfacet
  facet normal 0.248692 0.968583 -0
    outer loop
      vertex -36.882 71.9021 7
      vertex -37.1252 71.9646 11
      vertex -36.882 71.9021 11
    endloop
  endfacet
  facet normal 0.248692 0.968583 0
    outer loop
      vertex -37.1252 71.9646 11
      vertex -36.882 71.9021 7
      vertex -37.1252 71.9646 7
    endloop
  endfacet
  facet normal -0.904829 0.425774 0
    outer loop
      vertex -39.3596 70.7363 7
      vertex -39.2526 70.9635 11
      vertex -39.2526 70.9635 7
    endloop
  endfacet
  facet normal -0.904829 0.425774 0
    outer loop
      vertex -39.2526 70.9635 11
      vertex -39.3596 70.7363 7
      vertex -39.3596 70.7363 11
    endloop
  endfacet
  facet normal -0.587785 0.809017 0
    outer loop
      vertex -38.5717 71.6887 7
      vertex -38.7748 71.541 11
      vertex -38.5717 71.6887 11
    endloop
  endfacet
  facet normal -0.587785 0.809017 0
    outer loop
      vertex -38.7748 71.541 11
      vertex -38.5717 71.6887 7
      vertex -38.7748 71.541 7
    endloop
  endfacet
  facet normal -0.248692 0.968583 0
    outer loop
      vertex -37.8748 71.9646 7
      vertex -38.118 71.9021 11
      vertex -37.8748 71.9646 11
    endloop
  endfacet
  facet normal -0.248692 0.968583 0
    outer loop
      vertex -38.118 71.9021 11
      vertex -37.8748 71.9646 7
      vertex -38.118 71.9021 7
    endloop
  endfacet
  facet normal 0.125332 0.992115 -0
    outer loop
      vertex -37.1252 71.9646 7
      vertex -37.3744 71.9961 11
      vertex -37.1252 71.9646 11
    endloop
  endfacet
  facet normal 0.125332 0.992115 0
    outer loop
      vertex -37.3744 71.9961 11
      vertex -37.1252 71.9646 7
      vertex -37.3744 71.9961 7
    endloop
  endfacet
  facet normal -0.368131 0.929774 0
    outer loop
      vertex -38.118 71.9021 7
      vertex -38.3516 71.8097 11
      vertex -38.118 71.9021 11
    endloop
  endfacet
  facet normal -0.368131 0.929774 0
    outer loop
      vertex -38.3516 71.8097 11
      vertex -38.118 71.9021 7
      vertex -38.3516 71.8097 7
    endloop
  endfacet
  facet normal -0.998027 0.0627887 0
    outer loop
      vertex -39.5 70 7
      vertex -39.4842 70.2507 11
      vertex -39.4842 70.2507 7
    endloop
  endfacet
  facet normal -0.998027 0.0627887 0
    outer loop
      vertex -39.4842 70.2507 11
      vertex -39.5 70 7
      vertex -39.5 70 11
    endloop
  endfacet
  facet normal 0.904829 0.425774 0
    outer loop
      vertex -35.6404 70.7363 11
      vertex -35.7474 70.9635 7
      vertex -35.7474 70.9635 11
    endloop
  endfacet
  facet normal 0.904829 0.425774 0
    outer loop
      vertex -35.7474 70.9635 7
      vertex -35.6404 70.7363 11
      vertex -35.6404 70.7363 7
    endloop
  endfacet
  facet normal 0.951059 0.309011 0
    outer loop
      vertex -35.5628 70.4974 11
      vertex -35.6404 70.7363 7
      vertex -35.6404 70.7363 11
    endloop
  endfacet
  facet normal 0.951059 0.309011 0
    outer loop
      vertex -35.6404 70.7363 7
      vertex -35.5628 70.4974 11
      vertex -35.5628 70.4974 7
    endloop
  endfacet
  facet normal 0.481763 0.876302 -0
    outer loop
      vertex -36.4283 71.6887 7
      vertex -36.6484 71.8097 11
      vertex -36.4283 71.6887 11
    endloop
  endfacet
  facet normal 0.481763 0.876302 0
    outer loop
      vertex -36.6484 71.8097 11
      vertex -36.4283 71.6887 7
      vertex -36.6484 71.8097 7
    endloop
  endfacet
  facet normal 0.368131 0.929774 -0
    outer loop
      vertex -36.6484 71.8097 7
      vertex -36.882 71.9021 11
      vertex -36.6484 71.8097 11
    endloop
  endfacet
  facet normal 0.368131 0.929774 0
    outer loop
      vertex -36.882 71.9021 11
      vertex -36.6484 71.8097 7
      vertex -36.882 71.9021 7
    endloop
  endfacet
  facet normal -0.770522 0.637414 0
    outer loop
      vertex -39.118 71.1756 7
      vertex -38.9579 71.3691 11
      vertex -38.9579 71.3691 7
    endloop
  endfacet
  facet normal -0.770522 0.637414 0
    outer loop
      vertex -38.9579 71.3691 11
      vertex -39.118 71.1756 7
      vertex -39.118 71.1756 11
    endloop
  endfacet
  facet normal -0.844324 0.535832 0
    outer loop
      vertex -39.2526 70.9635 7
      vertex -39.118 71.1756 11
      vertex -39.118 71.1756 7
    endloop
  endfacet
  facet normal -0.844324 0.535832 0
    outer loop
      vertex -39.118 71.1756 11
      vertex -39.2526 70.9635 7
      vertex -39.2526 70.9635 11
    endloop
  endfacet
  facet normal -0.481763 0.876302 0
    outer loop
      vertex -38.3516 71.8097 7
      vertex -38.5717 71.6887 11
      vertex -38.3516 71.8097 11
    endloop
  endfacet
  facet normal -0.481763 0.876302 0
    outer loop
      vertex -38.5717 71.6887 11
      vertex -38.3516 71.8097 7
      vertex -38.5717 71.6887 7
    endloop
  endfacet
  facet normal -0.982285 0.187393 0
    outer loop
      vertex -39.4842 70.2507 7
      vertex -39.4372 70.4974 11
      vertex -39.4372 70.4974 7
    endloop
  endfacet
  facet normal -0.982285 0.187393 0
    outer loop
      vertex -39.4372 70.4974 11
      vertex -39.4842 70.2507 7
      vertex -39.4842 70.2507 11
    endloop
  endfacet
  facet normal 0.770522 0.637414 0
    outer loop
      vertex -35.882 71.1756 11
      vertex -36.0421 71.3691 7
      vertex -36.0421 71.3691 11
    endloop
  endfacet
  facet normal 0.770522 0.637414 0
    outer loop
      vertex -36.0421 71.3691 7
      vertex -35.882 71.1756 11
      vertex -35.882 71.1756 7
    endloop
  endfacet
  facet normal 0.844324 0.535832 0
    outer loop
      vertex -35.7474 70.9635 11
      vertex -35.882 71.1756 7
      vertex -35.882 71.1756 11
    endloop
  endfacet
  facet normal 0.844324 0.535832 0
    outer loop
      vertex -35.882 71.1756 7
      vertex -35.7474 70.9635 11
      vertex -35.7474 70.9635 7
    endloop
  endfacet
  facet normal 0 1 -0
    outer loop
      vertex -37.3744 71.9961 7
      vertex -37.6256 71.9961 11
      vertex -37.3744 71.9961 11
    endloop
  endfacet
  facet normal 0 1 0
    outer loop
      vertex -37.6256 71.9961 11
      vertex -37.3744 71.9961 7
      vertex -37.6256 71.9961 7
    endloop
  endfacet
  facet normal 0.998027 0.0627922 0
    outer loop
      vertex 41 70 13
      vertex 40.9724 70.4387 11
      vertex 40.9724 70.4387 13
    endloop
  endfacet
  facet normal 0.998027 0.0627922 0
    outer loop
      vertex 40.9724 70.4387 11
      vertex 41 70 13
      vertex 41 70 11
    endloop
  endfacet
  facet normal -0.998027 0.0627922 0
    outer loop
      vertex 34 70 11
      vertex 34.0276 70.4387 13
      vertex 34.0276 70.4387 11
    endloop
  endfacet
  facet normal -0.998027 0.0627922 0
    outer loop
      vertex 34.0276 70.4387 13
      vertex 34 70 11
      vertex 34 70 13
    endloop
  endfacet
  facet normal 0 1 -0
    outer loop
      vertex 37.7198 73.4931 11
      vertex 37.2802 73.4931 13
      vertex 37.7198 73.4931 13
    endloop
  endfacet
  facet normal 0 1 0
    outer loop
      vertex 37.2802 73.4931 13
      vertex 37.7198 73.4931 11
      vertex 37.2802 73.4931 11
    endloop
  endfacet
  facet normal 0.684544 0.728972 -0
    outer loop
      vertex 40.0514 72.3959 11
      vertex 39.731 72.6968 13
      vertex 40.0514 72.3959 13
    endloop
  endfacet
  facet normal 0.684544 0.728972 0
    outer loop
      vertex 39.731 72.6968 13
      vertex 40.0514 72.3959 11
      vertex 39.731 72.6968 11
    endloop
  endfacet
  facet normal -0.684544 0.728972 0
    outer loop
      vertex 35.269 72.6968 11
      vertex 34.9486 72.3959 13
      vertex 35.269 72.6968 13
    endloop
  endfacet
  facet normal -0.684544 0.728972 0
    outer loop
      vertex 34.9486 72.3959 13
      vertex 35.269 72.6968 11
      vertex 34.9486 72.3959 11
    endloop
  endfacet
  facet normal -0.368126 0.929776 0
    outer loop
      vertex 36.4184 73.3287 11
      vertex 36.0098 73.1669 13
      vertex 36.4184 73.3287 13
    endloop
  endfacet
  facet normal -0.368126 0.929776 0
    outer loop
      vertex 36.0098 73.1669 13
      vertex 36.4184 73.3287 11
      vertex 36.0098 73.1669 11
    endloop
  endfacet
  facet normal 0.904824 -0.425785 0
    outer loop
      vertex 40.5671 68.3139 13
      vertex 40.7542 68.7116 11
      vertex 40.7542 68.7116 13
    endloop
  endfacet
  facet normal 0.904824 -0.425785 0
    outer loop
      vertex 40.7542 68.7116 11
      vertex 40.5671 68.3139 13
      vertex 40.5671 68.3139 11
    endloop
  endfacet
  facet normal 0.904824 0.425785 0
    outer loop
      vertex 40.7542 71.2884 13
      vertex 40.5671 71.6861 11
      vertex 40.5671 71.6861 13
    endloop
  endfacet
  facet normal 0.904824 0.425785 0
    outer loop
      vertex 40.5671 71.6861 11
      vertex 40.7542 71.2884 13
      vertex 40.7542 71.2884 11
    endloop
  endfacet
  facet normal 0.982288 0.187379 0
    outer loop
      vertex 40.9724 70.4387 13
      vertex 40.89 70.8704 11
      vertex 40.89 70.8704 13
    endloop
  endfacet
  facet normal 0.982288 0.187379 0
    outer loop
      vertex 40.89 70.8704 11
      vertex 40.9724 70.4387 13
      vertex 40.9724 70.4387 11
    endloop
  endfacet
  facet normal 0.84433 0.535823 0
    outer loop
      vertex 40.5671 71.6861 13
      vertex 40.3316 72.0573 11
      vertex 40.3316 72.0573 13
    endloop
  endfacet
  facet normal 0.84433 0.535823 0
    outer loop
      vertex 40.3316 72.0573 11
      vertex 40.5671 71.6861 13
      vertex 40.5671 71.6861 11
    endloop
  endfacet
  facet normal 0.368126 0.929776 -0
    outer loop
      vertex 38.9902 73.1669 11
      vertex 38.5816 73.3287 13
      vertex 38.9902 73.1669 13
    endloop
  endfacet
  facet normal 0.368126 0.929776 0
    outer loop
      vertex 38.5816 73.3287 13
      vertex 38.9902 73.1669 11
      vertex 38.5816 73.3287 11
    endloop
  endfacet
  facet normal 0.481752 0.876307 -0
    outer loop
      vertex 39.3754 72.9551 11
      vertex 38.9902 73.1669 13
      vertex 39.3754 72.9551 13
    endloop
  endfacet
  facet normal 0.481752 0.876307 0
    outer loop
      vertex 38.9902 73.1669 13
      vertex 39.3754 72.9551 11
      vertex 38.9902 73.1669 11
    endloop
  endfacet
  facet normal -0.904824 0.425785 0
    outer loop
      vertex 34.2458 71.2884 11
      vertex 34.4329 71.6861 13
      vertex 34.4329 71.6861 11
    endloop
  endfacet
  facet normal -0.904824 0.425785 0
    outer loop
      vertex 34.4329 71.6861 13
      vertex 34.2458 71.2884 11
      vertex 34.2458 71.2884 13
    endloop
  endfacet
  facet normal -0.770511 0.637426 0
    outer loop
      vertex 34.6684 72.0573 11
      vertex 34.9486 72.3959 13
      vertex 34.9486 72.3959 11
    endloop
  endfacet
  facet normal -0.770511 0.637426 0
    outer loop
      vertex 34.9486 72.3959 13
      vertex 34.6684 72.0573 11
      vertex 34.6684 72.0573 13
    endloop
  endfacet
  facet normal -0.951057 0.309014 0
    outer loop
      vertex 34.11 70.8704 11
      vertex 34.2458 71.2884 13
      vertex 34.2458 71.2884 11
    endloop
  endfacet
  facet normal -0.951057 0.309014 0
    outer loop
      vertex 34.2458 71.2884 13
      vertex 34.11 70.8704 11
      vertex 34.11 70.8704 13
    endloop
  endfacet
  facet normal -0.248688 0.968584 0
    outer loop
      vertex 36.8442 73.438 11
      vertex 36.4184 73.3287 13
      vertex 36.8442 73.438 13
    endloop
  endfacet
  facet normal -0.248688 0.968584 0
    outer loop
      vertex 36.4184 73.3287 13
      vertex 36.8442 73.438 11
      vertex 36.4184 73.3287 11
    endloop
  endfacet
  facet normal 0.951057 0.309014 0
    outer loop
      vertex 40.89 70.8704 13
      vertex 40.7542 71.2884 11
      vertex 40.7542 71.2884 13
    endloop
  endfacet
  facet normal 0.951057 0.309014 0
    outer loop
      vertex 40.7542 71.2884 11
      vertex 40.89 70.8704 13
      vertex 40.89 70.8704 11
    endloop
  endfacet
  facet normal 0.770511 0.637426 0
    outer loop
      vertex 40.3316 72.0573 13
      vertex 40.0514 72.3959 11
      vertex 40.0514 72.3959 13
    endloop
  endfacet
  facet normal 0.770511 0.637426 0
    outer loop
      vertex 40.0514 72.3959 11
      vertex 40.3316 72.0573 13
      vertex 40.3316 72.0573 11
    endloop
  endfacet
  facet normal 0.248688 0.968584 -0
    outer loop
      vertex 38.5816 73.3287 11
      vertex 38.1558 73.438 13
      vertex 38.5816 73.3287 13
    endloop
  endfacet
  facet normal 0.248688 0.968584 0
    outer loop
      vertex 38.1558 73.438 13
      vertex 38.5816 73.3287 11
      vertex 38.1558 73.438 11
    endloop
  endfacet
  facet normal 0.125341 0.992114 -0
    outer loop
      vertex 38.1558 73.438 11
      vertex 37.7198 73.4931 13
      vertex 38.1558 73.438 13
    endloop
  endfacet
  facet normal 0.125341 0.992114 0
    outer loop
      vertex 37.7198 73.4931 13
      vertex 38.1558 73.438 11
      vertex 37.7198 73.4931 11
    endloop
  endfacet
  facet normal 0.587789 0.809014 -0
    outer loop
      vertex 39.731 72.6968 11
      vertex 39.3754 72.9551 13
      vertex 39.731 72.6968 13
    endloop
  endfacet
  facet normal 0.587789 0.809014 0
    outer loop
      vertex 39.3754 72.9551 13
      vertex 39.731 72.6968 11
      vertex 39.3754 72.9551 11
    endloop
  endfacet
  facet normal -0.84433 0.535823 0
    outer loop
      vertex 34.4329 71.6861 11
      vertex 34.6684 72.0573 13
      vertex 34.6684 72.0573 11
    endloop
  endfacet
  facet normal -0.84433 0.535823 0
    outer loop
      vertex 34.6684 72.0573 13
      vertex 34.4329 71.6861 11
      vertex 34.4329 71.6861 13
    endloop
  endfacet
  facet normal -0.982288 0.187379 0
    outer loop
      vertex 34.0276 70.4387 11
      vertex 34.11 70.8704 13
      vertex 34.11 70.8704 11
    endloop
  endfacet
  facet normal -0.982288 0.187379 0
    outer loop
      vertex 34.11 70.8704 13
      vertex 34.0276 70.4387 11
      vertex 34.0276 70.4387 13
    endloop
  endfacet
  facet normal -0 0 1
    outer loop
      vertex 35.269 72.6968 13
      vertex 35.5 67.1354 13
      vertex 35.6246 72.9551 13
    endloop
  endfacet
  facet normal -0 0 1
    outer loop
      vertex 34.9486 72.3959 13
      vertex 35.5 67.1354 13
      vertex 35.269 72.6968 13
    endloop
  endfacet
  facet normal -0 0 1
    outer loop
      vertex 34.9486 67.6041 13
      vertex 35.5 67.1354 13
      vertex 34.9486 72.3959 13
    endloop
  endfacet
  facet normal 0 0 1
    outer loop
      vertex 35.5 67.1354 13
      vertex 34.9486 67.6041 13
      vertex 35.269 67.3032 13
    endloop
  endfacet
  facet normal -0 0 1
    outer loop
      vertex 34.6684 72.0573 13
      vertex 34.9486 67.6041 13
      vertex 34.9486 72.3959 13
    endloop
  endfacet
  facet normal 0 0 1
    outer loop
      vertex 34.6684 72.0573 13
      vertex 34.6684 67.9427 13
      vertex 34.9486 67.6041 13
    endloop
  endfacet
  facet normal -0 0 1
    outer loop
      vertex 34.4329 71.6861 13
      vertex 34.6684 67.9427 13
      vertex 34.6684 72.0573 13
    endloop
  endfacet
  facet normal 0 0 1
    outer loop
      vertex 34.4329 71.6861 13
      vertex 34.4329 68.3139 13
      vertex 34.6684 67.9427 13
    endloop
  endfacet
  facet normal -0 0 1
    outer loop
      vertex 34.2458 71.2884 13
      vertex 34.4329 68.3139 13
      vertex 34.4329 71.6861 13
    endloop
  endfacet
  facet normal 0 0 1
    outer loop
      vertex 34.2458 71.2884 13
      vertex 34.2458 68.7116 13
      vertex 34.4329 68.3139 13
    endloop
  endfacet
  facet normal -0 0 1
    outer loop
      vertex 34.11 70.8704 13
      vertex 34.2458 68.7116 13
      vertex 34.2458 71.2884 13
    endloop
  endfacet
  facet normal 0 0 1
    outer loop
      vertex 34.11 70.8704 13
      vertex 34.11 69.1296 13
      vertex 34.2458 68.7116 13
    endloop
  endfacet
  facet normal -0 0 1
    outer loop
      vertex 34.0276 70.4387 13
      vertex 34.11 69.1296 13
      vertex 34.11 70.8704 13
    endloop
  endfacet
  facet normal 0 0 1
    outer loop
      vertex 34.0276 70.4387 13
      vertex 34.0276 69.5613 13
      vertex 34.11 69.1296 13
    endloop
  endfacet
  facet normal 0 -0 1
    outer loop
      vertex 34.0276 69.5613 13
      vertex 34.0276 70.4387 13
      vertex 34 70 13
    endloop
  endfacet
  facet normal 0 0 1
    outer loop
      vertex 40.9724 70.4387 13
      vertex 40.9724 69.5613 13
      vertex 41 70 13
    endloop
  endfacet
  facet normal 0 0 1
    outer loop
      vertex 40.89 70.8704 13
      vertex 40.9724 69.5613 13
      vertex 40.9724 70.4387 13
    endloop
  endfacet
  facet normal 0 0 1
    outer loop
      vertex 40.89 70.8704 13
      vertex 40.89 69.1296 13
      vertex 40.9724 69.5613 13
    endloop
  endfacet
  facet normal 0 0 1
    outer loop
      vertex 40.7542 71.2884 13
      vertex 40.89 69.1296 13
      vertex 40.89 70.8704 13
    endloop
  endfacet
  facet normal 0 0 1
    outer loop
      vertex 40.7542 71.2884 13
      vertex 40.7542 68.7116 13
      vertex 40.89 69.1296 13
    endloop
  endfacet
  facet normal 0 0 1
    outer loop
      vertex 40.5671 71.6861 13
      vertex 40.7542 68.7116 13
      vertex 40.7542 71.2884 13
    endloop
  endfacet
  facet normal 0 0 1
    outer loop
      vertex 40.5671 71.6861 13
      vertex 40.5671 68.3139 13
      vertex 40.7542 68.7116 13
    endloop
  endfacet
  facet normal 0 0 1
    outer loop
      vertex 40.3316 72.0573 13
      vertex 40.5671 68.3139 13
      vertex 40.5671 71.6861 13
    endloop
  endfacet
  facet normal 0 0 1
    outer loop
      vertex 40.3316 72.0573 13
      vertex 40.3316 67.9427 13
      vertex 40.5671 68.3139 13
    endloop
  endfacet
  facet normal 0 0 1
    outer loop
      vertex 40.0514 72.3959 13
      vertex 40.3316 67.9427 13
      vertex 40.3316 72.0573 13
    endloop
  endfacet
  facet normal 0 0 1
    outer loop
      vertex 40.0514 72.3959 13
      vertex 40.0514 67.6041 13
      vertex 40.3316 67.9427 13
    endloop
  endfacet
  facet normal 0 0 1
    outer loop
      vertex 39.731 72.6968 13
      vertex 40.0514 67.6041 13
      vertex 40.0514 72.3959 13
    endloop
  endfacet
  facet normal 0 0 1
    outer loop
      vertex 39.5 67.1354 13
      vertex 40.0514 67.6041 13
      vertex 39.731 72.6968 13
    endloop
  endfacet
  facet normal 0 0 1
    outer loop
      vertex 40.0514 67.6041 13
      vertex 39.5 67.1354 13
      vertex 39.731 67.3032 13
    endloop
  endfacet
  facet normal 0 0 1
    outer loop
      vertex 39.3754 72.9551 13
      vertex 39.5 67.1354 13
      vertex 39.731 72.6968 13
    endloop
  endfacet
  facet normal 0 0 1
    outer loop
      vertex 35.5 67.1354 13
      vertex 39.5 67.1354 13
      vertex 39.3754 72.9551 13
    endloop
  endfacet
  facet normal 0 0 1
    outer loop
      vertex 35.5 67.1354 13
      vertex 39.3754 72.9551 13
      vertex 38.9902 73.1669 13
    endloop
  endfacet
  facet normal 0 0 1
    outer loop
      vertex 35.5 67.1354 13
      vertex 38.9902 73.1669 13
      vertex 38.5816 73.3287 13
    endloop
  endfacet
  facet normal 0 0 1
    outer loop
      vertex 35.5 67.1354 13
      vertex 38.5816 73.3287 13
      vertex 38.1558 73.438 13
    endloop
  endfacet
  facet normal 0 0 1
    outer loop
      vertex 35.5 67.1354 13
      vertex 38.1558 73.438 13
      vertex 37.7198 73.4931 13
    endloop
  endfacet
  facet normal 0 0 1
    outer loop
      vertex 35.5 67.1354 13
      vertex 37.7198 73.4931 13
      vertex 37.2802 73.4931 13
    endloop
  endfacet
  facet normal 0 0 1
    outer loop
      vertex 35.5 67.1354 13
      vertex 37.2802 73.4931 13
      vertex 36.8442 73.438 13
    endloop
  endfacet
  facet normal 0 0 1
    outer loop
      vertex 35.5 67.1354 13
      vertex 36.8442 73.438 13
      vertex 36.4184 73.3287 13
    endloop
  endfacet
  facet normal 0 0 1
    outer loop
      vertex 35.5 67.1354 13
      vertex 36.4184 73.3287 13
      vertex 36.0098 73.1669 13
    endloop
  endfacet
  facet normal 0 0 1
    outer loop
      vertex 35.5 67.1354 13
      vertex 36.0098 73.1669 13
      vertex 35.6246 72.9551 13
    endloop
  endfacet
  facet normal 0 0 1
    outer loop
      vertex 39.5 67.1354 13
      vertex 35.5 67.1354 13
      vertex 39.5 66.5 13
    endloop
  endfacet
  facet normal 0 0 1
    outer loop
      vertex 39.5 66.5 13
      vertex 35.5 67.1354 13
      vertex 35.5 66.5 13
    endloop
  endfacet
  facet normal -0.481752 0.876307 0
    outer loop
      vertex 36.0098 73.1669 11
      vertex 35.6246 72.9551 13
      vertex 36.0098 73.1669 13
    endloop
  endfacet
  facet normal -0.481752 0.876307 0
    outer loop
      vertex 35.6246 72.9551 13
      vertex 36.0098 73.1669 11
      vertex 35.6246 72.9551 11
    endloop
  endfacet
  facet normal -0.587789 0.809014 0
    outer loop
      vertex 35.6246 72.9551 11
      vertex 35.269 72.6968 13
      vertex 35.6246 72.9551 13
    endloop
  endfacet
  facet normal -0.587789 0.809014 0
    outer loop
      vertex 35.269 72.6968 13
      vertex 35.6246 72.9551 11
      vertex 35.269 72.6968 11
    endloop
  endfacet
  facet normal -0.125341 0.992114 0
    outer loop
      vertex 37.2802 73.4931 11
      vertex 36.8442 73.438 13
      vertex 37.2802 73.4931 13
    endloop
  endfacet
  facet normal -0.125341 0.992114 0
    outer loop
      vertex 36.8442 73.438 13
      vertex 37.2802 73.4931 11
      vertex 36.8442 73.438 11
    endloop
  endfacet
  facet normal 0.998027 -0.0627922 0
    outer loop
      vertex 40.9724 69.5613 13
      vertex 41 70 11
      vertex 41 70 13
    endloop
  endfacet
  facet normal 0.998027 -0.0627922 0
    outer loop
      vertex 41 70 11
      vertex 40.9724 69.5613 13
      vertex 40.9724 69.5613 11
    endloop
  endfacet
  facet normal 0.770511 -0.637426 0
    outer loop
      vertex 40.0514 67.6041 13
      vertex 40.3316 67.9427 11
      vertex 40.3316 67.9427 13
    endloop
  endfacet
  facet normal 0.770511 -0.637426 0
    outer loop
      vertex 40.3316 67.9427 11
      vertex 40.0514 67.6041 13
      vertex 40.0514 67.6041 11
    endloop
  endfacet
  facet normal 0.951057 -0.309014 0
    outer loop
      vertex 40.7542 68.7116 13
      vertex 40.89 69.1296 11
      vertex 40.89 69.1296 13
    endloop
  endfacet
  facet normal 0.951057 -0.309014 0
    outer loop
      vertex 40.89 69.1296 11
      vertex 40.7542 68.7116 13
      vertex 40.7542 68.7116 11
    endloop
  endfacet
  facet normal 0.982288 -0.187379 0
    outer loop
      vertex 40.89 69.1296 13
      vertex 40.9724 69.5613 11
      vertex 40.9724 69.5613 13
    endloop
  endfacet
  facet normal 0.982288 -0.187379 0
    outer loop
      vertex 40.9724 69.5613 11
      vertex 40.89 69.1296 13
      vertex 40.89 69.1296 11
    endloop
  endfacet
  facet normal 0 0 -1
    outer loop
      vertex 35.5 67.1354 11
      vertex 35.269 67.3032 11
      vertex 35.5 70 11
    endloop
  endfacet
  facet normal 0 0 -1
    outer loop
      vertex 39.5 70 11
      vertex 41 70 11
      vertex 40.9724 69.5613 11
    endloop
  endfacet
  facet normal 0 0 -1
    outer loop
      vertex 39.5 70 11
      vertex 40.9724 69.5613 11
      vertex 40.89 69.1296 11
    endloop
  endfacet
  facet normal 0 0 -1
    outer loop
      vertex 41 70 11
      vertex 39.5 70 11
      vertex 40.9724 70.4387 11
    endloop
  endfacet
  facet normal 0 0 -1
    outer loop
      vertex 39.5 70 11
      vertex 40.89 69.1296 11
      vertex 40.7542 68.7116 11
    endloop
  endfacet
  facet normal 0 0 -1
    outer loop
      vertex 39.4842 70.2507 11
      vertex 40.9724 70.4387 11
      vertex 39.5 70 11
    endloop
  endfacet
  facet normal 0 0 -1
    outer loop
      vertex 39.5 70 11
      vertex 40.7542 68.7116 11
      vertex 40.5671 68.3139 11
    endloop
  endfacet
  facet normal -0 0 -1
    outer loop
      vertex 40.9724 70.4387 11
      vertex 39.4842 70.2507 11
      vertex 40.89 70.8704 11
    endloop
  endfacet
  facet normal 0 0 -1
    outer loop
      vertex 39.5 70 11
      vertex 40.5671 68.3139 11
      vertex 40.3316 67.9427 11
    endloop
  endfacet
  facet normal 0 0 -1
    outer loop
      vertex 39.4372 70.4974 11
      vertex 40.89 70.8704 11
      vertex 39.4842 70.2507 11
    endloop
  endfacet
  facet normal 0 0 -1
    outer loop
      vertex 39.5 70 11
      vertex 40.3316 67.9427 11
      vertex 40.0514 67.6041 11
    endloop
  endfacet
  facet normal -0 0 -1
    outer loop
      vertex 40.89 70.8704 11
      vertex 39.4372 70.4974 11
      vertex 40.7542 71.2884 11
    endloop
  endfacet
  facet normal 0 0 -1
    outer loop
      vertex 39.5 70 11
      vertex 40.0514 67.6041 11
      vertex 39.731 67.3032 11
    endloop
  endfacet
  facet normal 0 0 -1
    outer loop
      vertex 39.3596 70.7363 11
      vertex 40.7542 71.2884 11
      vertex 39.4372 70.4974 11
    endloop
  endfacet
  facet normal 0 0 -1
    outer loop
      vertex 39.5 70 11
      vertex 39.731 67.3032 11
      vertex 39.5 67.1354 11
    endloop
  endfacet
  facet normal -0 0 -1
    outer loop
      vertex 40.7542 71.2884 11
      vertex 39.3596 70.7363 11
      vertex 40.5671 71.6861 11
    endloop
  endfacet
  facet normal 0 0 -1
    outer loop
      vertex 39.2526 70.9635 11
      vertex 40.5671 71.6861 11
      vertex 39.3596 70.7363 11
    endloop
  endfacet
  facet normal -0 0 -1
    outer loop
      vertex 40.5671 71.6861 11
      vertex 39.2526 70.9635 11
      vertex 40.3316 72.0573 11
    endloop
  endfacet
  facet normal 0 0 -1
    outer loop
      vertex 39.118 71.1756 11
      vertex 40.3316 72.0573 11
      vertex 39.2526 70.9635 11
    endloop
  endfacet
  facet normal -0 0 -1
    outer loop
      vertex 40.3316 72.0573 11
      vertex 39.118 71.1756 11
      vertex 40.0514 72.3959 11
    endloop
  endfacet
  facet normal 0 0 -1
    outer loop
      vertex 38.9579 71.3691 11
      vertex 40.0514 72.3959 11
      vertex 39.118 71.1756 11
    endloop
  endfacet
  facet normal -0 0 -1
    outer loop
      vertex 40.0514 72.3959 11
      vertex 38.9579 71.3691 11
      vertex 39.731 72.6968 11
    endloop
  endfacet
  facet normal 0 0 -1
    outer loop
      vertex 38.7748 71.541 11
      vertex 39.731 72.6968 11
      vertex 38.9579 71.3691 11
    endloop
  endfacet
  facet normal -0 0 -1
    outer loop
      vertex 39.731 72.6968 11
      vertex 38.7748 71.541 11
      vertex 39.3754 72.9551 11
    endloop
  endfacet
  facet normal 0 0 -1
    outer loop
      vertex 38.5717 71.6887 11
      vertex 39.3754 72.9551 11
      vertex 38.7748 71.541 11
    endloop
  endfacet
  facet normal -0 0 -1
    outer loop
      vertex 39.3754 72.9551 11
      vertex 38.5717 71.6887 11
      vertex 38.9902 73.1669 11
    endloop
  endfacet
  facet normal 0 0 -1
    outer loop
      vertex 38.3516 71.8097 11
      vertex 38.9902 73.1669 11
      vertex 38.5717 71.6887 11
    endloop
  endfacet
  facet normal -0 0 -1
    outer loop
      vertex 38.9902 73.1669 11
      vertex 38.3516 71.8097 11
      vertex 38.5816 73.3287 11
    endloop
  endfacet
  facet normal 0 0 -1
    outer loop
      vertex 38.118 71.9021 11
      vertex 38.5816 73.3287 11
      vertex 38.3516 71.8097 11
    endloop
  endfacet
  facet normal -0 0 -1
    outer loop
      vertex 38.5816 73.3287 11
      vertex 38.118 71.9021 11
      vertex 38.1558 73.438 11
    endloop
  endfacet
  facet normal 0 0 -1
    outer loop
      vertex 37.8748 71.9646 11
      vertex 38.1558 73.438 11
      vertex 38.118 71.9021 11
    endloop
  endfacet
  facet normal 0 0 -1
    outer loop
      vertex 37.8748 71.9646 11
      vertex 37.7198 73.4931 11
      vertex 38.1558 73.438 11
    endloop
  endfacet
  facet normal 0 0 -1
    outer loop
      vertex 37.6256 71.9961 11
      vertex 37.7198 73.4931 11
      vertex 37.8748 71.9646 11
    endloop
  endfacet
  facet normal 0 0 -1
    outer loop
      vertex 37.3744 71.9961 11
      vertex 37.7198 73.4931 11
      vertex 37.6256 71.9961 11
    endloop
  endfacet
  facet normal 0 0 -1
    outer loop
      vertex 37.3744 71.9961 11
      vertex 37.2802 73.4931 11
      vertex 37.7198 73.4931 11
    endloop
  endfacet
  facet normal 0 0 -1
    outer loop
      vertex 37.1252 71.9646 11
      vertex 37.2802 73.4931 11
      vertex 37.3744 71.9961 11
    endloop
  endfacet
  facet normal 0 0 -1
    outer loop
      vertex 36.8442 73.438 11
      vertex 37.1252 71.9646 11
      vertex 36.882 71.9021 11
    endloop
  endfacet
  facet normal 0 0 -1
    outer loop
      vertex 37.1252 71.9646 11
      vertex 36.8442 73.438 11
      vertex 37.2802 73.4931 11
    endloop
  endfacet
  facet normal 0 0 -1
    outer loop
      vertex 36.4184 73.3287 11
      vertex 36.882 71.9021 11
      vertex 36.6484 71.8097 11
    endloop
  endfacet
  facet normal 0 0 -1
    outer loop
      vertex 36.0098 73.1669 11
      vertex 36.6484 71.8097 11
      vertex 36.4283 71.6887 11
    endloop
  endfacet
  facet normal 0 0 -1
    outer loop
      vertex 36.882 71.9021 11
      vertex 36.4184 73.3287 11
      vertex 36.8442 73.438 11
    endloop
  endfacet
  facet normal 0 0 -1
    outer loop
      vertex 35.6246 72.9551 11
      vertex 36.4283 71.6887 11
      vertex 36.2252 71.541 11
    endloop
  endfacet
  facet normal 0 0 -1
    outer loop
      vertex 35.269 72.6968 11
      vertex 36.2252 71.541 11
      vertex 36.0421 71.3691 11
    endloop
  endfacet
  facet normal 0 0 -1
    outer loop
      vertex 36.6484 71.8097 11
      vertex 36.0098 73.1669 11
      vertex 36.4184 73.3287 11
    endloop
  endfacet
  facet normal 0 0 -1
    outer loop
      vertex 34.9486 72.3959 11
      vertex 36.0421 71.3691 11
      vertex 35.882 71.1756 11
    endloop
  endfacet
  facet normal 0 0 -1
    outer loop
      vertex 34.6684 72.0573 11
      vertex 35.882 71.1756 11
      vertex 35.7474 70.9635 11
    endloop
  endfacet
  facet normal 0 0 -1
    outer loop
      vertex 34.4329 71.6861 11
      vertex 35.7474 70.9635 11
      vertex 35.6404 70.7363 11
    endloop
  endfacet
  facet normal 0 0 -1
    outer loop
      vertex 36.4283 71.6887 11
      vertex 35.6246 72.9551 11
      vertex 36.0098 73.1669 11
    endloop
  endfacet
  facet normal 0 0 -1
    outer loop
      vertex 34.2458 71.2884 11
      vertex 35.6404 70.7363 11
      vertex 35.5628 70.4974 11
    endloop
  endfacet
  facet normal 0 0 -1
    outer loop
      vertex 34.11 70.8704 11
      vertex 35.5628 70.4974 11
      vertex 35.5158 70.2507 11
    endloop
  endfacet
  facet normal 0 0 -1
    outer loop
      vertex 34.0276 70.4387 11
      vertex 35.5158 70.2507 11
      vertex 35.5 70 11
    endloop
  endfacet
  facet normal 0 0 -1
    outer loop
      vertex 34.9486 67.6041 11
      vertex 35.5 70 11
      vertex 35.269 67.3032 11
    endloop
  endfacet
  facet normal 0 0 -1
    outer loop
      vertex 36.2252 71.541 11
      vertex 35.269 72.6968 11
      vertex 35.6246 72.9551 11
    endloop
  endfacet
  facet normal 0 0 -1
    outer loop
      vertex 34.6684 67.9427 11
      vertex 35.5 70 11
      vertex 34.9486 67.6041 11
    endloop
  endfacet
  facet normal 0 0 -1
    outer loop
      vertex 36.0421 71.3691 11
      vertex 34.9486 72.3959 11
      vertex 35.269 72.6968 11
    endloop
  endfacet
  facet normal 0 0 -1
    outer loop
      vertex 34.4329 68.3139 11
      vertex 35.5 70 11
      vertex 34.6684 67.9427 11
    endloop
  endfacet
  facet normal 0 0 -1
    outer loop
      vertex 35.882 71.1756 11
      vertex 34.6684 72.0573 11
      vertex 34.9486 72.3959 11
    endloop
  endfacet
  facet normal 0 0 -1
    outer loop
      vertex 34.2458 68.7116 11
      vertex 35.5 70 11
      vertex 34.4329 68.3139 11
    endloop
  endfacet
  facet normal 0 0 -1
    outer loop
      vertex 35.7474 70.9635 11
      vertex 34.4329 71.6861 11
      vertex 34.6684 72.0573 11
    endloop
  endfacet
  facet normal 0 0 -1
    outer loop
      vertex 34.11 69.1296 11
      vertex 35.5 70 11
      vertex 34.2458 68.7116 11
    endloop
  endfacet
  facet normal 0 0 -1
    outer loop
      vertex 35.6404 70.7363 11
      vertex 34.2458 71.2884 11
      vertex 34.4329 71.6861 11
    endloop
  endfacet
  facet normal 0 0 -1
    outer loop
      vertex 34.0276 69.5613 11
      vertex 35.5 70 11
      vertex 34.11 69.1296 11
    endloop
  endfacet
  facet normal 0 0 -1
    outer loop
      vertex 35.5628 70.4974 11
      vertex 34.11 70.8704 11
      vertex 34.2458 71.2884 11
    endloop
  endfacet
  facet normal 0 0 -1
    outer loop
      vertex 34 70 11
      vertex 35.5 70 11
      vertex 34.0276 69.5613 11
    endloop
  endfacet
  facet normal 0 0 -1
    outer loop
      vertex 35.5158 70.2507 11
      vertex 34.0276 70.4387 11
      vertex 34.11 70.8704 11
    endloop
  endfacet
  facet normal 0 0 -1
    outer loop
      vertex 35.5 70 11
      vertex 34 70 11
      vertex 34.0276 70.4387 11
    endloop
  endfacet
  facet normal 0.684544 -0.728972 0
    outer loop
      vertex 39.731 67.3032 11
      vertex 40.0514 67.6041 13
      vertex 39.731 67.3032 13
    endloop
  endfacet
  facet normal 0.684544 -0.728972 0
    outer loop
      vertex 40.0514 67.6041 13
      vertex 39.731 67.3032 11
      vertex 40.0514 67.6041 11
    endloop
  endfacet
  facet normal 0.84433 -0.535823 0
    outer loop
      vertex 40.3316 67.9427 13
      vertex 40.5671 68.3139 11
      vertex 40.5671 68.3139 13
    endloop
  endfacet
  facet normal 0.84433 -0.535823 0
    outer loop
      vertex 40.5671 68.3139 11
      vertex 40.3316 67.9427 13
      vertex 40.3316 67.9427 11
    endloop
  endfacet
  facet normal -0.951057 -0.309014 0
    outer loop
      vertex 34.2458 68.7116 11
      vertex 34.11 69.1296 13
      vertex 34.11 69.1296 11
    endloop
  endfacet
  facet normal -0.951057 -0.309014 0
    outer loop
      vertex 34.11 69.1296 13
      vertex 34.2458 68.7116 11
      vertex 34.2458 68.7116 13
    endloop
  endfacet
  facet normal -0.770511 -0.637426 0
    outer loop
      vertex 34.9486 67.6041 11
      vertex 34.6684 67.9427 13
      vertex 34.6684 67.9427 11
    endloop
  endfacet
  facet normal -0.770511 -0.637426 0
    outer loop
      vertex 34.6684 67.9427 13
      vertex 34.9486 67.6041 11
      vertex 34.9486 67.6041 13
    endloop
  endfacet
  facet normal -0.684544 -0.728972 0
    outer loop
      vertex 34.9486 67.6041 11
      vertex 35.269 67.3032 13
      vertex 34.9486 67.6041 13
    endloop
  endfacet
  facet normal -0.684544 -0.728972 -0
    outer loop
      vertex 35.269 67.3032 13
      vertex 34.9486 67.6041 11
      vertex 35.269 67.3032 11
    endloop
  endfacet
  facet normal -0.904824 -0.425785 0
    outer loop
      vertex 34.4329 68.3139 11
      vertex 34.2458 68.7116 13
      vertex 34.2458 68.7116 11
    endloop
  endfacet
  facet normal -0.904824 -0.425785 0
    outer loop
      vertex 34.2458 68.7116 13
      vertex 34.4329 68.3139 11
      vertex 34.4329 68.3139 13
    endloop
  endfacet
  facet normal -0.982288 -0.187379 0
    outer loop
      vertex 34.11 69.1296 11
      vertex 34.0276 69.5613 13
      vertex 34.0276 69.5613 11
    endloop
  endfacet
  facet normal -0.982288 -0.187379 0
    outer loop
      vertex 34.0276 69.5613 13
      vertex 34.11 69.1296 11
      vertex 34.11 69.1296 13
    endloop
  endfacet
  facet normal -0.998027 -0.0627922 0
    outer loop
      vertex 34.0276 69.5613 11
      vertex 34 70 13
      vertex 34 70 11
    endloop
  endfacet
  facet normal -0.998027 -0.0627922 0
    outer loop
      vertex 34 70 13
      vertex 34.0276 69.5613 11
      vertex 34.0276 69.5613 13
    endloop
  endfacet
  facet normal 0.587795 -0.80901 0
    outer loop
      vertex 39.5 67.1354 11
      vertex 39.731 67.3032 13
      vertex 39.5 67.1354 13
    endloop
  endfacet
  facet normal 0.587795 -0.80901 0
    outer loop
      vertex 39.731 67.3032 13
      vertex 39.5 67.1354 11
      vertex 39.731 67.3032 11
    endloop
  endfacet
  facet normal -0.587795 -0.80901 0
    outer loop
      vertex 35.269 67.3032 11
      vertex 35.5 67.1354 13
      vertex 35.269 67.3032 13
    endloop
  endfacet
  facet normal -0.587795 -0.80901 -0
    outer loop
      vertex 35.5 67.1354 13
      vertex 35.269 67.3032 11
      vertex 35.5 67.1354 11
    endloop
  endfacet
  facet normal -0.84433 -0.535823 0
    outer loop
      vertex 34.6684 67.9427 11
      vertex 34.4329 68.3139 13
      vertex 34.4329 68.3139 11
    endloop
  endfacet
  facet normal -0.84433 -0.535823 0
    outer loop
      vertex 34.4329 68.3139 13
      vertex 34.6684 67.9427 11
      vertex 34.6684 67.9427 13
    endloop
  endfacet
  facet normal 0.998027 0.0627887 0
    outer loop
      vertex 39.5 70 11
      vertex 39.4842 70.2507 7
      vertex 39.4842 70.2507 11
    endloop
  endfacet
  facet normal 0.998027 0.0627887 0
    outer loop
      vertex 39.4842 70.2507 7
      vertex 39.5 70 11
      vertex 39.5 70 7
    endloop
  endfacet
  facet normal 1 0 0
    outer loop
      vertex 39.5 67.1354 13
      vertex 39.5 66.5 13
      vertex 39.5 67.1354 11
    endloop
  endfacet
  facet normal 1 -0 0
    outer loop
      vertex 39.5 67.1354 11
      vertex 39.5 70 7
      vertex 39.5 70 11
    endloop
  endfacet
  facet normal 1 0 0
    outer loop
      vertex 39.5 67.1354 11
      vertex 39.5 61.5 7
      vertex 39.5 70 7
    endloop
  endfacet
  facet normal 1 0 0
    outer loop
      vertex 39.5 61.5 7
      vertex 39.5 67.1354 11
      vertex 39.5 66.5 13
    endloop
  endfacet
  facet normal 0.684537 0.728978 -0
    outer loop
      vertex 38.9579 71.3691 7
      vertex 38.7748 71.541 11
      vertex 38.9579 71.3691 11
    endloop
  endfacet
  facet normal 0.684537 0.728978 0
    outer loop
      vertex 38.7748 71.541 11
      vertex 38.9579 71.3691 7
      vertex 38.7748 71.541 7
    endloop
  endfacet
  facet normal -0.125332 0.992115 0
    outer loop
      vertex 37.3744 71.9961 7
      vertex 37.1252 71.9646 11
      vertex 37.3744 71.9961 11
    endloop
  endfacet
  facet normal -0.125332 0.992115 0
    outer loop
      vertex 37.1252 71.9646 11
      vertex 37.3744 71.9961 7
      vertex 37.1252 71.9646 7
    endloop
  endfacet
  facet normal -0.684537 0.728978 0
    outer loop
      vertex 36.2252 71.541 7
      vertex 36.0421 71.3691 11
      vertex 36.2252 71.541 11
    endloop
  endfacet
  facet normal -0.684537 0.728978 0
    outer loop
      vertex 36.0421 71.3691 11
      vertex 36.2252 71.541 7
      vertex 36.0421 71.3691 7
    endloop
  endfacet
  facet normal 0 -0.768221 0.640184
    outer loop
      vertex 35.5 61.5 7
      vertex 39.5 66.5 13
      vertex 35.5 66.5 13
    endloop
  endfacet
  facet normal 0 -0.768221 0.640184
    outer loop
      vertex 39.5 66.5 13
      vertex 35.5 61.5 7
      vertex 39.5 61.5 7
    endloop
  endfacet
  facet normal -0.951059 0.309011 0
    outer loop
      vertex 35.5628 70.4974 7
      vertex 35.6404 70.7363 11
      vertex 35.6404 70.7363 7
    endloop
  endfacet
  facet normal -0.951059 0.309011 0
    outer loop
      vertex 35.6404 70.7363 11
      vertex 35.5628 70.4974 7
      vertex 35.5628 70.4974 11
    endloop
  endfacet
  facet normal -1 0 0
    outer loop
      vertex 35.5 70 7
      vertex 35.5 67.1354 11
      vertex 35.5 70 11
    endloop
  endfacet
  facet normal -1 0 0
    outer loop
      vertex 35.5 67.1354 11
      vertex 35.5 66.5 13
      vertex 35.5 67.1354 13
    endloop
  endfacet
  facet normal -1 -0 0
    outer loop
      vertex 35.5 67.1354 11
      vertex 35.5 61.5 7
      vertex 35.5 66.5 13
    endloop
  endfacet
  facet normal -1 0 0
    outer loop
      vertex 35.5 61.5 7
      vertex 35.5 67.1354 11
      vertex 35.5 70 7
    endloop
  endfacet
  facet normal 0.982285 0.187393 0
    outer loop
      vertex 39.4842 70.2507 11
      vertex 39.4372 70.4974 7
      vertex 39.4372 70.4974 11
    endloop
  endfacet
  facet normal 0.982285 0.187393 0
    outer loop
      vertex 39.4372 70.4974 7
      vertex 39.4842 70.2507 11
      vertex 39.4842 70.2507 7
    endloop
  endfacet
  facet normal 0.587785 0.809017 -0
    outer loop
      vertex 38.7748 71.541 7
      vertex 38.5717 71.6887 11
      vertex 38.7748 71.541 11
    endloop
  endfacet
  facet normal 0.587785 0.809017 0
    outer loop
      vertex 38.5717 71.6887 11
      vertex 38.7748 71.541 7
      vertex 38.5717 71.6887 7
    endloop
  endfacet
  facet normal 0.248692 0.968583 -0
    outer loop
      vertex 38.118 71.9021 7
      vertex 37.8748 71.9646 11
      vertex 38.118 71.9021 11
    endloop
  endfacet
  facet normal 0.248692 0.968583 0
    outer loop
      vertex 37.8748 71.9646 11
      vertex 38.118 71.9021 7
      vertex 37.8748 71.9646 7
    endloop
  endfacet
  facet normal -0.904829 0.425774 0
    outer loop
      vertex 35.6404 70.7363 7
      vertex 35.7474 70.9635 11
      vertex 35.7474 70.9635 7
    endloop
  endfacet
  facet normal -0.904829 0.425774 0
    outer loop
      vertex 35.7474 70.9635 11
      vertex 35.6404 70.7363 7
      vertex 35.6404 70.7363 11
    endloop
  endfacet
  facet normal -0.587785 0.809017 0
    outer loop
      vertex 36.4283 71.6887 7
      vertex 36.2252 71.541 11
      vertex 36.4283 71.6887 11
    endloop
  endfacet
  facet normal -0.587785 0.809017 0
    outer loop
      vertex 36.2252 71.541 11
      vertex 36.4283 71.6887 7
      vertex 36.2252 71.541 7
    endloop
  endfacet
  facet normal -0.248692 0.968583 0
    outer loop
      vertex 37.1252 71.9646 7
      vertex 36.882 71.9021 11
      vertex 37.1252 71.9646 11
    endloop
  endfacet
  facet normal -0.248692 0.968583 0
    outer loop
      vertex 36.882 71.9021 11
      vertex 37.1252 71.9646 7
      vertex 36.882 71.9021 7
    endloop
  endfacet
  facet normal 0.125332 0.992115 -0
    outer loop
      vertex 37.8748 71.9646 7
      vertex 37.6256 71.9961 11
      vertex 37.8748 71.9646 11
    endloop
  endfacet
  facet normal 0.125332 0.992115 0
    outer loop
      vertex 37.6256 71.9961 11
      vertex 37.8748 71.9646 7
      vertex 37.6256 71.9961 7
    endloop
  endfacet
  facet normal -0.368131 0.929774 0
    outer loop
      vertex 36.882 71.9021 7
      vertex 36.6484 71.8097 11
      vertex 36.882 71.9021 11
    endloop
  endfacet
  facet normal -0.368131 0.929774 0
    outer loop
      vertex 36.6484 71.8097 11
      vertex 36.882 71.9021 7
      vertex 36.6484 71.8097 7
    endloop
  endfacet
  facet normal -0.998027 0.0627887 0
    outer loop
      vertex 35.5 70 7
      vertex 35.5158 70.2507 11
      vertex 35.5158 70.2507 7
    endloop
  endfacet
  facet normal -0.998027 0.0627887 0
    outer loop
      vertex 35.5158 70.2507 11
      vertex 35.5 70 7
      vertex 35.5 70 11
    endloop
  endfacet
  facet normal 0.904829 0.425774 0
    outer loop
      vertex 39.3596 70.7363 11
      vertex 39.2526 70.9635 7
      vertex 39.2526 70.9635 11
    endloop
  endfacet
  facet normal 0.904829 0.425774 0
    outer loop
      vertex 39.2526 70.9635 7
      vertex 39.3596 70.7363 11
      vertex 39.3596 70.7363 7
    endloop
  endfacet
  facet normal 0.951059 0.309011 0
    outer loop
      vertex 39.4372 70.4974 11
      vertex 39.3596 70.7363 7
      vertex 39.3596 70.7363 11
    endloop
  endfacet
  facet normal 0.951059 0.309011 0
    outer loop
      vertex 39.3596 70.7363 7
      vertex 39.4372 70.4974 11
      vertex 39.4372 70.4974 7
    endloop
  endfacet
  facet normal 0.481763 0.876302 -0
    outer loop
      vertex 38.5717 71.6887 7
      vertex 38.3516 71.8097 11
      vertex 38.5717 71.6887 11
    endloop
  endfacet
  facet normal 0.481763 0.876302 0
    outer loop
      vertex 38.3516 71.8097 11
      vertex 38.5717 71.6887 7
      vertex 38.3516 71.8097 7
    endloop
  endfacet
  facet normal 0.368131 0.929774 -0
    outer loop
      vertex 38.3516 71.8097 7
      vertex 38.118 71.9021 11
      vertex 38.3516 71.8097 11
    endloop
  endfacet
  facet normal 0.368131 0.929774 0
    outer loop
      vertex 38.118 71.9021 11
      vertex 38.3516 71.8097 7
      vertex 38.118 71.9021 7
    endloop
  endfacet
  facet normal -0.770522 0.637414 0
    outer loop
      vertex 35.882 71.1756 7
      vertex 36.0421 71.3691 11
      vertex 36.0421 71.3691 7
    endloop
  endfacet
  facet normal -0.770522 0.637414 0
    outer loop
      vertex 36.0421 71.3691 11
      vertex 35.882 71.1756 7
      vertex 35.882 71.1756 11
    endloop
  endfacet
  facet normal -0.844324 0.535832 0
    outer loop
      vertex 35.7474 70.9635 7
      vertex 35.882 71.1756 11
      vertex 35.882 71.1756 7
    endloop
  endfacet
  facet normal -0.844324 0.535832 0
    outer loop
      vertex 35.882 71.1756 11
      vertex 35.7474 70.9635 7
      vertex 35.7474 70.9635 11
    endloop
  endfacet
  facet normal -0.481763 0.876302 0
    outer loop
      vertex 36.6484 71.8097 7
      vertex 36.4283 71.6887 11
      vertex 36.6484 71.8097 11
    endloop
  endfacet
  facet normal -0.481763 0.876302 0
    outer loop
      vertex 36.4283 71.6887 11
      vertex 36.6484 71.8097 7
      vertex 36.4283 71.6887 7
    endloop
  endfacet
  facet normal -0.982285 0.187393 0
    outer loop
      vertex 35.5158 70.2507 7
      vertex 35.5628 70.4974 11
      vertex 35.5628 70.4974 7
    endloop
  endfacet
  facet normal -0.982285 0.187393 0
    outer loop
      vertex 35.5628 70.4974 11
      vertex 35.5158 70.2507 7
      vertex 35.5158 70.2507 11
    endloop
  endfacet
  facet normal 0.770522 0.637414 0
    outer loop
      vertex 39.118 71.1756 11
      vertex 38.9579 71.3691 7
      vertex 38.9579 71.3691 11
    endloop
  endfacet
  facet normal 0.770522 0.637414 0
    outer loop
      vertex 38.9579 71.3691 7
      vertex 39.118 71.1756 11
      vertex 39.118 71.1756 7
    endloop
  endfacet
  facet normal 0.844324 0.535832 0
    outer loop
      vertex 39.2526 70.9635 11
      vertex 39.118 71.1756 7
      vertex 39.118 71.1756 11
    endloop
  endfacet
  facet normal 0.844324 0.535832 0
    outer loop
      vertex 39.118 71.1756 7
      vertex 39.2526 70.9635 11
      vertex 39.2526 70.9635 7
    endloop
  endfacet
  facet normal 0 1 -0
    outer loop
      vertex 37.6256 71.9961 7
      vertex 37.3744 71.9961 11
      vertex 37.6256 71.9961 11
    endloop
  endfacet
  facet normal 0 1 0
    outer loop
      vertex 37.3744 71.9961 11
      vertex 37.6256 71.9961 7
      vertex 37.3744 71.9961 7
    endloop
  endfacet
  facet normal 1 -0 0
    outer loop
      vertex -11.5 0 5.2
      vertex -11.5 65 0
      vertex -11.5 65 5.2
    endloop
  endfacet
  facet normal 1 0 0
    outer loop
      vertex -11.5 65 0
      vertex -11.5 0 5.2
      vertex -11.5 0 0
    endloop
  endfacet
  facet normal 0 0 -1
    outer loop
      vertex -11.5 0 5.2
      vertex -6.3 65 5.2
      vertex -6.3 0 5.2
    endloop
  endfacet
  facet normal -0 0 -1
    outer loop
      vertex -6.3 65 5.2
      vertex -11.5 0 5.2
      vertex -11.5 65 5.2
    endloop
  endfacet
  facet normal -1 0 0
    outer loop
      vertex -6.3 0 2.3
      vertex -6.3 65 5.2
      vertex -6.3 65 2.3
    endloop
  endfacet
  facet normal -1 -0 0
    outer loop
      vertex -6.3 65 5.2
      vertex -6.3 0 2.3
      vertex -6.3 0 5.2
    endloop
  endfacet
  facet normal 0 -1 0
    outer loop
      vertex -11.5 65 5.2
      vertex -8.8 65 2.3
      vertex -6.3 65 5.2
    endloop
  endfacet
  facet normal 0 -1 0
    outer loop
      vertex -11.5 65 0
      vertex -8.8 65 2.3
      vertex -11.5 65 5.2
    endloop
  endfacet
  facet normal 0 -1 -0
    outer loop
      vertex -8.8 65 2.3
      vertex -11.5 65 0
      vertex -8.8 65 0
    endloop
  endfacet
  facet normal 0 -1 -0
    outer loop
      vertex -6.3 65 5.2
      vertex -8.8 65 2.3
      vertex -6.3 65 2.3
    endloop
  endfacet
  facet normal -1 0 0
    outer loop
      vertex -8.8 0 0
      vertex -8.8 65 2.3
      vertex -8.8 65 0
    endloop
  endfacet
  facet normal -1 -0 0
    outer loop
      vertex -8.8 65 2.3
      vertex -8.8 0 0
      vertex -8.8 0 2.3
    endloop
  endfacet
  facet normal -0 0 1
    outer loop
      vertex -8.8 65 2.3
      vertex -6.3 0 2.3
      vertex -6.3 65 2.3
    endloop
  endfacet
  facet normal 0 0 1
    outer loop
      vertex -6.3 0 2.3
      vertex -8.8 65 2.3
      vertex -8.8 0 2.3
    endloop
  endfacet
  facet normal -1 0 0
    outer loop
      vertex 11.5 0 0
      vertex 11.5 65 5.2
      vertex 11.5 65 0
    endloop
  endfacet
  facet normal -1 -0 0
    outer loop
      vertex 11.5 65 5.2
      vertex 11.5 0 0
      vertex 11.5 0 5.2
    endloop
  endfacet
  facet normal 0 0 -1
    outer loop
      vertex 6.3 0 5.2
      vertex 11.5 65 5.2
      vertex 11.5 0 5.2
    endloop
  endfacet
  facet normal -0 0 -1
    outer loop
      vertex 11.5 65 5.2
      vertex 6.3 0 5.2
      vertex 6.3 65 5.2
    endloop
  endfacet
  facet normal 1 -0 0
    outer loop
      vertex 6.3 0 5.2
      vertex 6.3 65 2.3
      vertex 6.3 65 5.2
    endloop
  endfacet
  facet normal 1 0 0
    outer loop
      vertex 6.3 65 2.3
      vertex 6.3 0 5.2
      vertex 6.3 0 2.3
    endloop
  endfacet
  facet normal 0 -1 0
    outer loop
      vertex 8.8 65 2.3
      vertex 6.3 65 5.2
      vertex 6.3 65 2.3
    endloop
  endfacet
  facet normal 0 -1 0
    outer loop
      vertex 6.3 65 5.2
      vertex 8.8 65 2.3
      vertex 11.5 65 5.2
    endloop
  endfacet
  facet normal 0 -1 0
    outer loop
      vertex 11.5 65 0
      vertex 8.8 65 2.3
      vertex 8.8 65 0
    endloop
  endfacet
  facet normal 0 -1 0
    outer loop
      vertex 8.8 65 2.3
      vertex 11.5 65 0
      vertex 11.5 65 5.2
    endloop
  endfacet
  facet normal 1 -0 0
    outer loop
      vertex 8.8 0 2.3
      vertex 8.8 65 0
      vertex 8.8 65 2.3
    endloop
  endfacet
  facet normal 1 0 0
    outer loop
      vertex 8.8 65 0
      vertex 8.8 0 2.3
      vertex 8.8 0 0
    endloop
  endfacet
  facet normal -0 0 1
    outer loop
      vertex 6.3 65 2.3
      vertex 8.8 0 2.3
      vertex 8.8 65 2.3
    endloop
  endfacet
  facet normal 0 0 1
    outer loop
      vertex 8.8 0 2.3
      vertex 6.3 65 2.3
      vertex 6.3 0 2.3
    endloop
  endfacet
  facet normal -1 0 0
    outer loop
      vertex -47.5 0 0
      vertex -47.5 75 7
      vertex -47.5 75 0
    endloop
  endfacet
  facet normal -1 -0 0
    outer loop
      vertex -47.5 75 7
      vertex -47.5 0 0
      vertex -47.5 0 7
    endloop
  endfacet
  facet normal 1 -0 0
    outer loop
      vertex 47.5 0 7
      vertex 47.5 75 0
      vertex 47.5 75 7
    endloop
  endfacet
  facet normal 1 0 0
    outer loop
      vertex 47.5 75 0
      vertex 47.5 0 7
      vertex 47.5 0 0
    endloop
  endfacet
  facet normal 0 1 -0
    outer loop
      vertex 47.5 75 0
      vertex -47.5 75 7
      vertex 47.5 75 7
    endloop
  endfacet
  facet normal 0 1 0
    outer loop
      vertex -47.5 75 7
      vertex 47.5 75 0
      vertex -47.5 75 0
    endloop
  endfacet
  facet normal 0 0 -1
    outer loop
      vertex -11.5 0 0
      vertex -47.5 0 0
      vertex -11.5 65 0
    endloop
  endfacet
  facet normal 0 0 -1
    outer loop
      vertex 8.8 0 0
      vertex -8.8 0 0
      vertex 8.8 65 0
    endloop
  endfacet
  facet normal 0 0 -1
    outer loop
      vertex 11.5 65 0
      vertex 47.5 0 0
      vertex 11.5 0 0
    endloop
  endfacet
  facet normal 0 0 -1
    outer loop
      vertex 47.5 0 0
      vertex 11.5 65 0
      vertex 47.5 75 0
    endloop
  endfacet
  facet normal 0 0 -1
    outer loop
      vertex 8.8 65 0
      vertex 47.5 75 0
      vertex 11.5 65 0
    endloop
  endfacet
  facet normal 0 0 -1
    outer loop
      vertex -8.8 65 0
      vertex 8.8 65 0
      vertex -8.8 0 0
    endloop
  endfacet
  facet normal 0 0 -1
    outer loop
      vertex -8.8 65 0
      vertex 47.5 75 0
      vertex 8.8 65 0
    endloop
  endfacet
  facet normal 0 0 -1
    outer loop
      vertex -47.5 75 0
      vertex -8.8 65 0
      vertex -11.5 65 0
    endloop
  endfacet
  facet normal 0 0 -1
    outer loop
      vertex -8.8 65 0
      vertex -47.5 75 0
      vertex 47.5 75 0
    endloop
  endfacet
  facet normal 0 0 -1
    outer loop
      vertex -47.5 75 0
      vertex -11.5 65 0
      vertex -47.5 0 0
    endloop
  endfacet
  facet normal 0 -1 0
    outer loop
      vertex -8.8 0 0
      vertex -6.3 0 2.3
      vertex -8.8 0 2.3
    endloop
  endfacet
  facet normal 0 -1 -0
    outer loop
      vertex -6.3 0 2.3
      vertex -8.8 0 0
      vertex 6.3 0 2.3
    endloop
  endfacet
  facet normal 0 -1 0
    outer loop
      vertex 8.8 0 0
      vertex 6.3 0 2.3
      vertex -8.8 0 0
    endloop
  endfacet
  facet normal 0 -1 0
    outer loop
      vertex 6.3 0 2.3
      vertex 8.8 0 0
      vertex 8.8 0 2.3
    endloop
  endfacet
  facet normal 0 -1 0
    outer loop
      vertex -6.3 0 2.3
      vertex 6.3 0 5.2
      vertex -6.3 0 5.2
    endloop
  endfacet
  facet normal 0 -1 -0
    outer loop
      vertex 6.3 0 5.2
      vertex -6.3 0 2.3
      vertex 6.3 0 2.3
    endloop
  endfacet
  facet normal 0 -1 0
    outer loop
      vertex -6.3 0 5.2
      vertex -47.5 0 7
      vertex -11.5 0 5.2
    endloop
  endfacet
  facet normal 0 -1 0
    outer loop
      vertex -47.5 0 0
      vertex -11.5 0 5.2
      vertex -47.5 0 7
    endloop
  endfacet
  facet normal 0 -1 -0
    outer loop
      vertex -11.5 0 5.2
      vertex -47.5 0 0
      vertex -11.5 0 0
    endloop
  endfacet
  facet normal 0 -1 0
    outer loop
      vertex -47.5 0 7
      vertex -6.3 0 5.2
      vertex 47.5 0 7
    endloop
  endfacet
  facet normal 0 -1 0
    outer loop
      vertex 6.3 0 5.2
      vertex 47.5 0 7
      vertex -6.3 0 5.2
    endloop
  endfacet
  facet normal 0 -1 0
    outer loop
      vertex 11.5 0 5.2
      vertex 47.5 0 7
      vertex 6.3 0 5.2
    endloop
  endfacet
  facet normal 0 -1 0
    outer loop
      vertex 47.5 0 0
      vertex 11.5 0 5.2
      vertex 11.5 0 0
    endloop
  endfacet
  facet normal 0 -1 0
    outer loop
      vertex 11.5 0 5.2
      vertex 47.5 0 0
      vertex 47.5 0 7
    endloop
  endfacet
endsolid OpenSCAD_Model
