solid OpenSCAD_Model
  facet normal -0.279981 0.861693 -0.423197
    outer loop
      vertex -18.3455 10.4755 0.133974
      vertex -19.309 10.5878 1
      vertex -18.191 10.9511 1
    endloop
  endfacet
  facet normal -0.279981 -0.861693 -0.423197
    outer loop
      vertex -18.191 -10.9511 1
      vertex -19.309 -10.5878 1
      vertex -18.3455 -10.4755 0.133974
    endloop
  endfacet
  facet normal -0.279982 -0.861692 -0.423198
    outer loop
      vertex -18.3455 -10.4755 0.133974
      vertex -19.309 -10.5878 1
      vertex -18.9045 -10.2939 0.133974
    endloop
  endfacet
  facet normal 0.733 -0.532555 -0.423198
    outer loop
      vertex 19.5 -10 1
      vertex 18.809 -10.9511 1
      vertex 19 -10 0.133974
    endloop
  endfacet
  facet normal -0.906037 0 -0.423197
    outer loop
      vertex -18.9045 -10.2939 0.133974
      vertex -19.309 10.5878 1
      vertex -18.9045 10.2939 0.133974
    endloop
  endfacet
  facet normal -0.906037 -0 -0.423197
    outer loop
      vertex -19.309 10.5878 1
      vertex -18.9045 -10.2939 0.133974
      vertex -19.309 -10.5878 1
    endloop
  endfacet
  facet normal -0 0 1
    outer loop
      vertex -17.5 9.04894 1.86602
      vertex 17.691 -9.04894 1.86602
      vertex 17.691 9.04894 1.86602
    endloop
  endfacet
  facet normal 0 0 1
    outer loop
      vertex 17.691 -9.04894 1.86602
      vertex -17.5 9.04894 1.86602
      vertex -17.5 -9.04894 1.86602
    endloop
  endfacet
  facet normal -0.279982 0.861692 -0.423198
    outer loop
      vertex -18.9045 10.2939 0.133974
      vertex -19.309 10.5878 1
      vertex -18.3455 10.4755 0.133974
    endloop
  endfacet
  facet normal 0 0.876551 -0.481308
    outer loop
      vertex 18.6545 10.4755 0.133974
      vertex -18.191 10.9511 1
      vertex 18.809 10.9511 1
    endloop
  endfacet
  facet normal 0 0.876551 -0.481308
    outer loop
      vertex -18.191 10.9511 1
      vertex 18.6545 10.4755 0.133974
      vertex -18.3455 10.4755 0.133974
    endloop
  endfacet
  facet normal 0.732998 -0.532556 -0.423199
    outer loop
      vertex 18.809 -10.9511 1
      vertex 18.6545 -10.4755 0.133974
      vertex 19 -10 0.133974
    endloop
  endfacet
  facet normal 0 0 -1
    outer loop
      vertex 18.6545 -10.4755 0.133974
      vertex 19 10 0.133974
      vertex 19 -10 0.133974
    endloop
  endfacet
  facet normal 0 0 -1
    outer loop
      vertex 18.6545 -10.4755 0.133974
      vertex 18.6545 10.4755 0.133974
      vertex 19 10 0.133974
    endloop
  endfacet
  facet normal 0 0 -1
    outer loop
      vertex -18.3455 -10.4755 0.133974
      vertex 18.6545 10.4755 0.133974
      vertex 18.6545 -10.4755 0.133974
    endloop
  endfacet
  facet normal 0 0 -1
    outer loop
      vertex -18.3455 -10.4755 0.133974
      vertex -18.3455 10.4755 0.133974
      vertex 18.6545 10.4755 0.133974
    endloop
  endfacet
  facet normal 0 0 -1
    outer loop
      vertex -18.9045 -10.2939 0.133974
      vertex -18.3455 10.4755 0.133974
      vertex -18.3455 -10.4755 0.133974
    endloop
  endfacet
  facet normal 0 0 -1
    outer loop
      vertex -18.3455 10.4755 0.133974
      vertex -18.9045 -10.2939 0.133974
      vertex -18.9045 10.2939 0.133974
    endloop
  endfacet
  facet normal -0 -0.876551 -0.481308
    outer loop
      vertex 18.6545 -10.4755 0.133974
      vertex -18.191 -10.9511 1
      vertex -18.3455 -10.4755 0.133974
    endloop
  endfacet
  facet normal 0 -0.876551 -0.481308
    outer loop
      vertex -18.191 -10.9511 1
      vertex 18.6545 -10.4755 0.133974
      vertex 18.809 -10.9511 1
    endloop
  endfacet
  facet normal 0.733 0.532555 -0.423197
    outer loop
      vertex 19 10 0.133974
      vertex 18.809 10.9511 1
      vertex 19.5 10 1
    endloop
  endfacet
  facet normal 0.866026 0 -0.5
    outer loop
      vertex 19.5 -10 1
      vertex 19 10 0.133974
      vertex 19.5 10 1
    endloop
  endfacet
  facet normal 0.866026 0 -0.5
    outer loop
      vertex 19 10 0.133974
      vertex 19.5 -10 1
      vertex 19 -10 0.133974
    endloop
  endfacet
  facet normal 0.732997 0.532557 -0.4232
    outer loop
      vertex 19 10 0.133974
      vertex 18.6545 10.4755 0.133974
      vertex 18.809 10.9511 1
    endloop
  endfacet
  facet normal 0 1 -0
    outer loop
      vertex 17.691 -9.04894 1.86602
      vertex -17.5 -9.04894 7.13397
      vertex 17.691 -9.04894 7.13397
    endloop
  endfacet
  facet normal 0 1 0
    outer loop
      vertex -17.5 -9.04894 7.13397
      vertex 17.691 -9.04894 1.86602
      vertex -17.5 -9.04894 1.86602
    endloop
  endfacet
  facet normal -0.279981 -0.861693 0.423198
    outer loop
      vertex -18.3455 -10.4755 8.86602
      vertex -19.309 -10.5878 8
      vertex -18.191 -10.9511 8
    endloop
  endfacet
  facet normal 0 -1 0
    outer loop
      vertex -18.191 -10.9511 1
      vertex 18.809 -10.9511 8
      vertex -18.191 -10.9511 8
    endloop
  endfacet
  facet normal 0 -1 -0
    outer loop
      vertex 18.809 -10.9511 8
      vertex -18.191 -10.9511 1
      vertex 18.809 -10.9511 1
    endloop
  endfacet
  facet normal 0.809017 -0.587785 0
    outer loop
      vertex 18.809 -10.9511 8
      vertex 19.5 -10 1
      vertex 19.5 -10 8
    endloop
  endfacet
  facet normal 0.809017 -0.587785 0
    outer loop
      vertex 19.5 -10 1
      vertex 18.809 -10.9511 8
      vertex 18.809 -10.9511 1
    endloop
  endfacet
  facet normal -0.309017 -0.951056 0
    outer loop
      vertex -19.309 -10.5878 1
      vertex -18.191 -10.9511 8
      vertex -19.309 -10.5878 8
    endloop
  endfacet
  facet normal -0.309017 -0.951056 -0
    outer loop
      vertex -18.191 -10.9511 8
      vertex -19.309 -10.5878 1
      vertex -18.191 -10.9511 1
    endloop
  endfacet
  facet normal -0.279982 -0.861692 0.423198
    outer loop
      vertex -18.9045 -10.2939 8.86602
      vertex -19.309 -10.5878 8
      vertex -18.3455 -10.4755 8.86602
    endloop
  endfacet
  facet normal -1 0 0
    outer loop
      vertex -19.309 9 4
      vertex -19.309 10.5878 1
      vertex -19.309 9 2
    endloop
  endfacet
  facet normal -1 0 0
    outer loop
      vertex -19.309 10.5878 1
      vertex -19.309 -9 2
      vertex -19.309 9 2
    endloop
  endfacet
  facet normal -1 -0 0
    outer loop
      vertex -19.309 -9 2
      vertex -19.309 -10.5878 1
      vertex -19.309 -9 4
    endloop
  endfacet
  facet normal -1 0 0
    outer loop
      vertex -19.309 -10.5878 1
      vertex -19.309 -9 2
      vertex -19.309 10.5878 1
    endloop
  endfacet
  facet normal -1 0 0
    outer loop
      vertex -19.309 10.5878 1
      vertex -19.309 9 4
      vertex -19.309 10.5878 8
    endloop
  endfacet
  facet normal -1 0 0
    outer loop
      vertex -19.309 6.75 8
      vertex -19.309 9 4
      vertex -19.309 6.75 4
    endloop
  endfacet
  facet normal -1 0 0
    outer loop
      vertex -19.309 9 4
      vertex -19.309 6.75 8
      vertex -19.309 10.5878 8
    endloop
  endfacet
  facet normal -1 0 0
    outer loop
      vertex -19.309 -9 4
      vertex -19.309 -6.75 8
      vertex -19.309 -6.75 4
    endloop
  endfacet
  facet normal -1 0 0
    outer loop
      vertex -19.309 -9 4
      vertex -19.309 -10.5878 8
      vertex -19.309 -6.75 8
    endloop
  endfacet
  facet normal -1 0 0
    outer loop
      vertex -19.309 -10.5878 8
      vertex -19.309 -9 4
      vertex -19.309 -10.5878 1
    endloop
  endfacet
  facet normal -0.906037 0 0.423198
    outer loop
      vertex -19.309 6.75 8
      vertex -18.9045 10.2939 8.86602
      vertex -19.309 10.5878 8
    endloop
  endfacet
  facet normal -0.906037 0 0.423198
    outer loop
      vertex -18.9045 10.2939 8.86602
      vertex -19.309 6.75 8
      vertex -18.9045 6.75 8.86602
    endloop
  endfacet
  facet normal -0.906037 0 0.423198
    outer loop
      vertex -19.309 -6.75 8
      vertex -18.9045 -10.2939 8.86602
      vertex -18.9045 -6.75 8.86602
    endloop
  endfacet
  facet normal -0.906037 0 0.423198
    outer loop
      vertex -18.9045 -10.2939 8.86602
      vertex -19.309 -6.75 8
      vertex -19.309 -10.5878 8
    endloop
  endfacet
  facet normal 0.732998 -0.532556 0.4232
    outer loop
      vertex 19 -10 8.86602
      vertex 18.6545 -10.4755 8.86602
      vertex 18.809 -10.9511 8
    endloop
  endfacet
  facet normal 0.733 -0.532555 0.423198
    outer loop
      vertex 19 -10 8.86602
      vertex 18.809 -10.9511 8
      vertex 19.5 -10 8
    endloop
  endfacet
  facet normal 0 -0.876551 0.481309
    outer loop
      vertex -18.191 -10.9511 8
      vertex 18.6545 -10.4755 8.86602
      vertex -18.3455 -10.4755 8.86602
    endloop
  endfacet
  facet normal 0 -0.876551 0.481309
    outer loop
      vertex 18.6545 -10.4755 8.86602
      vertex -18.191 -10.9511 8
      vertex 18.809 -10.9511 8
    endloop
  endfacet
  facet normal 0 0 1
    outer loop
      vertex -5.5 6.75 8.86602
      vertex 19 10 8.86602
      vertex 18.6545 10.4755 8.86602
    endloop
  endfacet
  facet normal 0 0 1
    outer loop
      vertex 19 10 8.86602
      vertex -5.5 6.75 8.86602
      vertex 19 -10 8.86602
    endloop
  endfacet
  facet normal -0 0 1
    outer loop
      vertex -5.5 -6.75 8.86602
      vertex 19 -10 8.86602
      vertex -5.5 6.75 8.86602
    endloop
  endfacet
  facet normal -0 0 1
    outer loop
      vertex -18.3455 10.4755 8.86602
      vertex -5.5 6.75 8.86602
      vertex 18.6545 10.4755 8.86602
    endloop
  endfacet
  facet normal 0 0 1
    outer loop
      vertex -18.9045 6.75 8.86602
      vertex -18.3455 10.4755 8.86602
      vertex -18.9045 10.2939 8.86602
    endloop
  endfacet
  facet normal 0 0 1
    outer loop
      vertex -18.3455 10.4755 8.86602
      vertex -18.9045 6.75 8.86602
      vertex -5.5 6.75 8.86602
    endloop
  endfacet
  facet normal 0 0 1
    outer loop
      vertex 19 -10 8.86602
      vertex -5.5 -6.75 8.86602
      vertex 18.6545 -10.4755 8.86602
    endloop
  endfacet
  facet normal 0 0 1
    outer loop
      vertex -5.5 -6.75 8.86602
      vertex -18.3455 -10.4755 8.86602
      vertex 18.6545 -10.4755 8.86602
    endloop
  endfacet
  facet normal -0 0 1
    outer loop
      vertex -18.9045 -6.75 8.86602
      vertex -18.3455 -10.4755 8.86602
      vertex -5.5 -6.75 8.86602
    endloop
  endfacet
  facet normal 0 0 1
    outer loop
      vertex -18.3455 -10.4755 8.86602
      vertex -18.9045 -6.75 8.86602
      vertex -18.9045 -10.2939 8.86602
    endloop
  endfacet
  facet normal 1 0 0
    outer loop
      vertex -17.5 -6.75 7.13397
      vertex -17.5 -9 4
      vertex -17.5 -6.75 4
    endloop
  endfacet
  facet normal 1 0 0
    outer loop
      vertex -17.5 -9.04894 1.86602
      vertex -17.5 -9 4
      vertex -17.5 -9.04894 7.13397
    endloop
  endfacet
  facet normal 1 -0 0
    outer loop
      vertex -17.5 -9.04894 7.13397
      vertex -17.5 -9 4
      vertex -17.5 -6.75 7.13397
    endloop
  endfacet
  facet normal 1 0 0
    outer loop
      vertex -17.5 9.04894 7.13397
      vertex -17.5 9 4
      vertex -17.5 9.04894 1.86602
    endloop
  endfacet
  facet normal 1 -0 0
    outer loop
      vertex -17.5 6.75 7.13397
      vertex -17.5 9 4
      vertex -17.5 9.04894 7.13397
    endloop
  endfacet
  facet normal 1 0 0
    outer loop
      vertex -17.5 9 4
      vertex -17.5 6.75 7.13397
      vertex -17.5 6.75 4
    endloop
  endfacet
  facet normal 1 -0 0
    outer loop
      vertex -17.5 9 2
      vertex -17.5 9.04894 1.86602
      vertex -17.5 9 4
    endloop
  endfacet
  facet normal 1 -0 0
    outer loop
      vertex -17.5 -9 2
      vertex -17.5 9.04894 1.86602
      vertex -17.5 9 2
    endloop
  endfacet
  facet normal 1 0 0
    outer loop
      vertex -17.5 -9 2
      vertex -17.5 -9.04894 1.86602
      vertex -17.5 9.04894 1.86602
    endloop
  endfacet
  facet normal 1 0 0
    outer loop
      vertex -17.5 -9 4
      vertex -17.5 -9.04894 1.86602
      vertex -17.5 -9 2
    endloop
  endfacet
  facet normal -0.309017 0.951056 0
    outer loop
      vertex -18.191 10.9511 1
      vertex -19.309 10.5878 8
      vertex -18.191 10.9511 8
    endloop
  endfacet
  facet normal -0.309017 0.951056 0
    outer loop
      vertex -19.309 10.5878 8
      vertex -18.191 10.9511 1
      vertex -19.309 10.5878 1
    endloop
  endfacet
  facet normal -0.279981 0.861693 0.423198
    outer loop
      vertex -18.191 10.9511 8
      vertex -19.309 10.5878 8
      vertex -18.3455 10.4755 8.86602
    endloop
  endfacet
  facet normal -0.279982 0.861692 0.423198
    outer loop
      vertex -18.3455 10.4755 8.86602
      vertex -19.309 10.5878 8
      vertex -18.9045 10.2939 8.86602
    endloop
  endfacet
  facet normal 0 1 -0
    outer loop
      vertex 18.809 10.9511 1
      vertex -18.191 10.9511 8
      vertex 18.809 10.9511 8
    endloop
  endfacet
  facet normal 0 1 0
    outer loop
      vertex -18.191 10.9511 8
      vertex 18.809 10.9511 1
      vertex -18.191 10.9511 1
    endloop
  endfacet
  facet normal 0 -1 0
    outer loop
      vertex -17.5 9.04894 1.86602
      vertex 17.691 9.04894 7.13397
      vertex -17.5 9.04894 7.13397
    endloop
  endfacet
  facet normal 0 -1 -0
    outer loop
      vertex 17.691 9.04894 7.13397
      vertex -17.5 9.04894 1.86602
      vertex 17.691 9.04894 1.86602
    endloop
  endfacet
  facet normal 0.809017 0.587785 0
    outer loop
      vertex 19.5 10 8
      vertex 18.809 10.9511 1
      vertex 18.809 10.9511 8
    endloop
  endfacet
  facet normal 0.809017 0.587785 0
    outer loop
      vertex 18.809 10.9511 1
      vertex 19.5 10 8
      vertex 19.5 10 1
    endloop
  endfacet
  facet normal -0 0.876551 0.481309
    outer loop
      vertex -18.191 10.9511 8
      vertex 18.6545 10.4755 8.86602
      vertex 18.809 10.9511 8
    endloop
  endfacet
  facet normal 0 0.876551 0.481309
    outer loop
      vertex 18.6545 10.4755 8.86602
      vertex -18.191 10.9511 8
      vertex -18.3455 10.4755 8.86602
    endloop
  endfacet
  facet normal 0.733 0.532555 0.423198
    outer loop
      vertex 19.5 10 8
      vertex 18.809 10.9511 8
      vertex 19 10 8.86602
    endloop
  endfacet
  facet normal 0.732997 0.532557 0.4232
    outer loop
      vertex 18.809 10.9511 8
      vertex 18.6545 10.4755 8.86602
      vertex 19 10 8.86602
    endloop
  endfacet
  facet normal -1 0 0
    outer loop
      vertex 17.691 9.04894 1.86602
      vertex 17.691 6 2
      vertex 17.691 9.04894 7.13397
    endloop
  endfacet
  facet normal -1 0 0
    outer loop
      vertex 17.691 9.04894 1.86602
      vertex 17.691 -6 2
      vertex 17.691 6 2
    endloop
  endfacet
  facet normal -1 -0 0
    outer loop
      vertex 17.691 -6 2
      vertex 17.691 -9.04894 1.86602
      vertex 17.691 -6 7
    endloop
  endfacet
  facet normal -1 0 0
    outer loop
      vertex 17.691 -9.04894 1.86602
      vertex 17.691 -6 2
      vertex 17.691 9.04894 1.86602
    endloop
  endfacet
  facet normal -1 0 0
    outer loop
      vertex 17.691 6 7
      vertex 17.691 9.04894 7.13397
      vertex 17.691 6 2
    endloop
  endfacet
  facet normal -1 0 0
    outer loop
      vertex 17.691 -6 7
      vertex 17.691 9.04894 7.13397
      vertex 17.691 6 7
    endloop
  endfacet
  facet normal -1 0 0
    outer loop
      vertex 17.691 -6 7
      vertex 17.691 -9.04894 7.13397
      vertex 17.691 9.04894 7.13397
    endloop
  endfacet
  facet normal -1 0 0
    outer loop
      vertex 17.691 -9.04894 7.13397
      vertex 17.691 -6 7
      vertex 17.691 -9.04894 1.86602
    endloop
  endfacet
  facet normal 1 0 0
    outer loop
      vertex 19.5 10 8
      vertex 19.5 6 7
      vertex 19.5 10 1
    endloop
  endfacet
  facet normal 1 0 0
    outer loop
      vertex 19.5 10 8
      vertex 19.5 -6 7
      vertex 19.5 6 7
    endloop
  endfacet
  facet normal 1 0 0
    outer loop
      vertex 19.5 -6 7
      vertex 19.5 -10 8
      vertex 19.5 -6 2
    endloop
  endfacet
  facet normal 1 -0 0
    outer loop
      vertex 19.5 -10 8
      vertex 19.5 -6 7
      vertex 19.5 10 8
    endloop
  endfacet
  facet normal 1 -0 0
    outer loop
      vertex 19.5 6 2
      vertex 19.5 10 1
      vertex 19.5 6 7
    endloop
  endfacet
  facet normal 1 -0 0
    outer loop
      vertex 19.5 -6 2
      vertex 19.5 10 1
      vertex 19.5 6 2
    endloop
  endfacet
  facet normal 1 0 0
    outer loop
      vertex 19.5 -6 2
      vertex 19.5 -10 1
      vertex 19.5 10 1
    endloop
  endfacet
  facet normal 1 0 0
    outer loop
      vertex 19.5 -10 1
      vertex 19.5 -6 2
      vertex 19.5 -10 8
    endloop
  endfacet
  facet normal 0.866025 -0 0.5
    outer loop
      vertex 19 -10 8.86602
      vertex 19.5 10 8
      vertex 19 10 8.86602
    endloop
  endfacet
  facet normal 0.866025 0 0.5
    outer loop
      vertex 19.5 10 8
      vertex 19 -10 8.86602
      vertex 19.5 -10 8
    endloop
  endfacet
  facet normal 0 0 -1
    outer loop
      vertex 17.691 -9.04894 7.13397
      vertex -5.5 -6.75 7.13397
      vertex 17.691 9.04894 7.13397
    endloop
  endfacet
  facet normal 0 0 -1
    outer loop
      vertex -17.5 -9.04894 7.13397
      vertex -5.5 -6.75 7.13397
      vertex 17.691 -9.04894 7.13397
    endloop
  endfacet
  facet normal -0 0 -1
    outer loop
      vertex -5.5 -6.75 7.13397
      vertex -17.5 -9.04894 7.13397
      vertex -17.5 -6.75 7.13397
    endloop
  endfacet
  facet normal 0 0 -1
    outer loop
      vertex -5.5 6.75 7.13397
      vertex 17.691 9.04894 7.13397
      vertex -5.5 -6.75 7.13397
    endloop
  endfacet
  facet normal 0 0 -1
    outer loop
      vertex -17.5 9.04894 7.13397
      vertex -5.5 6.75 7.13397
      vertex -17.5 6.75 7.13397
    endloop
  endfacet
  facet normal 0 0 -1
    outer loop
      vertex -5.5 6.75 7.13397
      vertex -17.5 9.04894 7.13397
      vertex 17.691 9.04894 7.13397
    endloop
  endfacet
  facet normal -1 0 0
    outer loop
      vertex -5.5 -6.75 7.13397
      vertex -5.5 6.75 8.86602
      vertex -5.5 6.75 7.13397
    endloop
  endfacet
  facet normal -1 -0 0
    outer loop
      vertex -5.5 6.75 8.86602
      vertex -5.5 -6.75 7.13397
      vertex -5.5 -6.75 8.86602
    endloop
  endfacet
  facet normal 0 -1 0
    outer loop
      vertex -19.309 6.75 4
      vertex -17.5 6.75 7.13397
      vertex -19.309 6.75 8
    endloop
  endfacet
  facet normal 0 -1 -0
    outer loop
      vertex -17.5 6.75 7.13397
      vertex -19.309 6.75 4
      vertex -17.5 6.75 4
    endloop
  endfacet
  facet normal 0 -1 0
    outer loop
      vertex -17.5 6.75 7.13397
      vertex -18.9045 6.75 8.86602
      vertex -19.309 6.75 8
    endloop
  endfacet
  facet normal 0 -1 0
    outer loop
      vertex -18.9045 6.75 8.86602
      vertex -17.5 6.75 7.13397
      vertex -5.5 6.75 8.86602
    endloop
  endfacet
  facet normal 0 -1 -0
    outer loop
      vertex -5.5 6.75 8.86602
      vertex -17.5 6.75 7.13397
      vertex -5.5 6.75 7.13397
    endloop
  endfacet
  facet normal 0 1 -0
    outer loop
      vertex -17.5 -6.75 7.13397
      vertex -18.9045 -6.75 8.86602
      vertex -5.5 -6.75 8.86602
    endloop
  endfacet
  facet normal 0 1 0
    outer loop
      vertex -17.5 -6.75 7.13397
      vertex -5.5 -6.75 8.86602
      vertex -5.5 -6.75 7.13397
    endloop
  endfacet
  facet normal 0 1 0
    outer loop
      vertex -18.9045 -6.75 8.86602
      vertex -17.5 -6.75 7.13397
      vertex -19.309 -6.75 8
    endloop
  endfacet
  facet normal 0 1 0
    outer loop
      vertex -19.309 -6.75 4
      vertex -17.5 -6.75 7.13397
      vertex -17.5 -6.75 4
    endloop
  endfacet
  facet normal 0 1 0
    outer loop
      vertex -17.5 -6.75 7.13397
      vertex -19.309 -6.75 4
      vertex -19.309 -6.75 8
    endloop
  endfacet
  facet normal 0 0 -1
    outer loop
      vertex 17.691 -6 7
      vertex 19.5 6 7
      vertex 19.5 -6 7
    endloop
  endfacet
  facet normal -0 0 -1
    outer loop
      vertex 19.5 6 7
      vertex 17.691 -6 7
      vertex 17.691 6 7
    endloop
  endfacet
  facet normal -0 0 1
    outer loop
      vertex -19.309 9 2
      vertex -17.5 -9 2
      vertex -17.5 9 2
    endloop
  endfacet
  facet normal 0 0 1
    outer loop
      vertex -17.5 -9 2
      vertex -19.309 9 2
      vertex -19.309 -9 2
    endloop
  endfacet
  facet normal -0 0 1
    outer loop
      vertex 17.691 6 2
      vertex 19.5 -6 2
      vertex 19.5 6 2
    endloop
  endfacet
  facet normal 0 0 1
    outer loop
      vertex 19.5 -6 2
      vertex 17.691 6 2
      vertex 17.691 -6 2
    endloop
  endfacet
  facet normal 0 1 -0
    outer loop
      vertex 19.5 -6 2
      vertex 17.691 -6 7
      vertex 19.5 -6 7
    endloop
  endfacet
  facet normal 0 1 0
    outer loop
      vertex 17.691 -6 7
      vertex 19.5 -6 2
      vertex 17.691 -6 2
    endloop
  endfacet
  facet normal 0 -1 0
    outer loop
      vertex 17.691 6 2
      vertex 19.5 6 7
      vertex 17.691 6 7
    endloop
  endfacet
  facet normal 0 -1 -0
    outer loop
      vertex 19.5 6 7
      vertex 17.691 6 2
      vertex 19.5 6 2
    endloop
  endfacet
  facet normal 0 0 -1
    outer loop
      vertex -19.309 -9 4
      vertex -17.5 -6.75 4
      vertex -17.5 -9 4
    endloop
  endfacet
  facet normal -0 0 -1
    outer loop
      vertex -17.5 -6.75 4
      vertex -19.309 -9 4
      vertex -19.309 -6.75 4
    endloop
  endfacet
  facet normal 0 0 -1
    outer loop
      vertex -19.309 6.75 4
      vertex -17.5 9 4
      vertex -17.5 6.75 4
    endloop
  endfacet
  facet normal -0 0 -1
    outer loop
      vertex -17.5 9 4
      vertex -19.309 6.75 4
      vertex -19.309 9 4
    endloop
  endfacet
  facet normal 0 -1 0
    outer loop
      vertex -19.309 9 2
      vertex -17.5 9 4
      vertex -19.309 9 4
    endloop
  endfacet
  facet normal 0 -1 -0
    outer loop
      vertex -17.5 9 4
      vertex -19.309 9 2
      vertex -17.5 9 2
    endloop
  endfacet
  facet normal 0 1 -0
    outer loop
      vertex -17.5 -9 2
      vertex -19.309 -9 4
      vertex -17.5 -9 4
    endloop
  endfacet
  facet normal 0 1 0
    outer loop
      vertex -19.309 -9 4
      vertex -17.5 -9 2
      vertex -19.309 -9 2
    endloop
  endfacet
endsolid OpenSCAD_Model
